{"glyphs":{"0":{"ha":928,"x_min":0,"x_max":0,"o":"m 767 804 b 656 925 739 851 700 894 b 507 982 611 953 558 975 b 364 974 458 989 410 988 b 233 899 314 960 271 936 b 86 619 158 833 110 735 b 88 300 64 518 65 406 b 135 167 99 251 115 206 b 214 67 156 129 183 96 b 317 7 243 39 279 19 b 444 -12 356 -10 400 -15 l 463 -12 b 667 57 540 -8 610 15 b 810 251 728 103 775 168 b 858 529 847 346 863 439 b 767 804 853 625 821 717 z m 340 544 b 407 674 350 603 375 650 b 543 635 439 697 490 718 b 583 442 581 575 594 504 b 519 331 575 394 554 356 b 375 340 465 293 411 297 b 339 436 357 367 346 400 b 340 544 335 472 335 510 z "},"1":{"ha":583,"x_min":0,"x_max":0,"o":"m 514 117 b 511 254 513 165 511 211 b 507 863 507 408 504 543 b 368 979 507 947 457 976 b 157 946 315 982 210 971 b 71 794 93 922 61 858 b 111 721 75 763 89 739 b 233 713 135 701 208 700 l 235 585 l 233 269 b 256 43 233 171 226 89 b 485 28 293 -21 436 -25 b 514 117 504 49 514 76 z "},"2":{"ha":732,"x_min":0,"x_max":0,"o":"m 663 174 b 594 288 660 232 635 275 b 428 296 553 300 482 300 b 624 544 458 388 557 411 b 649 704 650 596 658 647 b 521 926 640 792 596 869 b 128 897 413 1011 233 1003 b 69 774 88 861 72 826 b 157 640 69 710 101 649 b 247 667 197 633 219 651 b 361 646 313 704 358 699 b 290 543 363 614 344 583 b 135 364 225 496 172 433 b 82 133 97 290 79 211 l 82 122 b 174 13 86 67 117 29 b 274 -1 204 3 239 0 b 590 11 474 -1 551 -4 b 663 174 643 35 667 110 z "},"3":{"ha":725,"x_min":0,"x_max":0,"o":"m 647 717 b 515 931 638 801 590 878 b 311 979 461 971 388 989 b 85 842 221 969 133 925 b 86 693 67 808 61 732 b 156 649 101 669 128 653 b 253 678 196 644 226 663 b 369 679 297 707 346 717 b 319 600 390 650 369 613 b 222 560 282 594 243 581 b 197 486 206 540 196 514 b 224 413 196 458 206 432 b 369 346 260 369 349 385 b 313 269 396 303 360 264 b 157 322 268 275 224 331 b 88 278 129 319 103 301 b 126 81 56 224 69 138 b 317 -7 174 32 242 1 b 650 260 485 -25 632 97 b 593 488 665 347 644 428 b 647 717 644 549 664 629 z "},"4":{"ha":935,"x_min":0,"x_max":0,"o":"m 864 344 b 833 442 861 392 854 422 b 717 463 811 463 771 463 b 714 751 713 528 714 596 l 714 872 b 657 971 714 919 706 971 b 567 972 646 972 606 972 b 378 885 451 972 446 968 l 276 744 b 142 540 210 646 149 551 b 69 351 79 449 69 439 b 88 235 69 300 75 260 b 335 186 117 167 167 192 l 451 186 b 467 38 451 117 450 64 b 692 29 499 -21 644 -18 b 717 185 721 58 721 111 b 789 188 726 185 772 185 b 864 344 874 197 865 269 z m 454 463 l 376 461 b 453 576 389 481 439 557 b 454 463 453 536 453 497 z "},"5":{"ha":724,"x_min":0,"x_max":0,"o":"m 638 415 b 465 614 610 508 553 581 b 351 632 432 625 383 631 b 350 715 349 635 350 686 b 517 715 367 715 486 714 b 635 836 599 719 638 749 b 575 964 635 896 626 953 b 222 972 497 979 303 975 b 114 943 171 971 136 965 b 79 797 82 911 79 858 b 99 425 81 715 71 464 b 183 396 121 396 163 396 b 311 389 219 396 311 389 b 369 360 338 383 358 376 b 313 271 393 315 357 265 b 156 325 257 278 226 335 b 85 131 72 313 50 207 b 350 -8 139 43 243 -8 b 650 258 506 -8 631 108 b 638 415 658 307 654 361 z "},"6":{"ha":832,"x_min":0,"x_max":0,"o":"m 753 419 b 624 599 735 494 694 564 b 364 617 540 640 463 650 b 503 694 393 685 442 714 b 607 647 524 689 572 649 l 608 647 b 714 700 643 643 692 661 b 692 872 742 753 726 819 b 251 921 610 993 374 1022 b 86 335 93 793 49 547 b 219 65 110 229 147 126 b 442 -11 282 10 367 -10 b 742 203 579 -14 697 69 b 753 419 764 271 769 350 z m 393 346 b 468 369 407 383 446 394 b 461 279 490 343 496 299 b 393 346 428 260 375 296 z "},"7":{"ha":742,"x_min":0,"x_max":0,"o":"m 639 936 b 503 972 608 967 565 975 b 129 963 418 974 204 975 b 69 826 79 951 69 886 b 186 704 67 743 100 710 b 378 703 201 703 286 703 b 272 453 367 678 290 499 b 193 253 250 397 218 318 b 154 136 160 165 156 144 b 175 26 146 85 156 49 b 296 -1 200 3 256 -7 b 424 106 389 3 400 50 b 526 357 433 129 497 290 b 669 763 593 517 664 679 b 639 936 678 854 668 906 z "},"8":{"ha":767,"x_min":0,"x_max":0,"o":"m 631 486 b 657 526 642 500 650 513 b 696 700 689 586 701 643 b 628 871 693 760 668 815 b 433 978 583 928 513 965 b 317 976 393 985 353 983 b 207 931 276 968 239 953 b 88 768 151 889 108 833 b 86 578 69 707 68 643 b 133 476 93 546 114 504 b 81 188 75 390 56 281 b 186 42 97 126 133 75 b 367 -10 236 8 299 -10 l 372 -10 b 544 33 438 -8 496 6 b 657 151 594 61 631 100 b 696 322 689 210 701 267 b 631 486 693 378 669 433 z m 433 664 b 408 631 431 650 422 638 b 349 631 385 617 364 618 b 335 694 335 649 332 671 b 361 736 338 713 349 729 b 415 724 383 747 399 744 b 433 664 431 706 438 682 z m 335 318 b 415 347 340 357 383 385 b 433 288 431 329 438 307 b 349 254 426 249 375 232 b 335 318 335 271 332 294 z "},"9":{"ha":832,"x_min":0,"x_max":0,"o":"m 79 553 b 208 374 97 478 138 408 b 468 356 292 332 369 322 b 329 278 446 288 390 258 b 225 325 308 283 260 324 l 224 325 b 118 272 189 329 140 311 b 140 100 90 219 106 153 b 581 51 222 -21 458 -50 b 749 638 739 179 792 425 b 618 896 725 743 690 835 b 390 983 556 951 465 982 b 90 769 253 986 135 903 b 79 553 68 701 63 622 z m 439 626 b 364 603 425 589 386 578 b 371 693 342 629 336 674 b 439 626 404 713 457 676 z "}," ":{"ha":292,"x_min":0,"x_max":0,"o":""},"A":{"ha":876,"x_min":0,"x_max":0,"o":"m 803 142 b 753 357 788 222 774 282 b 682 613 743 396 689 590 b 603 868 671 644 622 828 b 535 971 590 903 572 953 b 321 918 469 997 368 982 b 201 558 288 874 261 772 b 108 233 176 464 121 272 b 85 38 78 135 51 83 b 181 -4 101 11 135 -3 b 286 4 207 -7 260 -7 b 372 138 336 21 356 64 b 514 139 392 139 457 139 b 686 4 549 33 569 -6 b 792 43 728 7 769 14 b 803 142 807 65 811 96 z m 478 376 l 415 376 b 447 507 425 418 435 463 b 478 376 451 492 469 408 z "},"Á":{"ha":876,"x_min":0,"x_max":0,"o":"m 667 1286 b 576 1322 657 1321 619 1322 b 418 1288 538 1324 447 1331 b 374 1218 406 1272 374 1218 b 332 1117 356 1189 329 1150 b 435 1078 336 1078 378 1078 b 554 1086 469 1078 532 1078 b 618 1164 581 1097 594 1115 b 664 1257 626 1182 661 1244 b 667 1286 667 1261 669 1275 z m 803 142 b 753 357 788 222 774 282 b 682 613 743 396 689 590 b 603 868 671 644 622 828 b 535 971 590 903 572 953 b 321 918 469 997 368 982 b 201 558 288 874 261 772 b 108 233 176 464 121 272 b 85 38 78 135 51 83 b 181 -4 101 11 135 -3 b 286 4 207 -7 260 -7 b 372 138 336 21 356 64 b 514 139 392 139 457 139 b 686 4 549 33 569 -6 b 792 43 728 7 769 14 b 803 142 807 65 811 96 z m 478 376 l 415 376 b 447 507 425 418 435 463 b 478 376 451 492 469 408 z "},"Â":{"ha":876,"x_min":0,"x_max":0,"o":"m 703 1185 b 496 1397 647 1265 544 1381 b 422 1396 474 1406 443 1404 b 292 1282 371 1371 329 1324 b 213 1190 226 1207 250 1238 b 254 1064 176 1146 207 1103 b 349 1056 286 1039 319 1033 b 451 1163 375 1074 422 1125 b 453 1164 453 1163 453 1164 b 565 1046 475 1136 544 1051 b 693 1110 618 1029 667 1082 b 703 1185 715 1132 724 1153 z m 803 142 b 753 357 788 222 774 282 b 682 613 743 396 689 590 b 603 868 671 644 622 828 b 535 971 590 903 572 953 b 321 918 469 997 368 982 b 201 558 288 874 261 772 b 108 233 176 464 121 272 b 85 38 78 135 51 83 b 181 -4 101 11 135 -3 b 286 4 207 -7 260 -7 b 372 138 336 21 356 64 b 514 139 392 139 457 139 b 686 4 549 33 569 -6 b 792 43 728 7 769 14 b 803 142 807 65 811 96 z m 478 376 l 415 376 b 447 507 425 418 435 463 b 478 376 451 492 469 408 z "},"Ä":{"ha":876,"x_min":0,"x_max":0,"o":"m 421 1217 l 421 1229 b 408 1310 422 1260 418 1283 b 339 1372 397 1343 374 1364 b 254 1371 311 1378 281 1374 b 235 1369 247 1371 240 1369 b 169 1340 207 1367 185 1357 b 149 1286 157 1324 151 1303 b 182 1115 143 1251 136 1147 b 228 1094 196 1106 207 1099 b 288 1089 243 1092 264 1089 b 318 1090 299 1089 308 1089 b 408 1136 364 1096 394 1111 b 418 1164 413 1144 417 1154 b 421 1201 421 1176 421 1190 b 421 1217 422 1208 421 1213 z m 754 1217 l 754 1229 b 742 1310 756 1260 751 1283 b 672 1372 731 1343 707 1364 b 588 1371 644 1378 614 1374 b 568 1369 581 1371 574 1369 b 503 1340 540 1367 518 1357 b 482 1286 490 1324 485 1303 b 515 1115 476 1251 469 1147 b 561 1094 529 1106 540 1099 b 621 1089 576 1092 597 1089 b 651 1090 632 1089 642 1089 b 742 1136 697 1096 728 1111 b 751 1164 746 1144 750 1154 b 754 1201 754 1176 754 1190 b 754 1217 756 1208 754 1213 z m 803 142 b 753 357 788 222 774 282 b 682 613 743 396 689 590 b 603 868 671 644 622 828 b 535 971 590 903 572 953 b 321 918 469 997 368 982 b 201 558 288 874 261 772 b 108 233 176 464 121 272 b 85 38 78 135 51 83 b 181 -4 101 11 135 -3 b 286 4 207 -7 260 -7 b 372 138 336 21 356 64 b 514 139 392 139 457 139 b 686 4 549 33 569 -6 b 792 43 728 7 769 14 b 803 142 807 65 811 96 z m 478 376 l 415 376 b 447 507 425 418 435 463 b 478 376 451 492 469 408 z "},"À":{"ha":876,"x_min":0,"x_max":0,"o":"m 229 1286 b 232 1257 226 1275 229 1261 b 278 1164 235 1244 269 1182 b 342 1086 301 1115 315 1097 b 461 1078 364 1078 426 1078 b 564 1117 518 1078 560 1078 b 522 1218 567 1150 540 1189 b 478 1288 522 1218 490 1272 b 319 1322 449 1331 358 1324 b 229 1286 276 1322 239 1321 z m 803 142 b 753 357 788 222 774 282 b 682 613 743 396 689 590 b 603 868 671 644 622 828 b 535 971 590 903 572 953 b 321 918 469 997 368 982 b 201 558 288 874 261 772 b 108 233 176 464 121 272 b 85 38 78 135 51 83 b 181 -4 101 11 135 -3 b 286 4 207 -7 260 -7 b 372 138 336 21 356 64 b 514 139 392 139 457 139 b 686 4 549 33 569 -6 b 792 43 728 7 769 14 b 803 142 807 65 811 96 z m 478 376 l 415 376 b 447 507 425 418 435 463 b 478 376 451 492 469 408 z "},"Ā":{"ha":876,"x_min":0,"x_max":0,"o":"m 688 1181 b 594 1317 693 1268 671 1315 b 300 1315 501 1319 361 1321 b 222 1240 254 1310 231 1286 b 254 1106 222 1236 206 1140 b 371 1082 283 1085 318 1082 l 539 1085 b 656 1108 601 1085 628 1081 b 688 1181 675 1128 685 1151 z m 803 142 b 753 357 788 222 774 282 b 682 613 743 396 689 590 b 603 868 671 644 622 828 b 535 971 590 903 572 953 b 321 918 469 997 368 982 b 201 558 288 874 261 772 b 108 233 176 464 121 272 b 85 38 78 135 51 83 b 181 -4 101 11 135 -3 b 286 4 207 -7 260 -7 b 372 138 336 21 356 64 b 514 139 392 139 457 139 b 686 4 549 33 569 -6 b 792 43 728 7 769 14 b 803 142 807 65 811 96 z m 478 376 l 415 376 b 447 507 425 418 435 463 b 478 376 451 492 469 408 z "},"Å":{"ha":876,"x_min":0,"x_max":0,"o":"m 454 1072 l 435 1072 b 360 1097 404 1075 379 1083 b 288 1199 324 1122 297 1158 b 346 1379 269 1267 292 1335 b 435 1417 371 1400 403 1413 b 538 1399 471 1421 506 1414 b 624 1233 601 1365 625 1292 b 594 1135 624 1196 614 1163 b 496 1075 572 1103 536 1081 b 454 1072 486 1074 471 1072 z m 435 1207 b 490 1233 454 1194 489 1204 b 478 1279 493 1258 490 1265 b 429 1275 453 1292 435 1279 b 417 1233 422 1269 410 1256 b 435 1207 418 1224 425 1214 z m 803 142 b 753 357 788 222 774 282 b 682 613 743 396 689 590 b 603 868 671 644 622 828 b 535 971 590 903 572 953 b 321 918 469 997 368 982 b 201 558 288 874 261 772 b 108 233 176 464 121 272 b 85 38 78 135 51 83 b 181 -4 101 11 135 -3 b 286 4 207 -7 260 -7 b 372 138 336 21 356 64 b 514 139 392 139 457 139 b 686 4 549 33 569 -6 b 792 43 728 7 769 14 b 803 142 807 65 811 96 z m 478 376 l 415 376 b 447 507 425 418 435 463 b 478 376 451 492 469 408 z "},"Ã":{"ha":876,"x_min":0,"x_max":0,"o":"m 704 1300 b 646 1381 694 1329 681 1361 b 517 1342 592 1415 521 1399 b 543 1246 510 1303 549 1272 b 522 1249 540 1236 531 1236 b 493 1321 513 1264 503 1303 b 199 1328 433 1435 278 1431 b 221 1100 151 1260 164 1154 b 340 1078 254 1067 306 1057 b 354 1182 374 1099 383 1140 b 349 1231 346 1197 338 1219 b 376 1196 364 1243 371 1218 b 436 1096 383 1156 406 1125 b 696 1157 519 1024 650 1057 b 704 1300 717 1203 721 1254 z m 803 142 b 753 357 788 222 774 282 b 682 613 743 396 689 590 b 603 868 671 644 622 828 b 535 971 590 903 572 953 b 321 918 469 997 368 982 b 201 558 288 874 261 772 b 108 233 176 464 121 272 b 85 38 78 135 51 83 b 181 -4 101 11 135 -3 b 286 4 207 -7 260 -7 b 372 138 336 21 356 64 b 514 139 392 139 457 139 b 686 4 549 33 569 -6 b 792 43 728 7 769 14 b 803 142 807 65 811 96 z m 478 376 l 415 376 b 447 507 425 418 435 463 b 478 376 451 492 469 408 z "},"Æ":{"ha":1078,"x_min":0,"x_max":0,"o":"m 936 250 b 714 258 910 253 751 257 b 715 386 714 258 711 289 b 922 422 794 390 911 371 b 931 503 926 439 931 479 b 713 625 939 658 808 613 b 710 749 713 656 708 711 b 865 758 778 750 815 754 b 974 867 947 764 975 788 b 926 983 974 913 971 974 b 642 985 861 996 739 989 l 642 986 b 424 982 632 985 432 983 b 289 831 333 965 311 900 b 129 274 258 742 161 372 b 81 122 115 231 96 165 b 169 -14 54 47 74 -10 b 338 71 249 -17 311 -18 b 356 135 343 93 350 114 b 468 138 381 136 432 136 b 568 4 471 65 481 8 b 904 1 678 -1 783 -7 b 1008 126 1011 3 1007 79 b 936 250 1010 217 1001 244 z m 461 543 b 463 358 461 482 463 419 l 408 358 b 450 517 422 418 435 471 z "},"B":{"ha":758,"x_min":0,"x_max":0,"o":"m 674 369 b 603 486 667 393 618 471 b 657 582 617 501 644 547 b 635 831 683 658 676 751 b 433 967 592 915 510 946 b 285 986 382 982 331 989 b 139 950 232 983 182 971 b 71 822 81 929 72 871 b 69 576 72 740 71 657 b 69 192 69 450 68 319 l 69 139 b 72 113 69 133 71 121 b 131 32 79 71 99 51 b 296 -11 193 1 214 -6 b 349 -12 314 -12 332 -12 b 467 3 389 -12 429 -7 l 469 4 b 571 39 508 14 543 22 b 649 118 604 57 629 82 b 674 369 692 199 701 293 z m 347 586 l 339 586 b 340 618 339 588 340 608 l 342 744 b 408 708 365 744 397 731 b 347 586 435 667 408 593 z m 407 258 b 339 221 390 231 376 221 b 339 247 339 232 339 240 l 339 328 b 339 368 338 333 339 364 b 339 386 339 374 339 382 l 346 386 b 392 360 363 382 381 371 b 411 304 404 346 410 324 b 407 258 415 288 415 269 z "},"C":{"ha":869,"x_min":0,"x_max":0,"o":"m 799 256 b 660 369 794 318 729 389 b 558 290 618 356 592 310 b 390 333 511 269 421 283 b 403 625 339 419 344 515 b 533 685 435 679 469 708 b 676 629 593 649 628 619 b 775 769 744 638 779 699 b 646 944 761 854 718 908 b 290 939 546 1004 392 1011 b 106 671 206 878 144 786 b 131 183 56 522 53 317 b 378 -1 183 85 268 22 b 551 -7 428 -15 499 -15 b 724 76 613 3 676 33 b 799 256 778 126 804 192 z "},"Č":{"ha":869,"x_min":0,"x_max":0,"o":"m 703 1285 b 693 1360 724 1317 715 1338 b 565 1424 667 1388 618 1440 b 453 1306 544 1418 475 1333 b 451 1307 453 1306 453 1307 b 349 1414 422 1344 375 1396 b 254 1406 319 1436 286 1431 b 213 1279 207 1367 176 1324 b 292 1188 250 1232 226 1263 b 422 1074 329 1146 371 1099 b 496 1072 443 1065 474 1064 b 703 1285 544 1089 647 1204 z m 799 256 b 660 369 794 318 729 389 b 558 290 618 356 592 310 b 390 333 511 269 421 283 b 403 625 339 419 344 515 b 533 685 435 679 469 708 b 676 629 593 649 628 619 b 775 769 744 638 779 699 b 646 944 761 854 718 908 b 290 939 546 1004 392 1011 b 106 671 206 878 144 786 b 131 183 56 522 53 317 b 378 -1 183 85 268 22 b 551 -7 428 -15 499 -15 b 724 76 613 3 676 33 b 799 256 778 126 804 192 z "},"Ç":{"ha":872,"x_min":0,"x_max":0,"o":"m 78 588 b 78 363 67 513 65 435 b 133 200 88 303 106 249 b 321 50 182 115 231 93 l 321 25 b 419 -108 321 -43 363 -79 b 468 -171 454 -121 489 -144 b 406 -157 454 -189 421 -174 b 289 -156 365 -128 322 -117 b 296 -292 263 -183 260 -256 b 549 -353 346 -364 460 -399 b 657 -114 636 -308 683 -203 b 589 -19 647 -75 624 -44 b 543 13 579 -10 565 -4 b 731 99 613 13 681 49 b 800 283 800 168 808 219 b 660 396 794 347 728 417 b 597 347 635 386 615 367 b 390 356 535 288 429 289 b 399 647 338 440 340 536 b 561 690 442 725 492 735 b 672 656 592 667 625 649 b 768 797 738 665 775 719 b 638 974 757 869 711 936 b 290 968 532 1033 386 1038 b 78 588 168 883 100 736 z "},"D":{"ha":835,"x_min":0,"x_max":0,"o":"m 747 629 b 592 903 722 743 668 838 b 274 972 519 965 383 983 b 150 949 217 968 213 965 b 72 813 86 929 72 888 b 71 586 68 722 71 742 b 71 276 68 451 75 397 l 71 151 b 94 51 72 107 79 75 b 319 -6 139 -21 213 -6 b 633 97 440 -6 551 15 b 747 629 758 222 790 444 z m 454 332 b 349 288 436 307 393 289 b 343 494 349 289 343 467 b 343 690 342 550 342 686 b 464 619 396 697 449 656 b 454 332 514 508 510 411 z "},"Ð":{"ha":939,"x_min":0,"x_max":0,"o":"m 65 538 b 94 403 65 533 47 438 b 175 379 118 385 144 379 b 175 122 176 296 174 200 b 268 6 178 51 185 4 b 578 17 443 6 503 -1 b 844 303 708 56 815 174 b 688 893 889 503 850 754 b 242 960 586 979 388 1006 b 172 864 226 956 171 936 b 169 614 169 756 169 682 b 65 538 106 607 76 597 z m 433 701 b 575 619 507 718 550 669 b 565 342 617 525 625 450 b 439 286 535 303 493 283 b 436 376 439 319 438 349 b 529 471 493 379 524 417 b 439 608 536 560 514 606 l 433 608 l 432 669 z "},"Ď":{"ha":835,"x_min":0,"x_max":0,"o":"m 635 1285 b 625 1360 656 1317 647 1338 b 497 1424 599 1388 550 1440 b 385 1306 476 1418 407 1333 b 383 1307 385 1306 385 1307 b 281 1414 354 1344 307 1396 b 186 1406 251 1436 218 1431 b 144 1279 139 1367 108 1324 b 224 1188 182 1232 158 1263 b 354 1074 261 1146 303 1099 b 428 1072 375 1065 406 1064 b 635 1285 476 1089 579 1204 z m 747 629 b 592 903 722 743 668 838 b 274 972 519 965 383 983 b 151 949 228 971 199 965 l 150 949 b 72 813 86 929 72 888 b 71 586 68 722 71 742 b 71 276 68 451 75 397 l 71 151 b 94 51 72 107 79 75 b 319 -6 139 -21 213 -6 b 633 97 440 -6 551 15 b 747 629 758 222 790 444 z m 454 332 b 349 288 436 307 393 289 b 343 494 349 289 343 467 b 343 690 342 550 342 686 b 464 619 396 697 449 656 b 454 332 514 508 510 411 z "},"Đ":{"ha":938,"x_min":0,"x_max":0,"o":"m 72 538 b 101 403 72 533 54 438 b 182 379 125 385 151 379 b 182 122 183 296 181 200 b 275 6 185 51 192 4 b 585 17 450 6 510 -1 b 851 303 715 56 822 174 b 694 893 896 503 857 754 b 249 960 593 979 394 1006 b 179 864 233 956 178 936 b 176 614 176 756 176 682 b 72 538 113 607 83 597 z m 440 701 b 582 619 514 718 557 669 b 572 342 624 525 632 450 b 446 286 542 303 500 283 b 443 376 446 319 444 349 b 536 471 500 379 531 417 b 446 608 543 560 521 606 l 440 608 l 439 669 z "},"E":{"ha":683,"x_min":0,"x_max":0,"o":"m 599 239 b 525 279 583 268 553 275 b 328 282 500 281 382 281 b 329 367 328 299 328 326 b 463 372 354 364 435 367 b 531 419 501 378 524 394 b 510 596 543 472 549 557 b 372 629 476 631 424 629 b 328 631 357 629 343 629 b 326 708 328 633 326 708 l 460 714 b 582 840 546 721 585 747 b 519 965 582 899 576 956 b 257 975 460 978 351 978 b 79 946 157 969 121 979 b 42 797 44 914 42 858 b 63 64 44 346 39 124 b 165 0 81 28 114 3 b 415 -3 251 -4 329 -4 b 490 0 440 -3 465 -1 b 596 50 542 1 578 18 b 599 239 615 86 622 197 z "},"É":{"ha":711,"x_min":0,"x_max":0,"o":"m 556 1286 b 465 1322 546 1321 508 1322 b 307 1288 426 1324 336 1331 b 263 1218 294 1272 263 1218 b 221 1117 244 1189 218 1150 b 324 1078 225 1078 267 1078 b 443 1086 358 1078 421 1078 b 507 1164 469 1097 483 1115 b 553 1257 515 1182 550 1244 b 556 1286 556 1261 558 1275 z m 626 239 b 553 279 611 268 581 275 b 356 282 528 281 410 281 b 357 367 356 299 356 326 b 490 372 382 364 463 367 b 558 419 529 378 551 394 b 538 596 571 472 576 557 b 400 629 504 631 451 629 b 356 631 385 629 371 629 b 354 708 356 633 354 708 l 488 714 b 610 840 574 721 613 747 b 547 965 610 899 604 956 b 285 975 488 978 379 978 b 107 946 185 969 149 979 b 69 797 72 914 69 858 b 90 64 72 346 67 124 b 193 0 108 28 142 3 b 443 -3 279 -4 357 -4 b 518 0 468 -3 493 -1 b 624 50 569 1 606 18 b 626 239 643 86 650 197 z "},"Ě":{"ha":711,"x_min":0,"x_max":0,"o":"m 588 1285 b 578 1360 608 1317 600 1338 b 450 1424 551 1388 503 1440 b 338 1306 429 1418 360 1333 b 336 1307 338 1306 338 1307 b 233 1414 307 1344 260 1396 b 139 1406 204 1436 171 1431 b 97 1279 92 1367 61 1324 b 176 1188 135 1232 111 1263 b 307 1074 214 1146 256 1099 b 381 1072 328 1065 358 1064 b 588 1285 429 1089 532 1204 z m 626 239 b 553 279 611 268 581 275 b 356 282 528 281 410 281 b 357 367 356 299 356 326 b 490 372 382 364 463 367 b 558 419 529 378 551 394 b 538 596 571 472 576 557 b 400 629 504 631 451 629 b 356 631 385 629 371 629 b 354 708 356 633 354 708 l 488 714 b 610 840 574 721 613 747 b 547 965 610 899 604 956 b 285 975 488 978 379 978 b 107 946 185 969 149 979 b 69 797 72 914 69 858 b 90 64 72 346 67 124 b 193 0 108 28 142 3 b 443 -3 279 -4 357 -4 b 518 0 468 -3 493 -1 b 624 50 569 1 606 18 b 626 239 643 86 650 197 z "},"Ê":{"ha":711,"x_min":0,"x_max":0,"o":"m 588 1185 b 381 1397 532 1265 429 1381 b 307 1396 358 1406 328 1404 b 176 1282 256 1371 214 1324 b 97 1190 111 1207 135 1238 b 139 1064 61 1146 92 1103 b 233 1056 171 1039 204 1033 b 336 1163 260 1074 307 1125 b 338 1164 338 1163 338 1164 b 450 1046 360 1136 429 1051 b 578 1110 503 1029 551 1082 b 588 1185 600 1132 608 1153 z m 626 239 b 553 279 611 268 581 275 b 356 282 528 281 410 281 b 357 367 356 299 356 326 b 490 372 382 364 463 367 b 558 419 529 378 551 394 b 538 596 571 472 576 557 b 400 629 504 631 451 629 b 356 631 385 629 371 629 b 354 708 356 633 354 708 l 488 714 b 610 840 574 721 613 747 b 547 965 610 899 604 956 b 285 975 488 978 379 978 b 107 946 185 969 149 979 b 69 797 72 914 69 858 b 90 64 72 346 67 124 b 193 0 108 28 142 3 b 443 -3 279 -4 357 -4 b 518 0 468 -3 493 -1 b 624 50 569 1 606 18 b 626 239 643 86 650 197 z "},"Ë":{"ha":749,"x_min":0,"x_max":0,"o":"m 310 1217 l 310 1229 b 297 1310 311 1260 307 1283 b 228 1372 286 1343 263 1364 b 143 1371 200 1378 169 1374 b 124 1369 136 1371 129 1369 b 58 1340 96 1367 74 1357 b 38 1286 46 1324 40 1303 b 71 1115 32 1251 25 1147 b 117 1094 85 1106 96 1099 b 176 1089 132 1092 153 1089 b 207 1090 188 1089 197 1089 b 297 1136 253 1096 283 1111 b 307 1164 301 1144 306 1154 b 310 1201 310 1176 310 1190 b 310 1217 311 1208 310 1213 z m 643 1217 l 643 1229 b 631 1310 644 1260 640 1283 b 561 1372 619 1343 596 1364 b 476 1371 533 1378 503 1374 b 457 1369 469 1371 463 1369 b 392 1340 429 1367 407 1357 b 371 1286 379 1324 374 1303 b 404 1115 365 1251 358 1147 b 450 1094 418 1106 429 1099 b 510 1089 465 1092 486 1089 b 540 1090 521 1089 531 1089 b 631 1136 586 1096 617 1111 b 640 1164 635 1144 639 1154 b 643 1201 643 1176 643 1190 b 643 1217 644 1208 643 1213 z m 626 239 b 553 279 611 268 581 275 b 356 282 528 281 410 281 b 357 367 356 299 356 326 b 490 372 382 364 463 367 b 558 419 529 378 551 394 b 538 596 571 472 576 557 b 400 629 504 631 451 629 b 356 631 385 629 371 629 b 354 708 356 633 354 708 l 488 714 b 610 840 574 721 613 747 b 547 965 610 899 604 956 b 285 975 488 978 379 978 b 107 946 185 969 149 979 b 69 797 72 914 69 858 b 90 64 72 346 67 124 b 193 0 108 28 142 3 b 443 -3 279 -4 357 -4 b 518 0 468 -3 493 -1 b 624 50 569 1 606 18 b 626 239 643 86 650 197 z "},"Ė":{"ha":711,"x_min":0,"x_max":0,"o":"m 476 1217 l 476 1229 b 464 1310 478 1260 474 1283 b 394 1372 453 1343 429 1364 b 310 1371 367 1378 336 1374 b 290 1369 303 1371 296 1369 b 225 1340 263 1367 240 1357 b 204 1286 213 1324 207 1303 b 238 1115 199 1251 192 1147 b 283 1094 251 1106 263 1099 b 343 1089 299 1092 319 1089 b 374 1090 354 1089 364 1089 b 464 1136 419 1096 450 1111 b 474 1164 468 1144 472 1154 b 476 1201 476 1176 476 1190 b 476 1217 478 1208 476 1213 z m 626 239 b 553 279 611 268 581 275 b 356 282 528 281 410 281 b 357 367 356 299 356 326 b 490 372 382 364 463 367 b 558 419 529 378 551 394 b 538 596 571 472 576 557 b 400 629 504 631 451 629 b 356 631 385 629 371 629 b 354 708 356 633 354 708 l 488 714 b 610 840 574 721 613 747 b 547 965 610 899 604 956 b 285 975 488 978 379 978 b 107 946 185 969 149 979 b 69 797 72 914 69 858 b 90 64 72 346 67 124 b 193 0 108 28 142 3 b 443 -3 279 -4 357 -4 b 518 0 468 -3 493 -1 b 624 50 569 1 606 18 b 626 239 643 86 650 197 z "},"È":{"ha":711,"x_min":0,"x_max":0,"o":"m 144 1286 b 147 1257 142 1275 144 1261 b 193 1164 150 1244 185 1182 b 257 1086 217 1115 231 1097 b 376 1078 279 1078 342 1078 b 479 1117 433 1078 475 1078 b 438 1218 482 1150 456 1189 b 393 1288 438 1218 406 1272 b 235 1322 364 1331 274 1324 b 144 1286 192 1322 154 1321 z m 626 239 b 553 279 611 268 581 275 b 356 282 528 281 410 281 b 357 367 356 299 356 326 b 490 372 382 364 463 367 b 558 419 529 378 551 394 b 538 596 571 472 576 557 b 400 629 504 631 451 629 b 356 631 385 629 371 629 b 354 708 356 633 354 708 l 488 714 b 610 840 574 721 613 747 b 547 965 610 899 604 956 b 285 975 488 978 379 978 b 107 946 185 969 149 979 b 69 797 72 914 69 858 b 90 64 72 346 67 124 b 193 0 108 28 142 3 b 443 -3 279 -4 357 -4 b 518 0 468 -3 493 -1 b 624 50 569 1 606 18 b 626 239 643 86 650 197 z "},"Ē":{"ha":711,"x_min":0,"x_max":0,"o":"m 579 1181 b 486 1317 585 1268 563 1315 b 192 1315 393 1319 253 1321 b 114 1240 146 1310 122 1286 b 146 1106 114 1236 97 1140 b 263 1082 175 1085 210 1082 l 431 1085 b 547 1108 493 1085 519 1081 b 579 1181 567 1128 576 1151 z m 626 239 b 553 279 611 268 581 275 b 356 282 528 281 410 281 b 357 367 356 299 356 326 b 490 372 382 364 463 367 b 558 419 529 378 551 394 b 538 596 571 472 576 557 b 400 629 504 631 451 629 b 356 631 385 629 371 629 b 354 708 356 633 354 708 l 488 714 b 610 840 574 721 613 747 b 547 965 610 899 604 956 b 285 975 488 978 379 978 b 107 946 185 969 149 979 b 69 797 72 914 69 858 b 90 64 72 346 67 124 b 193 0 108 28 142 3 b 443 -3 279 -4 357 -4 b 518 0 468 -3 493 -1 b 624 50 569 1 606 18 b 626 239 643 86 650 197 z "},"F":{"ha":696,"x_min":0,"x_max":0,"o":"m 193 0 b 356 165 279 -4 360 -8 b 357 367 356 182 356 326 b 490 372 382 364 463 367 b 558 419 529 378 551 394 b 538 596 571 472 576 557 b 400 629 504 631 451 629 b 356 631 385 629 371 629 b 354 708 356 633 354 708 l 488 714 b 610 840 574 721 613 747 b 547 965 610 899 604 956 b 285 975 488 978 379 978 b 107 946 185 969 149 979 b 69 797 72 914 69 858 b 90 64 72 346 67 124 b 193 0 108 28 142 3 z "},"G":{"ha":956,"x_min":0,"x_max":0,"o":"m 811 161 b 876 508 864 250 904 426 b 753 596 867 558 824 589 b 475 572 642 607 547 599 b 426 426 419 558 400 496 b 572 364 440 397 471 354 b 549 321 575 367 565 335 b 471 293 531 304 501 293 b 388 338 439 290 401 310 b 392 621 335 417 331 510 b 560 667 431 696 496 713 b 675 633 593 647 631 624 b 749 681 704 638 732 656 b 736 861 783 729 771 796 b 282 936 658 993 422 1032 b 78 340 113 811 43 561 b 239 58 99 228 144 128 b 557 -6 324 -4 450 -25 b 811 161 665 13 753 69 z "},"Ģ":{"ha":956,"x_min":0,"x_max":0,"o":"m 803 150 b 879 494 858 238 904 413 b 758 586 871 544 829 576 b 481 571 647 600 553 596 b 426 426 424 560 403 497 b 571 360 440 397 469 353 b 546 318 574 363 563 331 b 467 292 528 301 497 292 b 385 339 435 290 399 311 b 399 622 335 419 333 514 b 568 663 439 696 506 711 b 682 626 600 643 638 618 b 757 671 711 629 739 646 b 750 851 793 718 783 786 b 299 942 676 986 442 1032 b 75 351 125 821 47 574 b 228 65 93 239 136 138 b 543 -8 311 0 436 -25 b 803 150 653 6 742 60 z m 596 -104 b 506 -68 586 -69 549 -68 b 347 -103 467 -67 376 -60 b 303 -172 335 -118 303 -172 b 261 -274 285 -201 258 -240 b 364 -312 265 -312 307 -312 b 483 -304 399 -312 461 -312 b 547 -226 510 -293 524 -275 b 593 -133 556 -208 590 -146 b 596 -104 596 -129 599 -115 z "},"H":{"ha":878,"x_min":0,"x_max":0,"o":"m 808 131 b 803 321 807 200 806 261 b 801 851 799 469 793 557 b 750 960 803 904 786 940 b 539 947 700 985 582 990 b 503 825 513 921 501 882 b 507 714 504 817 507 740 b 504 610 507 668 506 611 l 501 610 b 367 613 500 610 446 606 b 369 856 357 631 369 838 b 351 947 371 893 372 924 b 247 975 332 967 301 975 b 101 932 175 975 131 963 b 69 813 76 906 67 867 b 88 146 86 550 88 465 b 117 40 88 96 97 64 b 219 0 139 17 169 4 b 383 108 317 -8 372 7 b 382 257 392 171 382 215 b 378 328 381 294 378 292 b 507 333 421 332 464 335 b 508 218 510 283 508 269 b 535 35 504 154 510 67 b 635 -1 554 8 583 -1 b 778 35 689 -1 744 1 b 808 131 799 57 808 88 z "},"I":{"ha":436,"x_min":0,"x_max":0,"o":"m 367 125 b 361 304 365 190 364 247 b 360 865 357 444 351 589 b 313 967 361 915 346 949 b 104 956 265 992 143 997 b 69 840 79 932 68 894 b 75 408 82 632 74 463 b 75 275 76 363 76 319 b 75 150 75 235 74 193 b 194 0 78 51 107 7 b 338 36 254 0 308 3 b 367 125 357 54 367 85 z "},"Í":{"ha":436,"x_min":0,"x_max":0,"o":"m 429 1286 b 339 1322 419 1321 382 1322 b 181 1288 300 1324 210 1331 b 136 1218 168 1272 136 1218 b 94 1117 118 1189 92 1150 b 197 1078 99 1078 140 1078 b 317 1086 232 1078 294 1078 b 381 1164 343 1097 357 1115 b 426 1257 389 1182 424 1244 b 429 1286 429 1261 432 1275 z m 367 125 b 361 304 365 190 364 247 b 360 865 357 444 351 589 b 313 967 361 915 346 949 b 104 956 265 992 143 997 b 69 840 79 932 68 894 b 75 408 82 632 74 463 b 75 275 76 363 76 319 b 75 150 75 235 74 193 b 194 0 78 51 107 7 b 338 36 254 0 308 3 b 367 125 357 54 367 85 z "},"Î":{"ha":436,"x_min":0,"x_max":0,"o":"m 461 1185 b 254 1397 406 1265 303 1381 b 181 1396 232 1406 201 1404 b 50 1282 129 1371 88 1324 b -29 1190 -15 1207 8 1238 b 13 1064 -65 1146 -35 1103 b 107 1056 44 1039 78 1033 b 210 1163 133 1074 181 1125 b 211 1164 211 1163 211 1164 b 324 1046 233 1136 303 1051 b 451 1110 376 1029 425 1082 b 461 1185 474 1132 482 1153 z m 367 125 b 361 304 365 190 364 247 b 360 865 357 444 351 589 b 313 967 361 915 346 949 b 104 956 265 992 143 997 b 69 840 79 932 68 894 b 75 408 82 632 74 463 b 75 275 76 363 76 319 b 75 150 75 235 74 193 b 194 0 78 51 107 7 b 338 36 254 0 308 3 b 367 125 357 54 367 85 z "},"Ï":{"ha":436,"x_min":0,"x_max":0,"o":"m 181 1217 l 181 1229 b 168 1310 182 1260 178 1283 b 99 1372 157 1343 133 1364 b 14 1371 71 1378 40 1374 b -6 1369 7 1371 0 1369 b -71 1340 -33 1367 -56 1357 b -92 1286 -83 1324 -89 1303 b -58 1115 -97 1251 -104 1147 b -12 1094 -44 1106 -33 1099 b 47 1089 3 1092 24 1089 b 78 1090 58 1089 68 1089 b 168 1136 124 1096 154 1111 b 178 1164 172 1144 176 1154 b 181 1201 181 1176 181 1190 b 181 1217 182 1208 181 1213 z m 514 1217 l 514 1229 b 501 1310 515 1260 511 1283 b 432 1372 490 1343 467 1364 b 347 1371 404 1378 374 1374 b 328 1369 340 1371 333 1369 b 263 1340 300 1367 278 1357 b 242 1286 250 1324 244 1303 b 275 1115 236 1251 229 1147 b 321 1094 289 1106 300 1099 b 381 1089 336 1092 357 1089 b 411 1090 392 1089 401 1089 b 501 1136 457 1096 488 1111 b 511 1164 506 1144 510 1154 b 514 1201 514 1176 514 1190 b 514 1217 515 1208 514 1213 z m 367 125 b 361 304 365 190 364 247 b 360 865 357 444 351 589 b 313 967 361 915 346 949 b 104 956 265 992 143 997 b 69 840 79 932 68 894 b 75 408 82 632 74 463 b 75 275 76 363 76 319 b 75 150 75 235 74 193 b 194 0 78 51 107 7 b 338 36 254 0 308 3 b 367 125 357 54 367 85 z "},"Ì":{"ha":436,"x_min":0,"x_max":0,"o":"m 3 1286 b 6 1257 0 1275 3 1261 b 51 1164 8 1244 43 1182 b 115 1086 75 1115 89 1097 b 235 1078 138 1078 200 1078 b 338 1117 292 1078 333 1078 b 296 1218 340 1150 314 1189 b 251 1288 296 1218 264 1272 b 93 1322 222 1331 132 1324 b 3 1286 50 1322 13 1321 z m 367 125 b 361 304 365 190 364 247 b 360 865 357 444 351 589 b 313 967 361 915 346 949 b 104 956 265 992 143 997 b 69 840 79 932 68 894 b 75 408 82 632 74 463 b 75 275 76 363 76 319 b 75 150 75 235 74 193 b 194 0 78 51 107 7 b 338 36 254 0 308 3 b 367 125 357 54 367 85 z "},"Ī":{"ha":436,"x_min":0,"x_max":0,"o":"m 453 1181 b 360 1317 458 1268 436 1315 b 65 1315 267 1319 126 1321 b -12 1240 19 1310 -4 1286 b 19 1106 -12 1236 -29 1140 b 136 1082 49 1085 83 1082 l 304 1085 b 421 1108 367 1085 393 1081 b 453 1181 440 1128 450 1151 z m 367 125 b 361 304 365 190 364 247 b 360 865 357 444 351 589 b 313 967 361 915 346 949 b 104 956 265 992 143 997 b 69 840 79 932 68 894 b 75 408 82 632 74 463 b 75 275 76 363 76 319 b 75 150 75 235 74 193 b 194 0 78 51 107 7 b 338 36 254 0 308 3 b 367 125 357 54 367 85 z "},"J":{"ha":776,"x_min":0,"x_max":0,"o":"m 707 604 b 696 869 707 694 704 774 b 538 974 689 964 633 990 b 415 818 449 961 408 907 b 415 344 436 650 449 426 b 349 286 400 310 388 285 b 289 328 326 288 310 306 b 172 382 254 365 213 388 b 71 283 117 374 81 349 b 125 101 63 218 90 139 b 524 28 226 -15 400 -50 b 707 604 700 138 707 375 z "},"K":{"ha":778,"x_min":0,"x_max":0,"o":"m 704 89 b 622 256 676 153 643 217 b 513 481 567 375 521 461 b 535 529 514 483 517 496 b 693 908 693 803 708 868 b 636 957 686 929 668 946 b 421 894 536 989 464 968 b 340 722 400 860 343 732 b 343 856 342 739 343 839 l 343 857 b 190 972 338 957 304 978 b 74 825 88 969 71 925 b 72 464 74 815 72 572 b 69 140 72 358 72 249 b 224 0 69 21 107 0 b 336 251 346 0 336 92 b 414 81 342 239 392 119 b 636 0 472 -15 514 -1 b 704 89 697 1 718 47 z "},"Ķ":{"ha":778,"x_min":0,"x_max":0,"o":"m 704 89 b 622 256 676 153 643 217 b 513 481 567 375 521 461 b 535 529 514 483 517 496 b 693 908 693 803 708 868 b 636 957 686 929 668 946 b 421 894 536 989 464 968 b 340 722 400 860 343 732 b 343 856 342 739 343 839 l 343 857 b 190 972 338 957 304 978 b 74 825 88 969 71 925 b 72 464 74 815 72 572 b 69 140 72 358 72 249 b 224 0 69 21 107 0 b 336 251 346 0 336 92 b 414 81 342 239 392 119 b 636 0 472 -15 514 -1 b 704 89 697 1 718 47 z m 417 -68 b 258 -103 378 -67 288 -60 b 214 -172 246 -118 214 -172 b 172 -274 196 -201 169 -240 b 275 -312 176 -312 218 -312 b 394 -304 310 -312 372 -312 b 458 -226 421 -293 435 -275 b 504 -133 467 -208 501 -146 b 507 -104 507 -129 510 -115 b 417 -68 497 -69 460 -68 z "},"L":{"ha":685,"x_min":0,"x_max":0,"o":"m 614 149 b 583 246 614 197 604 225 b 450 271 549 276 528 269 b 357 272 421 272 394 272 b 354 492 358 354 356 426 b 354 839 351 615 349 714 b 342 925 356 871 351 904 b 260 974 329 953 301 968 b 182 975 239 976 217 978 b 76 896 125 971 89 957 b 69 800 69 867 71 833 l 69 790 b 75 225 69 599 72 414 l 75 178 b 117 33 76 117 82 65 b 228 1 140 11 176 3 l 293 1 b 382 0 321 0 353 0 b 554 11 449 0 511 1 b 608 68 589 18 601 46 b 614 149 615 99 615 125 z "},"Ľ":{"ha":732,"x_min":0,"x_max":0,"o":"m 614 149 b 583 246 614 197 604 225 b 450 271 549 276 528 269 b 357 272 421 272 394 272 b 354 492 358 354 356 426 b 354 839 351 615 349 714 b 342 925 356 871 351 904 b 260 974 329 953 301 968 b 182 975 239 976 217 978 b 76 896 125 971 89 957 b 69 800 69 867 71 833 l 69 790 b 75 225 69 599 72 414 l 75 178 b 117 33 76 117 82 65 b 228 1 140 11 176 3 l 293 1 b 382 0 321 0 353 0 b 554 11 449 0 511 1 b 608 68 589 18 601 46 b 614 149 615 99 615 125 z m 524 507 b 660 600 611 501 658 524 b 658 894 663 693 664 833 b 583 972 653 940 629 964 b 449 940 579 972 483 989 b 425 824 428 911 425 876 l 428 656 b 451 539 428 593 424 567 b 524 507 471 519 494 510 z "},"Ļ":{"ha":685,"x_min":0,"x_max":0,"o":"m 614 149 b 583 246 614 197 604 225 b 450 271 549 276 528 269 b 357 272 421 272 394 272 b 354 492 358 354 356 426 b 354 839 351 615 349 714 b 342 925 356 871 351 904 b 260 974 329 953 301 968 b 182 975 239 976 217 978 b 76 896 125 971 89 957 b 69 800 69 867 71 833 l 69 790 b 75 225 69 599 72 414 l 75 178 b 117 33 76 117 82 65 b 228 1 140 11 176 3 l 293 1 b 382 0 321 0 353 0 b 554 11 449 0 511 1 b 608 68 589 18 601 46 b 614 149 615 99 615 125 z m 472 -104 b 382 -68 463 -69 425 -68 b 224 -103 343 -67 253 -60 b 179 -172 211 -118 179 -172 b 138 -274 161 -201 135 -240 b 240 -312 142 -312 183 -312 b 360 -304 275 -312 338 -312 b 424 -226 386 -293 400 -275 b 469 -133 432 -208 467 -146 b 472 -104 472 -129 475 -115 z "},"Ł":{"ha":811,"x_min":0,"x_max":0,"o":"m 72 478 b 200 349 90 385 125 338 l 201 225 l 201 178 b 243 33 203 117 208 65 b 354 1 267 11 303 3 l 419 1 b 508 0 447 0 479 0 b 681 11 575 0 638 1 b 735 68 715 18 728 46 b 740 149 742 99 742 125 b 710 246 740 197 731 225 b 576 271 675 276 654 269 b 483 272 547 272 521 272 b 482 421 485 325 483 375 b 550 443 510 428 533 436 b 615 550 601 463 622 496 b 540 693 614 556 604 669 b 478 701 521 701 500 703 b 481 839 478 746 478 790 b 468 925 482 871 478 904 b 386 974 456 953 428 968 b 308 975 365 976 343 978 b 203 896 251 971 215 957 b 196 800 196 867 197 833 l 196 626 b 86 569 136 613 108 607 b 72 478 69 542 65 511 z "},"M":{"ha":1013,"x_min":0,"x_max":0,"o":"m 940 325 b 936 515 939 357 939 472 b 919 854 933 614 919 911 b 875 954 915 886 907 931 b 767 975 854 968 822 975 b 549 739 661 975 615 879 b 506 661 535 715 521 688 b 350 897 450 743 353 893 b 289 960 335 919 317 947 b 78 899 218 992 81 976 b 82 149 67 824 71 481 b 200 0 85 64 114 0 l 201 0 b 363 125 299 0 367 21 b 354 386 361 199 354 338 b 378 346 360 376 368 361 b 413 297 389 328 401 310 b 507 232 447 254 478 235 b 668 392 563 229 610 296 b 664 211 668 332 667 269 b 699 35 664 128 651 82 b 894 17 738 -7 844 -10 b 942 113 925 32 940 63 b 940 325 944 192 944 249 z "},"N":{"ha":863,"x_min":0,"x_max":0,"o":"m 790 871 b 756 960 789 913 778 942 b 638 982 725 988 679 986 b 508 831 549 971 504 919 b 517 596 508 813 517 674 l 517 589 b 329 928 363 875 363 894 b 101 940 292 974 160 989 b 69 825 78 915 67 878 b 74 571 69 811 74 664 l 74 147 b 193 -6 74 40 96 6 b 358 121 293 -6 363 15 b 354 317 358 186 354 314 b 397 232 369 290 383 260 b 458 122 415 196 438 157 b 621 -4 501 38 549 -4 b 768 113 718 -4 761 18 b 788 533 772 128 790 451 b 790 871 793 697 796 751 z "},"Ň":{"ha":864,"x_min":0,"x_max":0,"o":"m 676 1285 b 667 1360 697 1317 689 1338 b 539 1424 640 1388 592 1440 b 426 1306 518 1418 449 1333 b 425 1307 426 1306 426 1307 b 322 1414 396 1344 349 1396 b 228 1406 293 1436 260 1431 b 186 1279 181 1367 150 1324 b 265 1188 224 1232 200 1263 b 396 1074 303 1146 344 1099 b 469 1072 417 1065 447 1064 b 676 1285 518 1089 621 1204 z m 790 871 b 756 960 789 913 778 942 b 638 982 725 988 679 986 b 508 831 549 971 504 919 b 517 596 508 813 517 674 l 517 589 b 329 928 363 875 363 894 b 101 940 292 974 160 989 b 69 825 78 915 67 878 b 74 571 69 811 74 664 l 74 147 b 193 -6 74 40 96 6 b 358 121 293 -6 363 15 b 354 317 358 186 354 314 b 397 232 369 290 383 260 b 458 122 415 196 438 157 b 621 -4 501 38 549 -4 b 768 113 718 -4 761 18 b 788 533 772 128 790 451 b 790 871 793 697 796 751 z "},"Ņ":{"ha":863,"x_min":0,"x_max":0,"o":"m 790 871 b 756 960 789 913 778 942 b 638 982 725 988 679 986 b 508 831 549 971 504 919 b 517 596 508 813 517 674 l 517 589 b 329 928 363 875 363 894 b 101 940 292 974 160 989 b 69 825 78 915 67 878 b 74 571 69 811 74 664 l 74 147 b 193 -6 74 40 96 6 b 358 121 293 -6 363 15 b 354 317 358 186 354 314 b 397 232 369 290 383 260 b 458 122 415 196 438 157 b 621 -4 501 38 549 -4 b 768 113 718 -4 761 18 b 788 533 772 128 790 451 b 790 871 793 697 796 751 z m 574 -104 b 483 -68 564 -69 526 -68 b 325 -103 444 -67 354 -60 b 281 -172 313 -118 281 -172 b 239 -274 263 -201 236 -240 b 342 -312 243 -312 285 -312 b 461 -304 376 -312 439 -312 b 525 -226 488 -293 501 -275 b 571 -133 533 -208 568 -146 b 574 -104 574 -129 576 -115 z "},"Ñ":{"ha":863,"x_min":0,"x_max":0,"o":"m 676 1300 b 618 1381 667 1329 653 1361 b 489 1342 564 1415 493 1399 b 515 1246 482 1303 521 1272 b 494 1249 513 1236 503 1236 b 465 1321 485 1264 475 1303 b 171 1328 406 1435 250 1431 b 193 1100 124 1260 136 1154 b 313 1078 226 1067 278 1057 b 326 1182 346 1099 356 1140 b 321 1231 318 1197 310 1219 b 349 1196 336 1243 343 1218 b 408 1096 356 1156 378 1125 b 668 1157 492 1024 622 1057 b 676 1300 689 1203 693 1254 z m 790 871 b 756 960 789 913 778 942 b 638 982 725 988 679 986 b 508 831 549 971 504 919 b 517 596 508 813 517 674 l 517 589 b 329 928 363 875 363 894 b 101 940 292 974 160 989 b 69 825 78 915 67 878 b 74 571 69 811 74 664 l 74 147 b 193 -6 74 40 96 6 b 358 121 293 -6 363 15 b 354 317 358 186 354 314 b 397 232 369 290 383 260 b 458 122 415 196 438 157 b 621 -4 501 38 549 -4 b 768 113 718 -4 761 18 b 788 533 772 128 790 451 b 790 871 793 697 796 751 z "},"O":{"ha":1008,"x_min":0,"x_max":0,"o":"m 863 785 b 744 911 835 835 794 876 b 271 924 611 1004 394 1014 b 93 653 188 863 126 767 b 81 321 63 551 64 426 b 314 10 103 186 185 57 b 703 42 439 -35 592 -24 b 863 785 940 176 1010 531 z m 375 546 b 600 624 408 686 526 747 b 631 428 638 563 646 489 b 408 338 596 304 483 246 b 375 546 369 406 353 458 z "},"Ó":{"ha":1008,"x_min":0,"x_max":0,"o":"m 697 1286 b 607 1322 688 1321 650 1322 b 449 1288 568 1324 478 1331 b 404 1218 436 1272 404 1218 b 363 1117 386 1189 360 1150 b 465 1078 367 1078 408 1078 b 585 1086 500 1078 563 1078 b 649 1164 611 1097 625 1115 b 694 1257 657 1182 692 1244 b 697 1286 697 1261 700 1275 z m 863 785 b 744 911 835 835 794 876 b 271 924 611 1004 394 1014 b 93 653 188 863 126 767 b 81 321 63 551 64 426 b 314 10 103 186 185 57 b 703 42 439 -35 592 -24 b 863 785 940 176 1010 531 z m 375 546 b 600 624 408 686 526 747 b 631 428 638 563 646 489 b 408 338 596 304 483 246 b 375 546 369 406 353 458 z "},"Ô":{"ha":1008,"x_min":0,"x_max":0,"o":"m 753 1185 b 546 1397 697 1265 594 1381 b 472 1396 524 1406 493 1404 b 342 1282 421 1371 379 1324 b 263 1190 276 1207 300 1238 b 304 1064 226 1146 257 1103 b 399 1056 336 1039 369 1033 b 501 1163 425 1074 472 1125 b 503 1164 503 1163 503 1164 b 615 1046 525 1136 594 1051 b 743 1110 668 1029 717 1082 b 753 1185 765 1132 774 1153 z m 863 785 b 744 911 835 835 794 876 b 271 924 611 1004 394 1014 b 93 653 188 863 126 767 b 81 321 63 551 64 426 b 314 10 103 186 185 57 b 703 42 439 -35 592 -24 b 863 785 940 176 1010 531 z m 375 546 b 600 624 408 686 526 747 b 631 428 638 563 646 489 b 408 338 596 304 483 246 b 375 546 369 406 353 458 z "},"Ö":{"ha":1008,"x_min":0,"x_max":0,"o":"m 464 1217 l 464 1229 b 451 1310 465 1260 461 1283 b 382 1372 440 1343 417 1364 b 297 1371 354 1378 324 1374 b 278 1369 290 1371 283 1369 b 213 1340 250 1367 228 1357 b 192 1286 200 1324 194 1303 b 225 1115 186 1251 179 1147 b 271 1094 239 1106 250 1099 b 331 1089 286 1092 307 1089 b 361 1090 342 1089 351 1089 b 451 1136 407 1096 438 1111 b 461 1164 456 1144 460 1154 b 464 1201 464 1176 464 1190 b 464 1217 465 1208 464 1213 z m 797 1217 l 797 1229 b 785 1310 799 1260 794 1283 b 715 1372 774 1343 750 1364 b 631 1371 688 1378 657 1374 b 611 1369 624 1371 617 1369 b 546 1340 583 1367 561 1357 b 525 1286 533 1324 528 1303 b 558 1115 519 1251 513 1147 b 604 1094 572 1106 583 1099 b 664 1089 619 1092 640 1089 b 694 1090 675 1089 685 1089 b 785 1136 740 1096 771 1111 b 794 1164 789 1144 793 1154 b 797 1201 797 1176 797 1190 b 797 1217 799 1208 797 1213 z m 863 785 b 744 911 835 835 794 876 b 271 924 611 1004 394 1014 b 93 653 188 863 126 767 b 81 321 63 551 64 426 b 314 10 103 186 185 57 b 703 42 439 -35 592 -24 b 863 785 940 176 1010 531 z m 375 546 b 600 624 408 686 526 747 b 631 428 638 563 646 489 b 408 338 596 304 483 246 b 375 546 369 406 353 458 z "},"Ò":{"ha":1008,"x_min":0,"x_max":0,"o":"m 285 1286 b 288 1257 282 1275 285 1261 b 333 1164 290 1244 325 1182 b 397 1086 357 1115 371 1097 b 517 1078 419 1078 482 1078 b 619 1117 574 1078 615 1078 b 578 1218 622 1150 596 1189 b 533 1288 578 1218 546 1272 b 375 1322 504 1331 414 1324 b 285 1286 332 1322 294 1321 z m 863 785 b 744 911 835 835 794 876 b 271 924 611 1004 394 1014 b 93 653 188 863 126 767 b 81 321 63 551 64 426 b 314 10 103 186 185 57 b 703 42 439 -35 592 -24 b 863 785 940 176 1010 531 z m 375 546 b 600 624 408 686 526 747 b 631 428 638 563 646 489 b 408 338 596 304 483 246 b 375 546 369 406 353 458 z "},"Ő":{"ha":1008,"x_min":0,"x_max":0,"o":"m 554 1286 b 464 1322 544 1321 507 1322 b 306 1288 425 1324 335 1331 b 261 1218 293 1272 261 1218 b 219 1117 243 1189 217 1150 b 322 1078 224 1078 265 1078 b 442 1086 357 1078 419 1078 b 506 1164 468 1097 482 1115 b 551 1257 514 1182 549 1244 b 554 1286 554 1261 557 1275 z m 890 1286 b 800 1322 881 1321 843 1322 b 642 1288 761 1324 671 1331 b 597 1218 629 1272 597 1218 b 556 1117 579 1189 553 1150 b 658 1078 560 1078 601 1078 b 778 1086 693 1078 756 1078 b 842 1164 804 1097 818 1115 b 888 1257 850 1182 885 1244 b 890 1286 890 1261 893 1275 z m 863 785 b 744 911 835 835 794 876 b 271 924 611 1004 394 1014 b 93 653 188 863 126 767 b 81 321 63 551 64 426 b 314 10 103 186 185 57 b 703 42 439 -35 592 -24 b 863 785 940 176 1010 531 z m 375 546 b 600 624 408 686 526 747 b 631 428 638 563 646 489 b 408 338 596 304 483 246 b 375 546 369 406 353 458 z "},"Ō":{"ha":1008,"x_min":0,"x_max":0,"o":"m 728 1181 b 635 1317 733 1268 711 1315 b 340 1315 542 1319 401 1321 b 263 1240 294 1310 271 1286 b 294 1106 263 1236 246 1140 b 411 1082 324 1085 358 1082 l 579 1085 b 696 1108 642 1085 668 1081 b 728 1181 715 1128 725 1151 z m 863 785 b 744 911 835 835 794 876 b 271 924 611 1004 394 1014 b 93 653 188 863 126 767 b 81 321 63 551 64 426 b 314 10 103 186 185 57 b 703 42 439 -35 592 -24 b 863 785 940 176 1010 531 z m 375 546 b 600 624 408 686 526 747 b 631 428 638 563 646 489 b 408 338 596 304 483 246 b 375 546 369 406 353 458 z "},"Ø":{"ha":1189,"x_min":0,"x_max":0,"o":"m 1097 886 b 925 933 1050 951 989 989 b 869 888 914 925 894 908 b 389 911 738 997 536 1021 b 194 322 211 778 161 525 l 194 321 b 69 172 117 254 72 226 b 121 68 68 139 89 100 b 314 85 183 1 238 22 b 556 -7 375 29 457 -3 b 967 232 743 -12 885 72 b 1011 668 1042 374 1060 521 b 1118 799 1086 732 1111 746 b 1097 886 1124 831 1115 858 z m 547 703 b 661 715 590 728 629 731 b 447 535 582 647 501 581 b 547 703 460 608 496 674 z m 674 303 b 553 282 631 279 589 272 b 772 467 557 285 753 450 b 674 303 767 399 733 338 z "},"Õ":{"ha":1008,"x_min":0,"x_max":0,"o":"m 746 1300 b 688 1381 736 1329 722 1361 b 558 1342 633 1415 563 1399 b 585 1246 551 1303 590 1272 b 564 1249 582 1236 572 1236 b 535 1321 554 1264 544 1303 b 240 1328 475 1435 319 1431 b 263 1100 193 1260 206 1154 b 382 1078 296 1067 347 1057 b 396 1182 415 1099 425 1140 b 390 1231 388 1197 379 1219 b 418 1196 406 1243 413 1218 b 478 1096 425 1156 447 1125 b 738 1157 561 1024 692 1057 b 746 1300 758 1203 763 1254 z m 863 785 b 744 911 835 835 794 876 b 271 924 611 1004 394 1014 b 93 653 188 863 126 767 b 81 321 63 551 64 426 b 314 10 103 186 185 57 b 703 42 439 -35 592 -24 b 863 785 940 176 1010 531 z m 375 546 b 600 624 408 686 526 747 b 631 428 638 563 646 489 b 408 338 596 304 483 246 b 375 546 369 406 353 458 z "},"Œ":{"ha":1285,"x_min":0,"x_max":0,"o":"m 97 649 b 206 79 42 465 68 210 b 683 31 329 -33 536 -46 b 764 -1 703 13 729 1 b 1014 -14 850 -8 928 -14 b 1196 36 1104 -14 1164 -15 b 1203 228 1219 79 1221 190 b 1129 271 1188 258 1157 267 b 932 281 1104 274 986 278 b 936 364 933 297 933 324 b 1069 363 961 361 1043 358 b 1149 490 1136 372 1143 404 b 1121 594 1153 538 1143 571 b 985 632 1089 631 1036 631 b 940 633 969 632 956 632 l 940 713 l 1033 717 b 1168 747 1088 719 1138 718 b 1199 842 1189 768 1199 796 b 1194 917 1199 867 1199 893 b 1139 975 1188 939 1174 969 b 876 986 1079 989 971 988 b 811 985 853 986 832 985 b 686 946 764 989 714 983 b 275 919 563 1008 381 996 b 97 649 192 858 131 763 z m 369 436 b 375 547 365 469 367 514 b 457 672 389 606 418 651 b 611 624 494 694 557 714 b 639 425 649 563 654 486 b 565 310 625 376 606 331 b 401 335 506 274 439 289 b 369 436 385 364 374 399 z "},"P":{"ha":785,"x_min":0,"x_max":0,"o":"m 676 821 b 296 978 619 932 456 985 b 76 838 189 974 78 931 b 71 390 72 688 71 536 b 74 81 69 129 69 114 b 196 -7 85 17 129 -8 b 367 143 314 -6 369 33 b 363 332 365 175 361 282 b 558 374 433 333 506 349 b 699 550 617 403 678 488 b 676 821 728 626 719 739 z m 357 582 b 354 710 356 594 357 529 b 425 682 375 715 414 703 b 357 582 443 650 421 583 z "},"Þ":{"ha":783,"x_min":0,"x_max":0,"o":"m 672 796 b 492 944 625 886 572 924 b 361 960 458 954 393 958 b 357 1058 361 979 360 1038 b 196 1163 346 1140 290 1171 b 97 1118 150 1161 115 1144 b 72 878 61 1057 71 1010 b 75 344 76 818 75 546 b 81 93 78 249 71 160 b 210 -1 94 24 136 -1 b 342 24 256 -1 315 -3 b 383 153 372 47 383 106 b 378 301 382 182 378 249 b 550 342 435 301 501 315 b 653 436 589 363 622 392 b 699 526 672 464 689 496 b 672 796 726 607 717 708 z m 372 560 b 369 683 369 596 369 618 b 436 656 413 686 425 671 b 422 576 453 632 446 596 b 372 560 413 568 390 561 z "},"Q":{"ha":1100,"x_min":0,"x_max":0,"o":"m 1028 197 b 918 349 1017 250 971 304 b 861 788 963 499 943 646 b 586 981 801 888 701 957 b 99 644 356 1028 167 878 b 314 15 28 403 82 100 b 638 15 410 -24 536 -21 b 772 100 688 35 733 63 b 867 51 801 82 832 67 b 1028 197 947 18 1051 103 z m 465 458 b 531 281 443 394 475 328 b 469 275 510 272 489 271 b 374 542 368 296 350 435 b 456 674 390 604 415 651 b 621 625 521 711 576 699 b 653 532 638 596 646 564 b 519 531 608 557 569 563 b 465 458 493 513 474 488 z "},"R":{"ha":817,"x_min":0,"x_max":0,"o":"m 707 189 b 601 422 646 281 626 311 b 683 554 644 456 667 506 b 653 836 710 632 694 753 b 283 989 597 944 425 994 b 74 844 176 983 75 943 b 69 393 69 694 71 542 b 69 138 71 310 71 222 b 104 26 69 82 81 49 b 331 28 150 -17 289 -11 b 353 342 369 63 356 189 l 353 344 b 526 35 388 238 433 92 b 697 28 585 -4 639 -7 b 707 189 757 79 765 115 z m 351 719 b 417 692 386 724 408 707 b 357 590 435 654 408 590 l 354 590 z "},"Ř":{"ha":847,"x_min":0,"x_max":0,"o":"m 631 1285 b 621 1360 651 1317 643 1338 b 493 1424 594 1388 546 1440 b 381 1306 472 1418 403 1333 b 379 1307 381 1306 381 1307 b 276 1414 350 1344 303 1396 b 182 1406 247 1436 214 1431 b 140 1279 135 1367 104 1324 b 219 1188 178 1232 154 1263 b 350 1074 257 1146 299 1099 b 424 1072 371 1065 401 1064 b 631 1285 472 1089 575 1204 z m 601 422 b 683 549 644 454 668 500 b 650 835 711 628 697 753 b 281 986 594 944 422 992 b 71 842 174 981 72 939 b 71 390 68 692 69 539 b 71 135 71 307 72 219 b 106 22 72 79 82 44 b 332 26 153 -21 292 -14 b 354 342 367 56 357 101 b 356 339 354 340 356 339 b 638 -6 442 132 482 18 b 731 17 671 -10 700 -3 b 776 78 757 36 772 56 b 710 213 783 119 772 114 l 689 243 b 604 413 632 333 626 349 z m 350 717 b 415 689 385 721 407 704 b 356 588 435 651 407 588 l 353 588 z "},"Ŗ":{"ha":847,"x_min":0,"x_max":0,"o":"m 601 422 b 683 549 644 454 668 500 b 650 835 711 628 697 753 b 281 986 594 944 422 992 b 71 842 174 981 72 939 b 71 390 68 692 69 539 b 71 135 71 307 72 219 b 106 22 72 79 82 44 b 332 26 153 -21 292 -14 b 354 342 367 56 357 101 b 356 339 354 340 356 339 b 638 -6 442 132 482 18 b 731 17 671 -10 700 -3 b 776 78 757 36 772 56 b 710 213 783 119 772 114 l 689 243 b 604 413 632 333 626 349 z m 350 717 b 415 689 385 721 407 704 b 356 588 435 651 407 588 l 353 588 z m 546 -104 b 456 -68 536 -69 499 -68 b 297 -103 417 -67 326 -60 b 253 -172 285 -118 253 -172 b 211 -274 235 -201 208 -240 b 314 -312 215 -312 257 -312 b 433 -304 349 -312 411 -312 b 497 -226 460 -293 474 -275 b 543 -133 506 -208 540 -146 b 546 -104 546 -129 549 -115 z "},"S":{"ha":764,"x_min":0,"x_max":0,"o":"m 689 264 b 543 565 714 394 660 504 b 474 593 525 575 499 585 b 374 671 433 606 367 628 b 488 672 379 706 439 700 b 585 647 515 657 544 642 b 685 793 650 656 693 725 b 506 972 674 885 606 938 b 244 957 424 1001 328 996 b 76 742 163 918 97 838 b 139 483 57 650 79 551 b 278 388 172 443 215 411 b 396 344 300 379 381 368 b 338 279 424 301 385 274 b 176 335 283 286 249 344 b 103 132 89 322 58 204 b 378 -14 153 40 267 -14 b 689 264 539 -14 672 110 z "},"Š":{"ha":764,"x_min":0,"x_max":0,"o":"m 635 1285 b 625 1360 656 1317 647 1338 b 497 1424 599 1388 550 1440 b 385 1306 476 1418 407 1333 b 383 1307 385 1306 385 1307 b 281 1414 354 1344 307 1396 b 186 1406 251 1436 218 1431 b 144 1279 139 1367 108 1324 b 224 1188 182 1232 158 1263 b 354 1074 261 1146 303 1099 b 428 1072 375 1065 406 1064 b 635 1285 476 1089 579 1204 z m 689 264 b 543 565 714 394 660 504 b 474 593 525 575 499 585 b 374 671 433 606 367 628 b 488 672 379 706 439 700 b 585 647 515 657 544 642 b 685 793 650 656 693 725 b 506 972 674 885 606 938 b 244 957 424 1001 328 996 b 76 742 163 918 97 838 b 139 483 57 650 79 551 b 278 388 172 443 215 411 b 396 344 300 379 381 368 b 338 279 424 301 385 274 b 176 335 283 286 249 344 b 103 132 89 322 58 204 b 378 -14 153 40 267 -14 b 689 264 539 -14 672 110 z "},"T":{"ha":790,"x_min":0,"x_max":0,"o":"m 690 935 b 518 960 653 971 606 961 b 260 969 496 958 300 965 b 79 910 161 975 114 982 b 85 728 50 849 43 774 b 251 683 111 696 179 683 b 246 413 250 594 249 503 b 239 128 242 317 240 219 b 375 -1 240 33 281 -3 b 533 72 461 -1 521 4 b 528 682 540 115 536 154 b 694 719 607 683 654 682 b 721 831 713 736 721 769 b 690 935 721 867 717 908 z "},"Ŧ":{"ha":810,"x_min":0,"x_max":0,"o":"m 624 976 b 468 971 563 975 529 972 b 372 974 436 969 403 969 b 201 992 325 981 249 988 b 93 933 151 999 118 981 b 94 738 67 885 56 783 b 276 696 125 703 168 701 l 274 588 b 185 557 240 588 210 585 b 199 376 153 521 151 407 b 267 354 224 357 233 358 b 261 118 264 274 261 193 b 417 1 260 17 304 -6 b 539 131 517 7 540 13 l 535 354 b 619 379 558 354 594 354 b 649 525 657 413 658 458 b 533 588 642 578 588 588 b 532 694 533 636 532 646 b 718 728 607 694 675 688 b 740 840 738 746 739 814 b 624 976 740 928 718 978 z "},"Ť":{"ha":804,"x_min":0,"x_max":0,"o":"m 665 1285 b 656 1360 686 1317 678 1338 b 528 1424 629 1388 581 1440 b 415 1306 507 1418 438 1333 b 414 1307 415 1306 415 1307 b 311 1414 385 1344 338 1396 b 217 1406 282 1436 249 1431 b 175 1279 169 1367 139 1324 b 254 1188 213 1232 189 1263 b 385 1074 292 1146 333 1099 b 458 1072 406 1065 436 1064 b 665 1285 507 1089 610 1204 z m 704 935 b 532 960 667 971 619 961 b 274 969 510 958 314 965 b 93 910 175 975 128 982 b 99 728 64 849 57 774 b 265 683 125 696 193 683 b 260 413 264 594 263 503 b 253 128 256 317 254 219 b 389 -1 254 33 294 -3 b 547 72 475 -1 535 4 b 542 682 554 115 550 154 b 708 719 621 683 668 682 b 735 831 726 736 735 769 b 704 935 735 867 731 908 z "},"U":{"ha":874,"x_min":0,"x_max":0,"o":"m 785 883 b 619 981 771 978 717 999 b 497 822 526 964 486 911 b 468 313 522 644 551 401 b 360 383 422 267 378 301 b 354 656 346 467 349 567 b 363 765 357 701 360 738 b 353 921 369 867 372 879 b 204 969 325 976 238 972 b 94 885 149 967 117 935 b 76 322 72 836 61 529 b 165 104 82 246 119 158 b 651 61 278 -33 521 -57 b 799 456 735 136 785 269 b 785 883 810 579 804 722 z "},"Ú":{"ha":863,"x_min":0,"x_max":0,"o":"m 653 1286 b 563 1322 643 1321 606 1322 b 404 1288 524 1324 433 1331 b 360 1218 392 1272 360 1218 b 318 1117 342 1189 315 1150 b 421 1078 322 1078 364 1078 b 540 1086 456 1078 518 1078 b 604 1164 567 1097 581 1115 b 650 1257 613 1182 647 1244 b 653 1286 653 1261 656 1275 z m 785 883 b 619 981 771 978 717 999 b 497 822 526 964 486 911 b 468 313 522 644 551 401 b 360 383 422 267 378 301 b 354 656 346 467 349 567 b 363 765 357 701 360 738 b 353 921 369 867 372 879 b 204 969 325 976 238 972 b 94 885 149 967 117 935 b 76 322 72 836 61 529 b 165 104 82 246 119 158 b 651 61 278 -33 521 -57 b 799 456 735 136 785 269 b 785 883 810 579 804 722 z "},"Û":{"ha":874,"x_min":0,"x_max":0,"o":"m 686 1185 b 479 1397 631 1265 528 1381 b 406 1396 457 1406 426 1404 b 275 1282 354 1371 313 1324 b 196 1190 210 1207 233 1238 b 238 1064 160 1146 190 1103 b 332 1056 269 1039 303 1033 b 435 1163 358 1074 406 1125 b 436 1164 436 1163 436 1164 b 549 1046 458 1136 528 1051 b 676 1110 601 1029 650 1082 b 686 1185 699 1132 707 1153 z m 785 883 b 619 981 771 978 717 999 b 497 822 526 964 486 911 b 468 313 522 644 551 401 b 360 383 422 267 378 301 b 354 656 346 467 349 567 b 363 765 357 701 360 738 b 353 921 369 867 372 879 b 204 969 325 976 238 972 b 94 885 149 967 117 935 b 76 322 72 836 61 529 b 165 104 82 246 119 158 b 651 61 278 -33 521 -57 b 799 456 735 136 785 269 b 785 883 810 579 804 722 z "},"Ü":{"ha":874,"x_min":0,"x_max":0,"o":"m 406 1217 l 406 1229 b 393 1310 407 1260 403 1283 b 324 1372 382 1343 358 1364 b 239 1371 296 1378 265 1374 b 219 1369 232 1371 225 1369 b 154 1340 192 1367 169 1357 b 133 1286 142 1324 136 1303 b 167 1115 128 1251 121 1147 b 213 1094 181 1106 192 1099 b 272 1089 228 1092 249 1089 b 303 1090 283 1089 293 1089 b 393 1136 349 1096 379 1111 b 403 1164 397 1144 401 1154 b 406 1201 406 1176 406 1190 b 406 1217 407 1208 406 1213 z m 739 1217 l 739 1229 b 726 1310 740 1260 736 1283 b 657 1372 715 1343 692 1364 b 572 1371 629 1378 599 1374 b 553 1369 565 1371 558 1369 b 488 1340 525 1367 503 1357 b 467 1286 475 1324 469 1303 b 500 1115 461 1251 454 1147 b 546 1094 514 1106 525 1099 b 606 1089 561 1092 582 1089 b 636 1090 617 1089 626 1089 b 726 1136 682 1096 713 1111 b 736 1164 731 1144 735 1154 b 739 1201 739 1176 739 1190 b 739 1217 740 1208 739 1213 z m 785 883 b 619 981 771 978 717 999 b 497 822 526 964 486 911 b 468 313 522 644 551 401 b 360 383 422 267 378 301 b 354 656 346 467 349 567 b 363 765 357 701 360 738 b 353 921 369 867 372 879 b 204 969 325 976 238 972 b 94 885 149 967 117 935 b 76 322 72 836 61 529 b 165 104 82 246 119 158 b 651 61 278 -33 521 -57 b 799 456 735 136 785 269 b 785 883 810 579 804 722 z "},"Ù":{"ha":874,"x_min":0,"x_max":0,"o":"m 229 1286 b 232 1257 226 1275 229 1261 b 278 1164 235 1244 269 1182 b 342 1086 301 1115 315 1097 b 461 1078 364 1078 426 1078 b 564 1117 518 1078 560 1078 b 522 1218 567 1150 540 1189 b 478 1288 522 1218 490 1272 b 319 1322 449 1331 358 1324 b 229 1286 276 1322 239 1321 z m 785 883 b 619 981 771 978 717 999 b 497 822 526 964 486 911 b 468 313 522 644 551 401 b 360 383 422 267 378 301 b 354 656 346 467 349 567 b 363 765 357 701 360 738 b 353 921 369 867 372 879 b 204 969 325 976 238 972 b 94 885 149 967 117 935 b 76 322 72 836 61 529 b 165 104 82 246 119 158 b 651 61 278 -33 521 -57 b 799 456 735 136 785 269 b 785 883 810 579 804 722 z "},"Ű":{"ha":874,"x_min":0,"x_max":0,"o":"m 485 1286 b 394 1322 475 1321 438 1322 b 236 1288 356 1324 265 1331 b 192 1218 224 1272 192 1218 b 150 1117 174 1189 147 1150 b 253 1078 154 1078 196 1078 b 372 1086 288 1078 350 1078 b 436 1164 399 1097 413 1115 b 482 1257 444 1182 479 1244 b 485 1286 485 1261 488 1275 z m 821 1286 b 731 1322 811 1321 774 1322 b 572 1288 692 1324 601 1331 b 528 1218 560 1272 528 1218 b 486 1117 510 1189 483 1150 b 589 1078 490 1078 532 1078 b 708 1086 624 1078 686 1078 b 772 1164 735 1097 749 1115 b 818 1257 781 1182 815 1244 b 821 1286 821 1261 824 1275 z m 785 883 b 619 981 771 978 717 999 b 497 822 526 964 486 911 b 468 313 522 644 551 401 b 360 383 422 267 378 301 b 354 656 346 467 349 567 b 363 765 357 701 360 738 b 353 921 369 867 372 879 b 204 969 325 976 238 972 b 94 885 149 967 117 935 b 76 322 72 836 61 529 b 165 104 82 246 119 158 b 651 61 278 -33 521 -57 b 799 456 735 136 785 269 b 785 883 810 579 804 722 z "},"Ū":{"ha":874,"x_min":0,"x_max":0,"o":"m 672 1181 b 579 1317 678 1268 656 1315 b 285 1315 486 1319 346 1321 b 207 1240 239 1310 215 1286 b 239 1106 207 1236 190 1140 b 356 1082 268 1085 303 1082 l 524 1085 b 640 1108 586 1085 613 1081 b 672 1181 660 1128 669 1151 z m 785 883 b 619 981 771 978 717 999 b 497 822 526 964 486 911 b 468 313 522 644 551 401 b 360 383 422 267 378 301 b 354 656 346 467 349 567 b 363 765 357 701 360 738 b 353 921 369 867 372 879 b 204 969 325 976 238 972 b 94 885 149 967 117 935 b 76 322 72 836 61 529 b 165 104 82 246 119 158 b 651 61 278 -33 521 -57 b 799 456 735 136 785 269 b 785 883 810 579 804 722 z "},"V":{"ha":874,"x_min":0,"x_max":0,"o":"m 74 835 b 124 619 89 754 103 694 b 194 364 133 581 188 386 b 274 108 206 332 254 149 b 342 6 286 74 304 24 b 556 35 407 -21 508 -29 b 682 418 589 79 622 204 b 771 743 707 513 751 658 b 786 943 800 842 819 897 b 696 981 769 969 742 979 b 535 938 640 986 578 982 b 488 842 514 915 497 885 b 436 639 467 749 436 639 b 375 847 436 639 397 775 b 190 972 340 953 307 982 b 85 933 149 969 107 963 b 74 835 69 911 65 881 z "},"W":{"ha":1233,"x_min":0,"x_max":0,"o":"m 1149 932 b 953 961 1118 978 1008 981 b 814 624 872 938 860 825 l 814 625 b 775 844 803 681 778 818 b 617 969 761 933 707 976 b 469 875 535 963 488 944 b 400 614 451 813 407 650 b 358 851 394 626 364 808 b 200 976 343 940 290 983 b 88 933 158 974 113 967 b 114 628 47 883 81 756 b 175 372 121 596 167 408 b 243 119 190 306 233 140 b 415 4 271 26 308 -8 b 510 56 456 8 488 22 b 601 332 535 92 563 168 b 653 135 604 317 643 165 b 722 13 674 71 685 31 b 928 58 782 -17 894 -8 b 1117 675 958 117 1043 408 b 1149 932 1156 831 1183 879 z "},"Ẃ":{"ha":1233,"x_min":0,"x_max":0,"o":"m 606 1078 b 725 1086 640 1078 703 1078 b 789 1164 751 1097 765 1115 b 835 1257 797 1182 832 1244 b 838 1286 838 1261 840 1275 b 747 1322 828 1321 790 1322 b 589 1288 708 1324 618 1331 b 544 1218 576 1272 544 1218 b 503 1117 526 1189 500 1150 b 606 1078 507 1078 549 1078 z m 1149 932 b 953 961 1118 978 1008 981 b 814 624 872 938 860 825 l 814 625 b 775 844 803 681 778 818 b 617 969 761 933 707 976 b 469 875 535 963 488 944 b 400 614 451 813 407 650 b 358 851 394 626 364 808 b 200 976 343 940 290 983 b 88 933 158 974 113 967 b 114 628 47 883 81 756 b 175 372 121 596 167 408 b 243 119 190 306 233 140 b 415 4 271 26 308 -8 b 510 56 456 8 488 22 b 601 332 535 92 563 168 b 653 135 604 317 643 165 b 722 13 674 71 685 31 b 928 58 782 -17 894 -8 b 1117 675 958 117 1043 408 b 1149 932 1156 831 1183 879 z "},"Ŵ":{"ha":1233,"x_min":0,"x_max":0,"o":"m 421 1064 b 515 1056 453 1039 486 1033 b 618 1163 542 1074 589 1125 b 619 1164 619 1163 619 1164 b 732 1046 642 1136 711 1051 b 860 1110 785 1029 833 1082 b 869 1185 882 1132 890 1153 b 663 1397 814 1265 711 1381 b 589 1396 640 1406 610 1404 b 458 1282 538 1371 496 1324 b 379 1190 393 1207 417 1238 b 421 1064 343 1146 374 1103 z m 1149 932 b 953 961 1118 978 1008 981 b 814 624 872 938 860 825 l 814 625 b 775 844 803 681 778 818 b 617 969 761 933 707 976 b 469 875 535 963 488 944 b 400 614 451 813 407 650 b 358 851 394 626 364 808 b 200 976 343 940 290 983 b 88 933 158 974 113 967 b 114 628 47 883 81 756 b 175 372 121 596 167 408 b 243 119 190 306 233 140 b 415 4 271 26 308 -8 b 510 56 456 8 488 22 b 601 332 535 92 563 168 b 653 135 604 317 643 165 b 722 13 674 71 685 31 b 928 58 782 -17 894 -8 b 1117 675 958 117 1043 408 b 1149 932 1156 831 1183 879 z "},"Ẅ":{"ha":1233,"x_min":0,"x_max":0,"o":"m 351 1115 b 397 1094 365 1106 376 1099 b 457 1089 413 1092 433 1089 b 488 1090 468 1089 478 1089 b 578 1136 533 1096 564 1111 b 588 1164 582 1144 586 1154 b 590 1201 590 1176 590 1190 b 590 1217 592 1208 590 1213 l 590 1229 b 578 1310 592 1260 588 1283 b 508 1372 567 1343 543 1364 b 424 1371 481 1378 450 1374 b 404 1369 417 1371 410 1369 b 339 1340 376 1367 354 1357 b 318 1286 326 1324 321 1303 b 351 1115 313 1251 306 1147 z m 685 1115 b 731 1094 699 1106 710 1099 b 790 1089 746 1092 767 1089 b 821 1090 801 1089 811 1089 b 911 1136 867 1096 897 1111 b 921 1164 915 1144 919 1154 b 924 1201 924 1176 924 1190 b 924 1217 925 1208 924 1213 l 924 1229 b 911 1310 925 1260 921 1283 b 842 1372 900 1343 876 1364 b 757 1371 814 1378 783 1374 b 738 1369 750 1371 743 1369 b 672 1340 710 1367 688 1357 b 651 1286 660 1324 654 1303 b 685 1115 646 1251 639 1147 z m 1149 932 b 953 961 1118 978 1008 981 b 814 624 872 938 860 825 l 814 625 b 775 844 803 681 778 818 b 617 969 761 933 707 976 b 469 875 535 963 488 944 b 400 614 451 813 407 650 b 358 851 394 626 364 808 b 200 976 343 940 290 983 b 88 933 158 974 113 967 b 114 628 47 883 81 756 b 175 372 121 596 167 408 b 243 119 190 306 233 140 b 415 4 271 26 308 -8 b 510 56 456 8 488 22 b 601 332 535 92 563 168 b 653 135 604 317 643 165 b 722 13 674 71 685 31 b 928 58 782 -17 894 -8 b 1117 675 958 117 1043 408 b 1149 932 1156 831 1183 879 z "},"Ẁ":{"ha":1233,"x_min":0,"x_max":0,"o":"m 446 1164 b 510 1086 469 1115 483 1097 b 629 1078 532 1078 594 1078 b 732 1117 686 1078 728 1078 b 690 1218 735 1150 708 1189 b 646 1288 690 1218 658 1272 b 488 1322 617 1331 526 1324 b 397 1286 444 1322 407 1321 b 400 1257 394 1275 397 1261 b 446 1164 403 1244 438 1182 z m 1149 932 b 953 961 1118 978 1008 981 b 814 624 872 938 860 825 l 814 625 b 775 844 803 681 778 818 b 617 969 761 933 707 976 b 469 875 535 963 488 944 b 400 614 451 813 407 650 b 358 851 394 626 364 808 b 200 976 343 940 290 983 b 88 933 158 974 113 967 b 114 628 47 883 81 756 b 175 372 121 596 167 408 b 243 119 190 306 233 140 b 415 4 271 26 308 -8 b 510 56 456 8 488 22 b 601 332 535 92 563 168 b 653 135 604 317 643 165 b 722 13 674 71 685 31 b 928 58 782 -17 894 -8 b 1117 675 958 117 1043 408 b 1149 932 1156 831 1183 879 z "},"X":{"ha":1003,"x_min":0,"x_max":0,"o":"m 900 231 b 699 478 856 286 721 451 b 843 657 713 493 831 642 b 932 818 907 733 943 760 b 838 953 922 875 885 911 b 776 971 821 967 800 972 b 622 867 733 965 683 932 b 501 722 576 818 533 764 b 381 894 476 756 410 850 b 160 938 319 978 247 993 b 103 731 72 881 38 819 b 300 478 189 608 193 607 b 118 243 218 378 183 335 b 86 139 90 204 81 171 b 296 6 100 69 215 -10 b 396 79 333 14 365 38 b 501 231 406 93 474 193 b 607 107 532 192 568 147 b 772 3 654 56 714 3 b 900 92 825 3 872 42 b 900 231 926 136 929 189 z "},"Y":{"ha":919,"x_min":0,"x_max":0,"o":"m 838 815 b 731 971 874 908 828 969 b 525 882 618 972 551 969 b 447 617 486 764 499 801 b 397 853 429 676 408 811 b 218 975 382 940 321 982 b 74 836 119 968 53 936 b 158 511 93 729 111 675 b 282 128 168 478 258 190 l 233 -7 b 167 -222 206 -83 189 -142 b 346 -350 140 -319 219 -349 b 514 -219 428 -349 488 -310 b 707 432 578 28 617 151 b 838 815 742 546 810 753 z "},"Ý":{"ha":919,"x_min":0,"x_max":0,"o":"m 667 1286 b 576 1322 657 1321 619 1322 b 418 1288 538 1324 447 1331 b 374 1218 406 1272 374 1218 b 332 1117 356 1189 329 1150 b 435 1078 336 1078 378 1078 b 554 1086 469 1078 532 1078 b 618 1164 581 1097 594 1115 b 664 1257 626 1182 661 1244 b 667 1286 667 1261 669 1275 z m 838 815 b 731 971 874 908 828 969 b 525 882 618 972 551 969 b 447 617 486 764 499 801 b 397 853 429 676 408 811 b 218 975 382 940 321 982 b 74 836 119 968 53 936 b 158 511 93 729 111 675 b 282 128 168 478 258 190 l 233 -7 b 167 -222 206 -83 189 -142 b 346 -350 140 -319 219 -349 b 514 -219 428 -349 488 -310 b 707 432 578 28 617 151 b 838 815 742 546 810 753 z "},"Ŷ":{"ha":919,"x_min":0,"x_max":0,"o":"m 707 1185 b 500 1397 651 1265 549 1381 b 426 1396 478 1406 447 1404 b 296 1282 375 1371 333 1324 b 217 1190 231 1207 254 1238 b 258 1064 181 1146 211 1103 b 353 1056 290 1039 324 1033 b 456 1163 379 1074 426 1125 b 457 1164 457 1163 457 1164 b 569 1046 479 1136 549 1051 b 697 1110 622 1029 671 1082 b 707 1185 719 1132 728 1153 z m 838 815 b 731 971 874 908 828 969 b 525 882 618 972 551 969 b 447 617 486 764 499 801 b 397 853 429 676 408 811 b 218 975 382 940 321 982 b 74 836 119 968 53 936 b 158 511 93 729 111 675 b 282 128 168 478 258 190 l 233 -7 b 167 -222 206 -83 189 -142 b 346 -350 140 -319 219 -349 b 514 -219 428 -349 488 -310 b 707 432 578 28 617 151 b 838 815 742 546 810 753 z "},"Ÿ":{"ha":919,"x_min":0,"x_max":0,"o":"m 429 1217 l 429 1229 b 417 1310 431 1260 426 1283 b 347 1372 406 1343 382 1364 b 263 1371 319 1378 289 1374 b 243 1369 256 1371 249 1369 b 178 1340 215 1367 193 1357 b 157 1286 165 1324 160 1303 b 190 1115 151 1251 144 1147 b 236 1094 204 1106 215 1099 b 296 1089 251 1092 272 1089 b 326 1090 307 1089 317 1089 b 417 1136 372 1096 403 1111 b 426 1164 421 1144 425 1154 b 429 1201 429 1176 429 1190 b 429 1217 431 1208 429 1213 z m 763 1217 l 763 1229 b 750 1310 764 1260 760 1283 b 681 1372 739 1343 715 1364 b 596 1371 653 1378 622 1374 b 576 1369 589 1371 582 1369 b 511 1340 549 1367 526 1357 b 490 1286 499 1324 493 1303 b 524 1115 485 1251 478 1147 b 569 1094 538 1106 549 1099 b 629 1089 585 1092 606 1089 b 660 1090 640 1089 650 1089 b 750 1136 706 1096 736 1111 b 760 1164 754 1144 758 1154 b 763 1201 763 1176 763 1190 b 763 1217 764 1208 763 1213 z m 838 815 b 731 971 874 908 828 969 b 525 882 618 972 551 969 b 447 617 486 764 499 801 b 397 853 429 676 408 811 b 218 975 382 940 321 982 b 74 836 119 968 53 936 b 158 511 93 729 111 675 b 282 128 168 478 258 190 l 233 -7 b 167 -222 206 -83 189 -142 b 346 -350 140 -319 219 -349 b 514 -219 428 -349 488 -310 b 707 432 578 28 617 151 b 838 815 742 546 810 753 z "},"Ỳ":{"ha":919,"x_min":0,"x_max":0,"o":"m 240 1286 b 243 1257 238 1275 240 1261 b 289 1164 246 1244 281 1182 b 353 1086 313 1115 326 1097 b 472 1078 375 1078 438 1078 b 575 1117 529 1078 571 1078 b 533 1218 578 1150 551 1189 b 489 1288 533 1218 501 1272 b 331 1322 460 1331 369 1324 b 240 1286 288 1322 250 1321 z m 838 815 b 731 971 874 908 828 969 b 525 882 618 972 551 969 b 447 617 486 764 499 801 b 397 853 429 676 408 811 b 218 975 382 940 321 982 b 74 836 119 968 53 936 b 158 511 93 729 111 675 b 282 128 168 478 258 190 l 233 -7 b 167 -222 206 -83 189 -142 b 346 -350 140 -319 219 -349 b 514 -219 428 -349 488 -310 b 707 432 578 28 617 151 b 838 815 742 546 810 753 z "},"Z":{"ha":832,"x_min":0,"x_max":0,"o":"m 760 186 b 715 292 754 239 742 275 b 438 303 672 319 443 303 b 599 486 507 379 572 453 b 754 789 732 664 754 649 b 749 903 754 826 757 868 b 300 971 732 978 533 971 b 147 961 244 971 204 968 b 75 814 68 950 63 910 b 178 672 82 728 97 668 b 400 679 281 678 350 682 b 168 411 356 631 214 475 b 69 181 89 303 69 290 b 89 64 69 108 78 86 b 350 0 117 6 207 0 l 553 0 b 756 68 651 0 733 3 b 760 186 764 94 765 129 z "},"Ž":{"ha":832,"x_min":0,"x_max":0,"o":"m 667 1285 b 657 1360 688 1317 679 1338 b 529 1424 631 1388 582 1440 b 417 1306 508 1418 439 1333 b 415 1307 417 1306 417 1307 b 313 1414 386 1344 339 1396 b 218 1406 283 1436 250 1431 b 176 1279 171 1367 140 1324 b 256 1188 214 1232 190 1263 b 386 1074 293 1146 335 1099 b 460 1072 407 1065 438 1064 b 667 1285 508 1089 611 1204 z m 760 186 b 715 292 754 239 742 275 b 438 303 672 319 443 303 b 599 486 507 379 572 453 b 754 789 732 664 754 649 b 749 903 754 826 757 868 b 300 971 732 978 533 971 b 147 961 244 971 204 968 b 75 814 68 950 63 910 b 178 672 82 728 97 668 b 400 679 281 678 350 682 b 168 411 356 631 214 475 b 69 181 89 303 69 290 b 89 64 69 108 78 86 b 350 0 117 6 207 0 l 553 0 b 756 68 651 0 733 3 b 760 186 764 94 765 129 z "},"Ż":{"ha":832,"x_min":0,"x_max":0,"o":"m 558 1217 l 558 1229 b 546 1310 560 1260 556 1283 b 476 1372 535 1343 511 1364 b 392 1371 449 1378 418 1374 b 372 1369 385 1371 378 1369 b 307 1340 344 1367 322 1357 b 286 1286 294 1324 289 1303 b 319 1115 281 1251 274 1147 b 365 1094 333 1106 344 1099 b 425 1089 381 1092 401 1089 b 456 1090 436 1089 446 1089 b 546 1136 501 1096 532 1111 b 556 1164 550 1144 554 1154 b 558 1201 558 1176 558 1190 b 558 1217 560 1208 558 1213 z m 760 186 b 715 292 754 239 742 275 b 438 303 672 319 443 303 b 599 486 507 379 572 453 b 754 789 732 664 754 649 b 749 903 754 826 757 868 b 300 971 732 978 533 971 b 147 961 244 971 204 968 b 75 814 68 950 63 910 b 178 672 82 728 97 668 b 400 679 281 678 350 682 b 168 411 356 631 214 475 b 69 181 89 303 69 290 b 89 64 69 108 78 86 b 350 0 117 6 207 0 l 553 0 b 756 68 651 0 733 3 b 760 186 764 94 765 129 z "},"a":{"ha":876,"x_min":0,"x_max":0,"o":"m 803 142 b 753 357 788 222 774 282 b 682 613 743 396 689 590 b 603 868 671 644 622 828 b 535 971 590 903 572 953 b 321 918 469 997 368 982 b 201 558 288 874 261 772 b 108 233 176 464 121 272 b 85 38 78 135 51 83 b 181 -4 101 11 135 -3 b 286 4 207 -7 260 -7 b 372 138 336 21 356 64 b 514 139 392 139 457 139 b 686 4 549 33 569 -6 b 792 43 728 7 769 14 b 803 142 807 65 811 96 z m 478 376 l 415 376 b 447 507 425 418 435 463 b 478 376 451 492 469 408 z "},"á":{"ha":876,"x_min":0,"x_max":0,"o":"m 667 1286 b 576 1322 657 1321 619 1322 b 418 1288 538 1324 447 1331 b 374 1218 406 1272 374 1218 b 332 1117 356 1189 329 1150 b 435 1078 336 1078 378 1078 b 554 1086 469 1078 532 1078 b 618 1164 581 1097 594 1115 b 664 1257 626 1182 661 1244 b 667 1286 667 1261 669 1275 z m 803 142 b 753 357 788 222 774 282 b 682 613 743 396 689 590 b 603 868 671 644 622 828 b 535 971 590 903 572 953 b 321 918 469 997 368 982 b 201 558 288 874 261 772 b 108 233 176 464 121 272 b 85 38 78 135 51 83 b 181 -4 101 11 135 -3 b 286 4 207 -7 260 -7 b 372 138 336 21 356 64 b 514 139 392 139 457 139 b 686 4 549 33 569 -6 b 792 43 728 7 769 14 b 803 142 807 65 811 96 z m 478 376 l 415 376 b 447 507 425 418 435 463 b 478 376 451 492 469 408 z "},"â":{"ha":876,"x_min":0,"x_max":0,"o":"m 703 1185 b 496 1397 647 1265 544 1381 b 422 1396 474 1406 443 1404 b 292 1282 371 1371 329 1324 b 213 1190 226 1207 250 1238 b 254 1064 176 1146 207 1103 b 349 1056 286 1039 319 1033 b 451 1163 375 1074 422 1125 b 453 1164 453 1163 453 1164 b 565 1046 475 1136 544 1051 b 693 1110 618 1029 667 1082 b 703 1185 715 1132 724 1153 z m 803 142 b 753 357 788 222 774 282 b 682 613 743 396 689 590 b 603 868 671 644 622 828 b 535 971 590 903 572 953 b 321 918 469 997 368 982 b 201 558 288 874 261 772 b 108 233 176 464 121 272 b 85 38 78 135 51 83 b 181 -4 101 11 135 -3 b 286 4 207 -7 260 -7 b 372 138 336 21 356 64 b 514 139 392 139 457 139 b 686 4 549 33 569 -6 b 792 43 728 7 769 14 b 803 142 807 65 811 96 z m 478 376 l 415 376 b 447 507 425 418 435 463 b 478 376 451 492 469 408 z "},"ä":{"ha":876,"x_min":0,"x_max":0,"o":"m 421 1217 l 421 1229 b 408 1310 422 1260 418 1283 b 339 1372 397 1343 374 1364 b 254 1371 311 1378 281 1374 b 235 1369 247 1371 240 1369 b 169 1340 207 1367 185 1357 b 149 1286 157 1324 151 1303 b 182 1115 143 1251 136 1147 b 228 1094 196 1106 207 1099 b 288 1089 243 1092 264 1089 b 318 1090 299 1089 308 1089 b 408 1136 364 1096 394 1111 b 418 1164 413 1144 417 1154 b 421 1201 421 1176 421 1190 b 421 1217 422 1208 421 1213 z m 754 1217 l 754 1229 b 742 1310 756 1260 751 1283 b 672 1372 731 1343 707 1364 b 588 1371 644 1378 614 1374 b 568 1369 581 1371 574 1369 b 503 1340 540 1367 518 1357 b 482 1286 490 1324 485 1303 b 515 1115 476 1251 469 1147 b 561 1094 529 1106 540 1099 b 621 1089 576 1092 597 1089 b 651 1090 632 1089 642 1089 b 742 1136 697 1096 728 1111 b 751 1164 746 1144 750 1154 b 754 1201 754 1176 754 1190 b 754 1217 756 1208 754 1213 z m 803 142 b 753 357 788 222 774 282 b 682 613 743 396 689 590 b 603 868 671 644 622 828 b 535 971 590 903 572 953 b 321 918 469 997 368 982 b 201 558 288 874 261 772 b 108 233 176 464 121 272 b 85 38 78 135 51 83 b 181 -4 101 11 135 -3 b 286 4 207 -7 260 -7 b 372 138 336 21 356 64 b 514 139 392 139 457 139 b 686 4 549 33 569 -6 b 792 43 728 7 769 14 b 803 142 807 65 811 96 z m 478 376 l 415 376 b 447 507 425 418 435 463 b 478 376 451 492 469 408 z "},"à":{"ha":876,"x_min":0,"x_max":0,"o":"m 229 1286 b 232 1257 226 1275 229 1261 b 278 1164 235 1244 269 1182 b 342 1086 301 1115 315 1097 b 461 1078 364 1078 426 1078 b 564 1117 518 1078 560 1078 b 522 1218 567 1150 540 1189 b 478 1288 522 1218 490 1272 b 319 1322 449 1331 358 1324 b 229 1286 276 1322 239 1321 z m 803 142 b 753 357 788 222 774 282 b 682 613 743 396 689 590 b 603 868 671 644 622 828 b 535 971 590 903 572 953 b 321 918 469 997 368 982 b 201 558 288 874 261 772 b 108 233 176 464 121 272 b 85 38 78 135 51 83 b 181 -4 101 11 135 -3 b 286 4 207 -7 260 -7 b 372 138 336 21 356 64 b 514 139 392 139 457 139 b 686 4 549 33 569 -6 b 792 43 728 7 769 14 b 803 142 807 65 811 96 z m 478 376 l 415 376 b 447 507 425 418 435 463 b 478 376 451 492 469 408 z "},"å":{"ha":876,"x_min":0,"x_max":0,"o":"m 454 1072 l 435 1072 b 360 1097 404 1075 379 1083 b 288 1199 324 1122 297 1158 b 346 1379 269 1267 292 1335 b 435 1417 371 1400 403 1413 b 538 1399 471 1421 506 1414 b 624 1233 601 1365 625 1292 b 594 1135 624 1196 614 1163 b 496 1075 572 1103 536 1081 b 454 1072 486 1074 471 1072 z m 435 1207 b 490 1233 454 1194 489 1204 b 478 1279 493 1258 490 1265 b 429 1275 453 1292 435 1279 b 417 1233 422 1269 410 1256 b 435 1207 418 1224 425 1214 z m 803 142 b 753 357 788 222 774 282 b 682 613 743 396 689 590 b 603 868 671 644 622 828 b 535 971 590 903 572 953 b 321 918 469 997 368 982 b 201 558 288 874 261 772 b 108 233 176 464 121 272 b 85 38 78 135 51 83 b 181 -4 101 11 135 -3 b 286 4 207 -7 260 -7 b 372 138 336 21 356 64 b 514 139 392 139 457 139 b 686 4 549 33 569 -6 b 792 43 728 7 769 14 b 803 142 807 65 811 96 z m 478 376 l 415 376 b 447 507 425 418 435 463 b 478 376 451 492 469 408 z "},"ã":{"ha":876,"x_min":0,"x_max":0,"o":"m 704 1300 b 646 1381 694 1329 681 1361 b 517 1342 592 1415 521 1399 b 543 1246 510 1303 549 1272 b 522 1249 540 1236 531 1236 b 493 1321 513 1264 503 1303 b 199 1328 433 1435 278 1431 b 221 1100 151 1260 164 1154 b 340 1078 254 1067 306 1057 b 354 1182 374 1099 383 1140 b 349 1231 346 1197 338 1219 b 376 1196 364 1243 371 1218 b 436 1096 383 1156 406 1125 b 696 1157 519 1024 650 1057 b 704 1300 717 1203 721 1254 z m 803 142 b 753 357 788 222 774 282 b 682 613 743 396 689 590 b 603 868 671 644 622 828 b 535 971 590 903 572 953 b 321 918 469 997 368 982 b 201 558 288 874 261 772 b 108 233 176 464 121 272 b 85 38 78 135 51 83 b 181 -4 101 11 135 -3 b 286 4 207 -7 260 -7 b 372 138 336 21 356 64 b 514 139 392 139 457 139 b 686 4 549 33 569 -6 b 792 43 728 7 769 14 b 803 142 807 65 811 96 z m 478 376 l 415 376 b 447 507 425 418 435 463 b 478 376 451 492 469 408 z "},"æ":{"ha":1078,"x_min":0,"x_max":0,"o":"m 936 250 b 714 258 910 253 751 257 b 715 386 714 258 711 289 b 922 422 794 390 911 371 b 931 503 926 439 931 479 b 713 625 939 658 808 613 b 710 749 713 656 708 711 b 865 758 778 750 815 754 b 974 867 947 764 975 788 b 926 983 974 913 971 974 b 642 985 861 996 739 989 l 642 986 b 424 982 632 985 432 983 b 289 831 333 965 311 900 b 129 274 258 742 161 372 b 81 122 115 231 96 165 b 169 -14 54 47 74 -10 b 338 71 249 -17 311 -18 b 356 135 343 93 350 114 b 468 138 381 136 432 136 b 568 4 471 65 481 8 b 904 1 678 -1 783 -7 b 1008 126 1011 3 1007 79 b 936 250 1010 217 1001 244 z m 461 543 b 463 358 461 482 463 419 l 408 358 b 450 517 422 418 435 471 z "},"b":{"ha":758,"x_min":0,"x_max":0,"o":"m 674 369 b 603 486 667 393 618 471 b 657 582 617 501 644 547 b 635 831 683 658 676 751 b 433 967 592 915 510 946 b 285 986 382 982 331 989 b 139 950 232 983 182 971 b 71 822 81 929 72 871 b 69 576 72 740 71 657 b 69 192 69 450 68 319 l 69 139 b 72 113 69 133 71 121 b 131 32 79 71 99 51 b 296 -11 193 1 214 -6 b 349 -12 314 -12 332 -12 b 467 3 389 -12 429 -7 l 469 4 b 571 39 508 14 543 22 b 649 118 604 57 629 82 b 674 369 692 199 701 293 z m 350 594 l 343 594 b 344 621 343 596 344 613 l 346 728 b 401 697 365 728 392 715 b 350 594 424 663 401 600 z m 399 281 b 346 250 386 258 375 251 l 346 271 b 344 356 344 300 344 326 b 343 367 343 360 343 363 b 343 381 343 371 343 376 l 349 381 b 385 360 363 376 376 369 b 401 317 394 350 400 332 b 399 281 404 303 404 289 z "},"c":{"ha":876,"x_min":0,"x_max":0,"o":"m 799 256 b 660 369 794 318 729 389 b 558 290 618 356 592 310 b 390 333 511 269 421 283 b 403 625 339 419 344 515 b 533 685 435 679 469 708 b 676 629 593 649 628 619 b 775 769 744 638 779 699 b 646 944 761 854 718 908 b 290 939 546 1004 392 1011 b 106 671 206 878 144 786 b 131 183 56 522 53 317 b 378 -1 183 85 268 22 b 551 -7 428 -15 499 -15 b 724 76 613 3 676 33 b 799 256 778 126 804 192 z "},"ç":{"ha":872,"x_min":0,"x_max":0,"o":"m 78 588 b 78 363 67 513 65 435 b 133 200 88 303 106 249 b 321 50 182 115 231 93 l 321 25 b 419 -108 321 -43 363 -79 b 468 -171 454 -121 489 -144 b 406 -157 454 -189 421 -174 b 289 -156 365 -128 322 -117 b 296 -292 263 -183 260 -256 b 549 -353 346 -364 460 -399 b 657 -114 636 -308 683 -203 b 589 -19 647 -75 624 -44 b 543 13 579 -10 565 -4 b 731 99 613 13 681 49 b 800 283 800 168 808 219 b 660 396 794 347 728 417 b 597 347 635 386 615 367 b 390 356 535 288 429 289 b 399 647 338 440 340 536 b 561 690 442 725 492 735 b 672 656 592 667 625 649 b 768 797 738 665 775 719 b 638 974 757 869 711 936 b 290 968 532 1033 386 1038 b 78 588 168 883 100 736 z "},"d":{"ha":835,"x_min":0,"x_max":0,"o":"m 747 629 b 592 903 722 743 668 838 b 274 972 519 965 383 983 b 150 949 217 968 213 965 b 72 813 86 929 72 888 b 71 586 68 722 71 742 b 71 276 68 451 75 397 l 71 151 b 94 51 72 107 79 75 b 319 -6 139 -21 213 -6 b 633 97 440 -6 551 15 b 747 629 758 222 790 444 z m 454 332 b 349 288 436 307 393 289 b 343 494 349 289 343 467 b 343 690 342 550 342 686 b 464 619 396 697 449 656 b 454 332 514 508 510 411 z "},"e":{"ha":711,"x_min":0,"x_max":0,"o":"m 626 239 b 553 279 611 268 581 275 b 356 282 528 281 410 281 b 357 367 356 299 356 326 b 490 372 382 364 463 367 b 558 419 529 378 551 394 b 538 596 571 472 576 557 b 400 629 504 631 451 629 b 356 631 385 629 371 629 b 354 708 356 633 354 708 l 488 714 b 610 840 574 721 613 747 b 547 965 610 899 604 956 b 285 975 488 978 379 978 b 107 946 185 969 149 979 b 69 797 72 914 69 858 b 90 64 72 346 67 124 b 193 0 108 28 142 3 b 443 -3 279 -4 357 -4 b 518 0 468 -3 493 -1 b 624 50 569 1 606 18 b 626 239 643 86 650 197 z "},"é":{"ha":711,"x_min":0,"x_max":0,"o":"m 556 1286 b 465 1322 546 1321 508 1322 b 307 1288 426 1324 336 1331 b 263 1218 294 1272 263 1218 b 221 1117 244 1189 218 1150 b 324 1078 225 1078 267 1078 b 443 1086 358 1078 421 1078 b 507 1164 469 1097 483 1115 b 553 1257 515 1182 550 1244 b 556 1286 556 1261 558 1275 z m 626 239 b 553 279 611 268 581 275 b 356 282 528 281 410 281 b 357 367 356 299 356 326 b 490 372 382 364 463 367 b 558 419 529 378 551 394 b 538 596 571 472 576 557 b 400 629 504 631 451 629 b 356 631 385 629 371 629 b 354 708 356 633 354 708 l 488 714 b 610 840 574 721 613 747 b 547 965 610 899 604 956 b 285 975 488 978 379 978 b 107 946 185 969 149 979 b 69 797 72 914 69 858 b 90 64 72 346 67 124 b 193 0 108 28 142 3 b 443 -3 279 -4 357 -4 b 518 0 468 -3 493 -1 b 624 50 569 1 606 18 b 626 239 643 86 650 197 z "},"ê":{"ha":711,"x_min":0,"x_max":0,"o":"m 588 1185 b 381 1397 532 1265 429 1381 b 307 1396 358 1406 328 1404 b 176 1282 256 1371 214 1324 b 97 1190 111 1207 135 1238 b 139 1064 61 1146 92 1103 b 233 1056 171 1039 204 1033 b 336 1163 260 1074 307 1125 b 338 1164 338 1163 338 1164 b 450 1046 360 1136 429 1051 b 578 1110 503 1029 551 1082 b 588 1185 600 1132 608 1153 z m 626 239 b 553 279 611 268 581 275 b 356 282 528 281 410 281 b 357 367 356 299 356 326 b 490 372 382 364 463 367 b 558 419 529 378 551 394 b 538 596 571 472 576 557 b 400 629 504 631 451 629 b 356 631 385 629 371 629 b 354 708 356 633 354 708 l 488 714 b 610 840 574 721 613 747 b 547 965 610 899 604 956 b 285 975 488 978 379 978 b 107 946 185 969 149 979 b 69 797 72 914 69 858 b 90 64 72 346 67 124 b 193 0 108 28 142 3 b 443 -3 279 -4 357 -4 b 518 0 468 -3 493 -1 b 624 50 569 1 606 18 b 626 239 643 86 650 197 z "},"ë":{"ha":749,"x_min":0,"x_max":0,"o":"m 346 1217 l 346 1229 b 333 1310 347 1260 343 1283 b 264 1372 322 1343 299 1364 b 179 1371 236 1378 206 1374 b 160 1369 172 1371 165 1369 b 94 1340 132 1367 110 1357 b 74 1286 82 1324 76 1303 b 107 1115 68 1251 61 1147 b 153 1094 121 1106 132 1099 b 213 1089 168 1092 189 1089 b 243 1090 224 1089 233 1089 b 333 1136 289 1096 319 1111 b 343 1164 338 1144 342 1154 b 346 1201 346 1176 346 1190 b 346 1217 347 1208 346 1213 z m 679 1217 l 679 1229 b 667 1310 681 1260 676 1283 b 597 1372 656 1343 632 1364 b 513 1371 569 1378 539 1374 b 493 1369 506 1371 499 1369 b 428 1340 465 1367 443 1357 b 407 1286 415 1324 410 1303 b 440 1115 401 1251 394 1147 b 486 1094 454 1106 465 1099 b 546 1089 501 1092 522 1089 b 576 1090 557 1089 567 1089 b 667 1136 622 1096 653 1111 b 676 1164 671 1144 675 1154 b 679 1201 679 1176 679 1190 b 679 1217 681 1208 679 1213 z m 663 239 b 589 279 647 268 617 275 b 392 282 564 281 446 281 b 393 367 392 299 392 326 b 526 372 418 364 499 367 b 594 419 565 378 588 394 b 574 596 607 472 613 557 b 436 629 540 631 488 629 b 392 631 421 629 407 629 b 390 708 392 633 390 708 l 524 714 b 646 840 610 721 649 747 b 583 965 646 899 640 956 b 321 975 524 978 415 978 b 143 946 221 969 185 979 b 106 797 108 914 106 858 b 126 64 108 346 103 124 b 229 0 144 28 178 3 b 479 -3 315 -4 393 -4 b 554 0 504 -3 529 -1 b 660 50 606 1 642 18 b 663 239 679 86 686 197 z "},"è":{"ha":711,"x_min":0,"x_max":0,"o":"m 144 1286 b 147 1257 142 1275 144 1261 b 193 1164 150 1244 185 1182 b 257 1086 217 1115 231 1097 b 376 1078 279 1078 342 1078 b 479 1117 433 1078 475 1078 b 438 1218 482 1150 456 1189 b 393 1288 438 1218 406 1272 b 235 1322 364 1331 274 1324 b 144 1286 192 1322 154 1321 z m 626 239 b 553 279 611 268 581 275 b 356 282 528 281 410 281 b 357 367 356 299 356 326 b 490 372 382 364 463 367 b 558 419 529 378 551 394 b 538 596 571 472 576 557 b 400 629 504 631 451 629 b 356 631 385 629 371 629 b 354 708 356 633 354 708 l 488 714 b 610 840 574 721 613 747 b 547 965 610 899 604 956 b 285 975 488 978 379 978 b 107 946 185 969 149 979 b 69 797 72 914 69 858 b 90 64 72 346 67 124 b 193 0 108 28 142 3 b 443 -3 279 -4 357 -4 b 518 0 468 -3 493 -1 b 624 50 569 1 606 18 b 626 239 643 86 650 197 z "},"f":{"ha":679,"x_min":0,"x_max":0,"o":"m 193 0 b 356 165 279 -4 360 -8 b 357 367 356 182 356 326 b 490 372 382 364 463 367 b 558 419 529 378 551 394 b 538 596 571 472 576 557 b 400 629 504 631 451 629 b 356 631 385 629 371 629 b 354 708 356 633 354 708 l 488 714 b 610 840 574 721 613 747 b 547 965 610 899 604 956 b 285 975 488 978 379 978 b 107 946 185 969 149 979 b 69 797 72 914 69 858 b 90 64 72 346 67 124 b 193 0 108 28 142 3 z "},"g":{"ha":956,"x_min":0,"x_max":0,"o":"m 811 161 b 876 508 864 250 904 426 b 753 596 867 558 824 589 b 475 572 642 607 547 599 b 426 426 419 558 400 496 b 572 364 440 397 471 354 b 549 321 575 367 565 335 b 471 293 531 304 501 293 b 388 338 439 290 401 310 b 392 621 335 417 331 510 b 560 667 431 696 496 713 b 675 633 593 647 631 624 b 749 681 704 638 732 656 b 736 861 783 729 771 796 b 282 936 658 993 422 1032 b 78 340 113 811 43 561 b 239 58 99 228 144 128 b 557 -6 324 -4 450 -25 b 811 161 665 13 753 69 z "},"h":{"ha":878,"x_min":0,"x_max":0,"o":"m 808 131 b 803 321 807 200 806 261 b 801 851 799 469 793 557 b 750 960 803 904 786 940 b 539 947 700 985 582 990 b 503 825 513 921 501 882 b 507 714 504 817 507 740 b 504 610 507 668 506 611 l 501 610 b 367 613 500 610 446 606 b 369 856 357 631 369 838 b 351 947 371 893 372 924 b 247 975 332 967 301 975 b 101 932 175 975 131 963 b 69 813 76 906 67 867 b 88 146 86 550 88 465 b 117 40 88 96 97 64 b 219 0 139 17 169 4 b 383 108 317 -8 372 7 b 382 257 392 171 382 215 b 378 328 381 294 378 292 b 507 333 421 332 464 335 b 508 218 510 283 508 269 b 535 35 504 154 510 67 b 635 -1 554 8 583 -1 b 778 35 689 -1 744 1 b 808 131 799 57 808 88 z "},"i":{"ha":436,"x_min":0,"x_max":0,"o":"m 367 125 b 361 304 365 190 364 247 b 360 865 357 444 351 589 b 313 967 361 915 346 949 b 104 956 265 992 143 997 b 69 840 79 932 68 894 b 75 408 82 632 74 463 b 75 275 76 363 76 319 b 75 150 75 235 74 193 b 194 0 78 51 107 7 b 338 36 254 0 308 3 b 367 125 357 54 367 85 z "},"í":{"ha":438,"x_min":0,"x_max":0,"o":"m 429 1286 b 339 1322 419 1321 382 1322 b 181 1288 300 1324 210 1331 b 136 1218 168 1272 136 1218 b 94 1117 118 1189 92 1150 b 197 1078 99 1078 140 1078 b 317 1086 232 1078 294 1078 b 381 1164 343 1097 357 1115 b 426 1257 389 1182 424 1244 b 429 1286 429 1261 432 1275 z m 367 125 b 361 304 365 190 364 247 b 360 865 357 444 351 589 b 313 967 361 915 346 949 b 104 956 265 992 143 997 b 69 840 79 932 68 894 b 75 408 82 632 74 463 b 75 275 76 363 76 319 b 75 150 75 235 74 193 b 194 0 78 51 107 7 b 338 36 254 0 308 3 b 367 125 357 54 367 85 z "},"î":{"ha":415,"x_min":0,"x_max":0,"o":"m 461 1185 b 254 1397 406 1265 303 1381 b 181 1396 232 1406 201 1404 b 50 1282 129 1371 88 1324 b -29 1190 -15 1207 8 1238 b 13 1064 -65 1146 -35 1103 b 107 1056 44 1039 78 1033 b 210 1163 133 1074 181 1125 b 211 1164 211 1163 211 1164 b 324 1046 233 1136 303 1051 b 451 1110 376 1029 425 1082 b 461 1185 474 1132 482 1153 z m 367 125 b 361 304 365 190 364 247 b 360 865 357 444 351 589 b 313 967 361 915 346 949 b 104 956 265 992 143 997 b 69 840 79 932 68 894 b 75 408 82 632 74 463 b 75 275 76 363 76 319 b 75 150 75 235 74 193 b 194 0 78 51 107 7 b 338 36 254 0 308 3 b 367 125 357 54 367 85 z "},"ï":{"ha":446,"x_min":0,"x_max":0,"o":"m 181 1217 l 181 1229 b 168 1310 182 1260 178 1283 b 99 1372 157 1343 133 1364 b 14 1371 71 1378 40 1374 b -6 1369 7 1371 0 1369 b -71 1340 -33 1367 -56 1357 b -92 1286 -83 1324 -89 1303 b -58 1115 -97 1251 -104 1147 b -12 1094 -44 1106 -33 1099 b 47 1089 3 1092 24 1089 b 78 1090 58 1089 68 1089 b 168 1136 124 1096 154 1111 b 178 1164 172 1144 176 1154 b 181 1201 181 1176 181 1190 b 181 1217 182 1208 181 1213 z m 514 1217 l 514 1229 b 501 1310 515 1260 511 1283 b 432 1372 490 1343 467 1364 b 347 1371 404 1378 374 1374 b 328 1369 340 1371 333 1369 b 263 1340 300 1367 278 1357 b 242 1286 250 1324 244 1303 b 275 1115 236 1251 229 1147 b 321 1094 289 1106 300 1099 b 381 1089 336 1092 357 1089 b 411 1090 392 1089 401 1089 b 501 1136 457 1096 488 1111 b 511 1164 506 1144 510 1154 b 514 1201 514 1176 514 1190 b 514 1217 515 1208 514 1213 z m 367 125 b 361 304 365 190 364 247 b 360 865 357 444 351 589 b 313 967 361 915 346 949 b 104 956 265 992 143 997 b 69 840 79 932 68 894 b 75 408 82 632 74 463 b 75 275 76 363 76 319 b 75 150 75 235 74 193 b 194 0 78 51 107 7 b 338 36 254 0 308 3 b 367 125 357 54 367 85 z "},"ì":{"ha":436,"x_min":0,"x_max":0,"o":"m 3 1286 b 6 1257 0 1275 3 1261 b 51 1164 8 1244 43 1182 b 115 1086 75 1115 89 1097 b 235 1078 138 1078 200 1078 b 338 1117 292 1078 333 1078 b 296 1218 340 1150 314 1189 b 251 1288 296 1218 264 1272 b 93 1322 222 1331 132 1324 b 3 1286 50 1322 13 1321 z m 367 125 b 361 304 365 190 364 247 b 360 865 357 444 351 589 b 313 967 361 915 346 949 b 104 956 265 992 143 997 b 69 840 79 932 68 894 b 75 408 82 632 74 463 b 75 275 76 363 76 319 b 75 150 75 235 74 193 b 194 0 78 51 107 7 b 338 36 254 0 308 3 b 367 125 357 54 367 85 z "},"j":{"ha":776,"x_min":0,"x_max":0,"o":"m 707 604 b 696 869 707 694 704 774 b 538 974 689 964 633 990 b 415 818 449 961 408 907 b 415 344 436 650 449 426 b 349 286 400 310 388 285 b 289 328 326 288 310 306 b 172 382 254 365 213 388 b 71 283 117 374 81 349 b 125 101 63 218 90 139 b 524 28 226 -15 400 -50 b 707 604 700 138 707 375 z "},"k":{"ha":778,"x_min":0,"x_max":0,"o":"m 704 89 b 622 256 676 153 643 217 b 513 481 567 375 521 461 b 535 529 514 483 517 496 b 693 908 693 803 708 868 b 636 957 686 929 668 946 b 421 894 536 989 464 968 b 340 722 400 860 343 732 b 343 856 342 739 343 839 l 343 857 b 190 972 338 957 304 978 b 74 825 88 969 71 925 b 72 464 74 815 72 572 b 69 140 72 358 72 249 b 224 0 69 21 107 0 b 336 251 346 0 336 92 b 414 81 342 239 392 119 b 636 0 472 -15 514 -1 b 704 89 697 1 718 47 z "},"l":{"ha":685,"x_min":0,"x_max":0,"o":"m 614 149 b 583 246 614 197 604 225 b 450 271 549 276 528 269 b 357 272 421 272 394 272 b 354 492 358 354 356 426 b 354 839 351 615 349 714 b 342 925 356 871 351 904 b 260 974 329 953 301 968 b 182 975 239 976 217 978 b 76 896 125 971 89 957 b 69 800 69 867 71 833 l 69 790 b 75 225 69 599 72 414 l 75 178 b 117 33 76 117 82 65 b 228 1 140 11 176 3 l 293 1 b 382 0 321 0 353 0 b 554 11 449 0 511 1 b 608 68 589 18 601 46 b 614 149 615 99 615 125 z "},"m":{"ha":1011,"x_min":0,"x_max":0,"o":"m 939 325 b 935 515 938 357 938 472 b 918 854 932 614 918 911 b 874 954 914 886 906 931 b 765 975 853 968 821 975 b 547 739 660 975 614 879 b 504 661 533 715 519 688 b 349 897 449 743 351 893 b 288 960 333 919 315 947 b 76 899 217 992 79 976 b 81 149 65 824 69 481 b 199 0 83 64 113 0 l 200 0 b 361 125 297 0 365 21 b 353 386 360 199 353 338 b 376 346 358 376 367 361 b 411 297 388 328 400 310 b 506 232 446 254 476 235 b 667 392 561 229 608 296 b 663 211 667 332 665 269 b 697 35 663 128 650 82 b 893 17 736 -7 843 -10 b 940 113 924 32 939 63 b 939 325 943 192 943 249 z "},"n":{"ha":863,"x_min":0,"x_max":0,"o":"m 790 871 b 756 960 789 913 778 942 b 638 982 725 988 679 986 b 508 831 549 971 504 919 b 517 596 508 813 517 674 l 517 589 b 329 928 363 875 363 894 b 101 940 292 974 160 989 b 69 825 78 915 67 878 b 74 571 69 811 74 664 l 74 147 b 193 -6 74 40 96 6 b 358 121 293 -6 363 15 b 354 317 358 186 354 314 b 397 232 369 290 383 260 b 458 122 415 196 438 157 b 621 -4 501 38 549 -4 b 763 113 718 -4 756 18 b 788 533 767 128 793 536 b 790 871 793 697 796 751 z "},"ñ":{"ha":863,"x_min":0,"x_max":0,"o":"m 676 1300 b 618 1381 667 1329 653 1361 b 489 1342 564 1415 493 1399 b 515 1246 482 1303 521 1272 b 494 1249 513 1236 503 1236 b 465 1321 485 1264 475 1303 b 171 1328 406 1435 250 1431 b 193 1100 124 1260 136 1154 b 313 1078 226 1067 278 1057 b 326 1182 346 1099 356 1140 b 321 1231 318 1197 310 1219 b 349 1196 336 1243 343 1218 b 408 1096 356 1156 378 1125 b 668 1157 492 1024 622 1057 b 676 1300 689 1203 693 1254 z m 790 871 b 756 960 789 913 778 942 b 638 982 725 988 679 986 b 508 831 549 971 504 919 b 517 596 508 813 517 674 l 517 589 b 329 928 363 875 363 894 b 101 940 292 974 160 989 b 69 825 78 915 67 878 b 74 571 69 811 74 664 l 74 147 b 193 -6 74 40 96 6 b 358 121 293 -6 363 15 b 354 317 358 186 354 314 b 397 232 369 290 383 260 b 458 122 415 196 438 157 b 621 -4 501 38 549 -4 b 768 113 718 -4 761 18 b 788 533 772 128 790 451 b 790 871 793 697 796 751 z "},"o":{"ha":1011,"x_min":0,"x_max":0,"o":"m 863 785 b 744 911 835 835 794 876 b 271 924 611 1004 394 1014 b 93 653 188 863 126 767 b 81 321 63 551 64 426 b 314 10 103 186 185 57 b 703 42 439 -35 592 -24 b 863 785 940 176 1010 531 z m 375 546 b 600 624 408 686 526 747 b 631 428 638 563 646 489 b 408 338 596 304 483 246 b 375 546 369 406 353 458 z "},"ó":{"ha":1008,"x_min":0,"x_max":0,"o":"m 697 1286 b 607 1322 688 1321 650 1322 b 449 1288 568 1324 478 1331 b 404 1218 436 1272 404 1218 b 363 1117 386 1189 360 1150 b 465 1078 367 1078 408 1078 b 585 1086 500 1078 563 1078 b 649 1164 611 1097 625 1115 b 694 1257 657 1182 692 1244 b 697 1286 697 1261 700 1275 z m 863 785 b 744 911 835 835 794 876 b 271 924 611 1004 394 1014 b 93 653 188 863 126 767 b 81 321 63 551 64 426 b 314 10 103 186 185 57 b 703 42 439 -35 592 -24 b 863 785 940 176 1010 531 z m 375 546 b 600 624 408 686 526 747 b 631 428 638 563 646 489 b 408 338 596 304 483 246 b 375 546 369 406 353 458 z "},"ô":{"ha":1008,"x_min":0,"x_max":0,"o":"m 753 1185 b 546 1397 697 1265 594 1381 b 472 1396 524 1406 493 1404 b 342 1282 421 1371 379 1324 b 263 1190 276 1207 300 1238 b 304 1064 226 1146 257 1103 b 399 1056 336 1039 369 1033 b 501 1163 425 1074 472 1125 b 503 1164 503 1163 503 1164 b 615 1046 525 1136 594 1051 b 743 1110 668 1029 717 1082 b 753 1185 765 1132 774 1153 z m 863 785 b 744 911 835 835 794 876 b 271 924 611 1004 394 1014 b 93 653 188 863 126 767 b 81 321 63 551 64 426 b 314 10 103 186 185 57 b 703 42 439 -35 592 -24 b 863 785 940 176 1010 531 z m 375 546 b 600 624 408 686 526 747 b 631 428 638 563 646 489 b 408 338 596 304 483 246 b 375 546 369 406 353 458 z "},"ö":{"ha":1008,"x_min":0,"x_max":0,"o":"m 464 1217 l 464 1229 b 451 1310 465 1260 461 1283 b 382 1372 440 1343 417 1364 b 297 1371 354 1378 324 1374 b 278 1369 290 1371 283 1369 b 213 1340 250 1367 228 1357 b 192 1286 200 1324 194 1303 b 225 1115 186 1251 179 1147 b 271 1094 239 1106 250 1099 b 331 1089 286 1092 307 1089 b 361 1090 342 1089 351 1089 b 451 1136 407 1096 438 1111 b 461 1164 456 1144 460 1154 b 464 1201 464 1176 464 1190 b 464 1217 465 1208 464 1213 z m 797 1217 l 797 1229 b 785 1310 799 1260 794 1283 b 715 1372 774 1343 750 1364 b 631 1371 688 1378 657 1374 b 611 1369 624 1371 617 1369 b 546 1340 583 1367 561 1357 b 525 1286 533 1324 528 1303 b 558 1115 519 1251 513 1147 b 604 1094 572 1106 583 1099 b 664 1089 619 1092 640 1089 b 694 1090 675 1089 685 1089 b 785 1136 740 1096 771 1111 b 794 1164 789 1144 793 1154 b 797 1201 797 1176 797 1190 b 797 1217 799 1208 797 1213 z m 863 785 b 744 911 835 835 794 876 b 271 924 611 1004 394 1014 b 93 653 188 863 126 767 b 81 321 63 551 64 426 b 314 10 103 186 185 57 b 703 42 439 -35 592 -24 b 863 785 940 176 1010 531 z m 375 546 b 600 624 408 686 526 747 b 631 428 638 563 646 489 b 408 338 596 304 483 246 b 375 546 369 406 353 458 z "},"ò":{"ha":1008,"x_min":0,"x_max":0,"o":"m 285 1286 b 288 1257 282 1275 285 1261 b 333 1164 290 1244 325 1182 b 397 1086 357 1115 371 1097 b 517 1078 419 1078 482 1078 b 619 1117 574 1078 615 1078 b 578 1218 622 1150 596 1189 b 533 1288 578 1218 546 1272 b 375 1322 504 1331 414 1324 b 285 1286 332 1322 294 1321 z m 863 785 b 744 911 835 835 794 876 b 271 924 611 1004 394 1014 b 93 653 188 863 126 767 b 81 321 63 551 64 426 b 314 10 103 186 185 57 b 703 42 439 -35 592 -24 b 863 785 940 176 1010 531 z m 375 546 b 600 624 408 686 526 747 b 631 428 638 563 646 489 b 408 338 596 304 483 246 b 375 546 369 406 353 458 z "},"ø":{"ha":1189,"x_min":0,"x_max":0,"o":"m 1097 886 b 925 933 1050 951 989 989 b 869 888 914 925 894 908 b 389 911 738 997 536 1021 b 194 322 211 778 161 525 l 194 321 b 69 172 117 254 72 226 b 121 68 68 139 89 100 b 314 85 183 1 238 22 b 556 -7 375 29 457 -3 b 967 232 743 -12 885 72 b 1011 668 1042 374 1060 521 b 1118 799 1086 732 1111 746 b 1097 886 1124 831 1115 858 z m 547 703 b 661 715 590 728 629 731 b 447 535 582 647 501 581 b 547 703 460 608 496 674 z m 674 303 b 553 282 631 279 589 272 b 772 467 557 285 753 450 b 674 303 767 399 733 338 z "},"õ":{"ha":1008,"x_min":0,"x_max":0,"o":"m 746 1300 b 688 1381 736 1329 722 1361 b 558 1342 633 1415 563 1399 b 585 1246 551 1303 590 1272 b 564 1249 582 1236 572 1236 b 535 1321 554 1264 544 1303 b 240 1328 475 1435 319 1431 b 263 1100 193 1260 206 1154 b 382 1078 296 1067 347 1057 b 396 1182 415 1099 425 1140 b 390 1231 388 1197 379 1219 b 418 1196 406 1243 413 1218 b 478 1096 425 1156 447 1125 b 738 1157 561 1024 692 1057 b 746 1300 758 1203 763 1254 z m 863 785 b 744 911 835 835 794 876 b 271 924 611 1004 394 1014 b 93 653 188 863 126 767 b 81 321 63 551 64 426 b 314 10 103 186 185 57 b 703 42 439 -35 592 -24 b 863 785 940 176 1010 531 z m 375 546 b 600 624 408 686 526 747 b 631 428 638 563 646 489 b 408 338 596 304 483 246 b 375 546 369 406 353 458 z "},"œ":{"ha":1281,"x_min":0,"x_max":0,"o":"m 93 649 b 215 79 38 465 78 210 b 679 31 339 -33 532 -46 b 760 -1 699 13 725 1 b 1010 -14 846 -8 924 -14 b 1192 36 1100 -14 1160 -15 b 1199 228 1215 79 1217 190 b 1125 271 1183 258 1153 267 b 928 281 1100 274 982 278 b 932 364 929 297 929 324 b 1065 363 957 361 1039 358 b 1144 490 1132 372 1139 404 b 1117 594 1149 538 1139 571 b 981 632 1085 631 1032 631 b 936 633 965 632 951 632 l 936 713 l 1029 717 b 1164 747 1083 719 1133 718 b 1194 842 1185 768 1194 796 b 1190 917 1194 867 1194 893 b 1135 975 1183 939 1169 969 b 872 986 1075 989 967 988 b 807 985 849 986 828 985 b 682 946 760 989 710 983 b 271 919 558 1008 376 996 b 93 649 188 858 126 763 z m 365 436 b 371 547 361 469 363 514 b 453 672 385 606 414 651 b 607 624 490 694 553 714 b 635 425 644 563 650 486 b 561 310 621 376 601 331 b 397 335 501 274 435 289 b 365 436 381 364 369 399 z "},"p":{"ha":772,"x_min":0,"x_max":0,"o":"m 676 821 b 296 978 619 932 456 985 b 76 838 189 974 78 931 b 71 390 72 688 71 536 b 74 81 69 129 69 114 b 196 -7 85 17 129 -8 b 367 143 314 -6 369 33 b 363 332 365 175 361 282 b 558 374 433 333 506 349 b 699 550 617 403 678 488 b 676 821 728 626 719 739 z m 357 582 b 354 710 356 594 357 529 b 425 682 375 715 414 703 b 357 582 443 650 421 583 z "},"þ":{"ha":783,"x_min":0,"x_max":0,"o":"m 672 796 b 492 944 625 886 572 924 b 361 960 458 954 393 958 b 357 1058 361 979 360 1038 b 196 1163 346 1140 290 1171 b 97 1118 150 1161 115 1144 b 72 878 61 1057 71 1010 b 75 344 76 818 75 546 b 81 93 78 249 71 160 b 210 -1 94 24 136 -1 b 342 24 256 -1 315 -3 b 383 153 372 47 383 106 b 378 301 382 182 378 249 b 550 342 435 301 501 315 b 653 436 589 363 622 392 b 699 526 672 464 689 496 b 672 796 726 607 717 708 z m 372 560 b 369 683 369 596 369 618 b 436 656 413 686 425 671 b 422 576 453 632 446 596 b 372 560 413 568 390 561 z "},"q":{"ha":1100,"x_min":0,"x_max":0,"o":"m 1028 197 b 918 349 1017 250 971 304 b 861 788 963 499 943 646 b 586 981 801 888 701 957 b 99 644 356 1028 167 878 b 314 15 28 403 82 100 b 638 15 410 -24 536 -21 b 772 100 688 35 733 63 b 867 51 801 82 832 67 b 1028 197 947 18 1051 103 z m 465 458 b 531 281 443 394 475 328 b 469 275 510 272 489 271 b 374 542 368 296 350 435 b 456 674 390 604 415 651 b 621 625 521 711 576 699 b 653 532 638 596 646 564 b 519 531 608 557 569 563 b 465 458 493 513 474 488 z "},"r":{"ha":817,"x_min":0,"x_max":0,"o":"m 707 189 b 601 422 646 281 626 311 b 683 554 644 456 667 506 b 653 836 710 632 694 753 b 283 989 597 944 425 994 b 74 844 176 983 75 943 b 69 393 69 694 71 542 b 69 138 71 310 71 222 b 104 26 69 82 81 49 b 331 28 150 -17 289 -11 b 353 342 369 63 356 189 l 353 344 b 526 35 388 238 433 92 b 697 28 585 -4 639 -7 b 707 189 757 79 765 115 z m 351 719 b 417 692 386 724 408 707 b 357 590 435 654 408 590 l 354 590 z "},"s":{"ha":764,"x_min":0,"x_max":0,"o":"m 689 264 b 543 565 714 394 660 504 b 474 593 525 575 499 585 b 374 671 433 606 367 628 b 488 672 379 706 439 700 b 585 647 515 657 544 642 b 685 793 650 656 693 725 b 506 972 674 885 606 938 b 244 957 424 1001 328 996 b 76 742 163 918 97 838 b 139 483 57 650 79 551 b 278 388 172 443 215 411 b 396 344 300 379 381 368 b 338 279 424 301 385 274 b 176 335 283 286 249 344 b 103 132 89 322 58 204 b 378 -14 153 40 267 -14 b 689 264 539 -14 672 110 z "},"ß":{"ha":746,"x_min":0,"x_max":0,"o":"m 661 360 b 578 489 650 392 615 444 b 642 597 601 517 628 557 b 617 840 669 676 656 767 b 125 950 547 978 292 1024 b 69 836 85 935 69 899 b 74 178 71 617 69 397 b 128 28 74 83 96 47 b 299 -11 181 1 236 -8 b 322 67 325 -11 322 22 b 317 350 322 92 315 382 l 317 397 b 394 371 349 397 368 400 b 413 267 419 343 431 296 b 367 221 394 233 376 236 b 360 29 353 203 357 160 b 508 17 360 -21 428 -18 b 661 360 646 64 708 226 z m 414 722 b 397 607 431 689 419 635 b 314 579 374 578 353 579 b 314 628 314 579 314 606 l 314 756 b 414 722 335 769 394 756 z "},"t":{"ha":804,"x_min":0,"x_max":0,"o":"m 704 935 b 532 960 667 971 619 961 b 274 969 510 958 314 965 b 93 910 175 975 136 990 b 99 728 63 847 57 774 b 265 683 125 696 193 683 b 260 413 264 594 263 503 b 253 128 256 317 254 219 b 389 -1 254 33 294 -3 b 547 72 475 -1 535 4 b 542 682 554 115 550 154 b 708 719 621 683 668 682 b 735 831 726 736 735 769 b 704 935 735 867 731 908 z "},"u":{"ha":874,"x_min":0,"x_max":0,"o":"m 785 883 b 619 981 771 978 717 999 b 501 822 531 964 490 911 b 472 313 526 644 556 401 b 364 383 426 267 382 301 b 358 656 350 467 353 567 b 367 765 361 701 364 738 b 357 921 374 867 376 879 b 204 969 329 976 238 972 b 94 885 149 967 117 935 b 76 322 72 836 61 529 b 165 104 82 246 119 158 b 651 61 278 -33 521 -57 b 799 456 735 136 785 269 b 785 883 810 579 804 722 z "},"ú":{"ha":874,"x_min":0,"x_max":0,"o":"m 653 1286 b 563 1322 643 1321 606 1322 b 404 1288 524 1324 433 1331 b 360 1218 392 1272 360 1218 b 318 1117 342 1189 315 1150 b 421 1078 322 1078 364 1078 b 540 1086 456 1078 518 1078 b 604 1164 567 1097 581 1115 b 650 1257 613 1182 647 1244 b 653 1286 653 1261 656 1275 z m 785 883 b 619 981 771 978 717 999 b 497 822 526 964 486 911 b 468 313 522 644 551 401 b 360 383 422 267 378 301 b 354 656 346 467 349 567 b 363 765 357 701 360 738 b 353 921 369 867 372 879 b 204 969 325 976 238 972 b 94 885 149 967 117 935 b 76 322 72 836 61 529 b 165 104 82 246 119 158 b 651 61 278 -33 521 -57 b 799 456 735 136 785 269 b 785 883 810 579 804 722 z "},"û":{"ha":874,"x_min":0,"x_max":0,"o":"m 686 1185 b 479 1397 631 1265 528 1381 b 406 1396 457 1406 426 1404 b 275 1282 354 1371 313 1324 b 196 1190 210 1207 233 1238 b 238 1064 160 1146 190 1103 b 332 1056 269 1039 303 1033 b 435 1163 358 1074 406 1125 b 436 1164 436 1163 436 1164 b 549 1046 458 1136 528 1051 b 676 1110 601 1029 650 1082 b 686 1185 699 1132 707 1153 z m 785 883 b 619 981 771 978 717 999 b 497 822 526 964 486 911 b 468 313 522 644 551 401 b 360 383 422 267 378 301 b 354 656 346 467 349 567 b 363 765 357 701 360 738 b 353 921 369 867 372 879 b 204 969 325 976 238 972 b 94 885 149 967 117 935 b 76 322 72 836 61 529 b 165 104 82 246 119 158 b 651 61 278 -33 521 -57 b 799 456 735 136 785 269 b 785 883 810 579 804 722 z "},"ü":{"ha":874,"x_min":0,"x_max":0,"o":"m 406 1217 l 406 1229 b 393 1310 407 1260 403 1283 b 324 1372 382 1343 358 1364 b 239 1371 296 1378 265 1374 b 219 1369 232 1371 225 1369 b 154 1340 192 1367 169 1357 b 133 1286 142 1324 136 1303 b 167 1115 128 1251 121 1147 b 213 1094 181 1106 192 1099 b 272 1089 228 1092 249 1089 b 303 1090 283 1089 293 1089 b 393 1136 349 1096 379 1111 b 403 1164 397 1144 401 1154 b 406 1201 406 1176 406 1190 b 406 1217 407 1208 406 1213 z m 739 1217 l 739 1229 b 726 1310 740 1260 736 1283 b 657 1372 715 1343 692 1364 b 572 1371 629 1378 599 1374 b 553 1369 565 1371 558 1369 b 488 1340 525 1367 503 1357 b 467 1286 475 1324 469 1303 b 500 1115 461 1251 454 1147 b 546 1094 514 1106 525 1099 b 606 1089 561 1092 582 1089 b 636 1090 617 1089 626 1089 b 726 1136 682 1096 713 1111 b 736 1164 731 1144 735 1154 b 739 1201 739 1176 739 1190 b 739 1217 740 1208 739 1213 z m 785 883 b 619 981 771 978 717 999 b 497 822 526 964 486 911 b 468 313 522 644 551 401 b 360 383 422 267 378 301 b 354 656 346 467 349 567 b 363 765 357 701 360 738 b 353 921 369 867 372 879 b 204 969 325 976 238 972 b 94 885 149 967 117 935 b 76 322 72 836 61 529 b 165 104 82 246 119 158 b 651 61 278 -33 521 -57 b 799 456 735 136 785 269 b 785 883 810 579 804 722 z "},"ù":{"ha":874,"x_min":0,"x_max":0,"o":"m 229 1286 b 232 1257 226 1275 229 1261 b 278 1164 235 1244 269 1182 b 342 1086 301 1115 315 1097 b 461 1078 364 1078 426 1078 b 564 1117 518 1078 560 1078 b 522 1218 567 1150 540 1189 b 478 1288 522 1218 490 1272 b 319 1322 449 1331 358 1324 b 229 1286 276 1322 239 1321 z m 785 883 b 619 981 771 978 717 999 b 497 822 526 964 486 911 b 468 313 522 644 551 401 b 360 383 422 267 378 301 b 354 656 346 467 349 567 b 363 765 357 701 360 738 b 353 921 369 867 372 879 b 204 969 325 976 238 972 b 94 885 149 967 117 935 b 76 322 72 836 61 529 b 165 104 82 246 119 158 b 651 61 278 -33 521 -57 b 799 456 735 136 785 269 b 785 883 810 579 804 722 z "},"v":{"ha":874,"x_min":0,"x_max":0,"o":"m 74 835 b 124 619 89 754 103 694 b 194 364 133 581 188 386 b 274 108 206 332 254 149 b 342 6 286 74 304 24 b 556 35 407 -21 508 -29 b 682 418 589 79 622 204 b 771 743 707 513 751 658 b 786 943 800 842 819 897 b 696 981 769 969 742 979 b 535 938 640 986 578 982 b 488 842 514 915 497 885 b 436 639 467 749 436 639 b 375 847 436 639 397 775 b 190 972 340 953 307 982 b 85 933 149 969 107 963 b 74 835 69 911 65 881 z "},"w":{"ha":1233,"x_min":0,"x_max":0,"o":"m 1149 932 b 953 961 1118 978 1008 981 b 814 624 872 938 860 825 l 814 625 b 775 844 803 681 778 818 b 617 969 761 933 707 976 b 469 875 535 963 488 944 b 400 614 451 813 407 650 b 358 851 394 626 364 808 b 200 976 343 940 290 983 b 88 933 158 974 113 967 b 114 628 47 883 81 756 b 175 372 121 596 167 408 b 243 119 190 306 233 140 b 415 4 271 26 308 -8 b 510 56 456 8 488 22 b 601 332 535 92 563 168 b 653 135 604 317 643 165 b 722 13 674 71 685 31 b 928 58 782 -17 894 -8 b 1117 675 958 117 1043 408 b 1149 932 1156 831 1183 879 z "},"ẃ":{"ha":1233,"x_min":0,"x_max":0,"o":"m 606 1078 b 725 1086 640 1078 703 1078 b 789 1164 751 1097 765 1115 b 835 1257 797 1182 832 1244 b 838 1286 838 1261 840 1275 b 747 1322 828 1321 790 1322 b 589 1288 708 1324 618 1331 b 544 1218 576 1272 544 1218 b 503 1117 526 1189 500 1150 b 606 1078 507 1078 549 1078 z m 1149 932 b 953 961 1118 978 1008 981 b 814 624 872 938 860 825 l 814 625 b 775 844 803 681 778 818 b 617 969 761 933 707 976 b 469 875 535 963 488 944 b 400 614 451 813 407 650 b 358 851 394 626 364 808 b 200 976 343 940 290 983 b 88 933 158 974 113 967 b 114 628 47 883 81 756 b 175 372 121 596 167 408 b 243 119 190 306 233 140 b 415 4 271 26 308 -8 b 510 56 456 8 488 22 b 601 332 535 92 563 168 b 653 135 604 317 643 165 b 722 13 674 71 685 31 b 928 58 782 -17 894 -8 b 1117 675 958 117 1043 408 b 1149 932 1156 831 1183 879 z "},"ŵ":{"ha":1233,"x_min":0,"x_max":0,"o":"m 421 1064 b 515 1056 453 1039 486 1033 b 618 1163 542 1074 589 1125 b 619 1164 619 1163 619 1164 b 732 1046 642 1136 711 1051 b 860 1110 785 1029 833 1082 b 869 1185 882 1132 890 1153 b 663 1397 814 1265 711 1381 b 589 1396 640 1406 610 1404 b 458 1282 538 1371 496 1324 b 379 1190 393 1207 417 1238 b 421 1064 343 1146 374 1103 z m 1149 932 b 953 961 1118 978 1008 981 b 814 624 872 938 860 825 l 814 625 b 775 844 803 681 778 818 b 617 969 761 933 707 976 b 469 875 535 963 488 944 b 400 614 451 813 407 650 b 358 851 394 626 364 808 b 200 976 343 940 290 983 b 88 933 158 974 113 967 b 114 628 47 883 81 756 b 175 372 121 596 167 408 b 243 119 190 306 233 140 b 415 4 271 26 308 -8 b 510 56 456 8 488 22 b 601 332 535 92 563 168 b 653 135 604 317 643 165 b 722 13 674 71 685 31 b 928 58 782 -17 894 -8 b 1117 675 958 117 1043 408 b 1149 932 1156 831 1183 879 z "},"ẅ":{"ha":1233,"x_min":0,"x_max":0,"o":"m 351 1115 b 397 1094 365 1106 376 1099 b 457 1089 413 1092 433 1089 b 488 1090 468 1089 478 1089 b 578 1136 533 1096 564 1111 b 588 1164 582 1144 586 1154 b 590 1201 590 1176 590 1190 b 590 1217 592 1208 590 1213 l 590 1229 b 578 1310 592 1260 588 1283 b 508 1372 567 1343 543 1364 b 424 1371 481 1378 450 1374 b 404 1369 417 1371 410 1369 b 339 1340 376 1367 354 1357 b 318 1286 326 1324 321 1303 b 351 1115 313 1251 306 1147 z m 685 1115 b 731 1094 699 1106 710 1099 b 790 1089 746 1092 767 1089 b 821 1090 801 1089 811 1089 b 911 1136 867 1096 897 1111 b 921 1164 915 1144 919 1154 b 924 1201 924 1176 924 1190 b 924 1217 925 1208 924 1213 l 924 1229 b 911 1310 925 1260 921 1283 b 842 1372 900 1343 876 1364 b 757 1371 814 1378 783 1374 b 738 1369 750 1371 743 1369 b 672 1340 710 1367 688 1357 b 651 1286 660 1324 654 1303 b 685 1115 646 1251 639 1147 z m 1149 932 b 953 961 1118 978 1008 981 b 814 624 872 938 860 825 l 814 625 b 775 844 803 681 778 818 b 617 969 761 933 707 976 b 469 875 535 963 488 944 b 400 614 451 813 407 650 b 358 851 394 626 364 808 b 200 976 343 940 290 983 b 88 933 158 974 113 967 b 114 628 47 883 81 756 b 175 372 121 596 167 408 b 243 119 190 306 233 140 b 415 4 271 26 308 -8 b 510 56 456 8 488 22 b 601 332 535 92 563 168 b 653 135 604 317 643 165 b 722 13 674 71 685 31 b 928 58 782 -17 894 -8 b 1117 675 958 117 1043 408 b 1149 932 1156 831 1183 879 z "},"ẁ":{"ha":1233,"x_min":0,"x_max":0,"o":"m 446 1164 b 510 1086 469 1115 483 1097 b 629 1078 532 1078 594 1078 b 732 1117 686 1078 728 1078 b 690 1218 735 1150 708 1189 b 646 1288 690 1218 658 1272 b 488 1322 617 1331 526 1324 b 397 1286 444 1322 407 1321 b 400 1257 394 1275 397 1261 b 446 1164 403 1244 438 1182 z m 1149 932 b 953 961 1118 978 1008 981 b 814 624 872 938 860 825 l 814 625 b 775 844 803 681 778 818 b 617 969 761 933 707 976 b 469 875 535 963 488 944 b 400 614 451 813 407 650 b 358 851 394 626 364 808 b 200 976 343 940 290 983 b 88 933 158 974 113 967 b 114 628 47 883 81 756 b 175 372 121 596 167 408 b 243 119 190 306 233 140 b 415 4 271 26 308 -8 b 510 56 456 8 488 22 b 601 332 535 92 563 168 b 653 135 604 317 643 165 b 722 13 674 71 685 31 b 928 58 782 -17 894 -8 b 1117 675 958 117 1043 408 b 1149 932 1156 831 1183 879 z "},"x":{"ha":1003,"x_min":0,"x_max":0,"o":"m 900 231 b 699 478 856 286 721 451 b 843 657 713 493 831 642 b 932 818 907 733 943 760 b 838 953 922 875 885 911 b 776 971 821 967 800 972 b 622 867 733 965 683 932 b 501 722 576 818 533 764 b 381 894 476 756 410 850 b 160 938 319 978 247 993 b 103 731 72 881 38 819 b 300 478 189 608 193 607 b 118 243 218 378 183 335 b 86 139 90 204 81 171 b 296 6 100 69 215 -10 b 396 79 333 14 365 38 b 501 231 406 93 474 193 b 607 107 532 192 568 147 b 772 3 654 56 714 3 b 900 92 825 3 872 42 b 900 231 926 136 929 189 z "},"y":{"ha":919,"x_min":0,"x_max":0,"o":"m 838 815 b 731 971 874 908 828 969 b 525 882 618 972 551 969 b 447 617 486 764 499 801 b 397 853 429 676 408 811 b 218 975 382 940 321 982 b 74 836 119 968 53 936 b 158 511 93 729 111 675 b 282 128 168 478 258 190 l 233 -7 b 167 -222 206 -83 189 -142 b 346 -350 140 -319 219 -349 b 514 -219 428 -349 488 -310 b 707 432 578 28 617 151 b 838 815 742 546 810 753 z "},"ý":{"ha":919,"x_min":0,"x_max":0,"o":"m 667 1286 b 576 1322 657 1321 619 1322 b 418 1288 538 1324 447 1331 b 374 1218 406 1272 374 1218 b 332 1117 356 1189 329 1150 b 435 1078 336 1078 378 1078 b 554 1086 469 1078 532 1078 b 618 1164 581 1097 594 1115 b 664 1257 626 1182 661 1244 b 667 1286 667 1261 669 1275 z m 838 815 b 731 971 874 908 828 969 b 525 882 618 972 551 969 b 447 617 486 764 499 801 b 397 853 429 676 408 811 b 218 975 382 940 321 982 b 74 836 119 968 53 936 b 158 511 93 729 111 675 b 282 128 168 478 258 190 l 233 -7 b 167 -222 206 -83 189 -142 b 346 -350 140 -319 219 -349 b 514 -219 428 -349 488 -310 b 707 432 578 28 617 151 b 838 815 742 546 810 753 z "},"ŷ":{"ha":919,"x_min":0,"x_max":0,"o":"m 707 1185 b 500 1397 651 1265 549 1381 b 426 1396 478 1406 447 1404 b 296 1282 375 1371 333 1324 b 217 1190 231 1207 254 1238 b 258 1064 181 1146 211 1103 b 353 1056 290 1039 324 1033 b 456 1163 379 1074 426 1125 b 457 1164 457 1163 457 1164 b 569 1046 479 1136 549 1051 b 697 1110 622 1029 671 1082 b 707 1185 719 1132 728 1153 z m 838 815 b 731 971 874 908 828 969 b 525 882 618 972 551 969 b 447 617 486 764 499 801 b 397 853 429 676 408 811 b 218 975 382 940 321 982 b 74 836 119 968 53 936 b 158 511 93 729 111 675 b 282 128 168 478 258 190 l 233 -7 b 167 -222 206 -83 189 -142 b 346 -350 140 -319 219 -349 b 514 -219 428 -349 488 -310 b 707 432 578 28 617 151 b 838 815 742 546 810 753 z "},"ÿ":{"ha":919,"x_min":0,"x_max":0,"o":"m 429 1217 l 429 1229 b 417 1310 431 1260 426 1283 b 347 1372 406 1343 382 1364 b 263 1371 319 1378 289 1374 b 243 1369 256 1371 249 1369 b 178 1340 215 1367 193 1357 b 157 1286 165 1324 160 1303 b 190 1115 151 1251 144 1147 b 236 1094 204 1106 215 1099 b 296 1089 251 1092 272 1089 b 326 1090 307 1089 317 1089 b 417 1136 372 1096 403 1111 b 426 1164 421 1144 425 1154 b 429 1201 429 1176 429 1190 b 429 1217 431 1208 429 1213 z m 763 1217 l 763 1229 b 750 1310 764 1260 760 1283 b 681 1372 739 1343 715 1364 b 596 1371 653 1378 622 1374 b 576 1369 589 1371 582 1369 b 511 1340 549 1367 526 1357 b 490 1286 499 1324 493 1303 b 524 1115 485 1251 478 1147 b 569 1094 538 1106 549 1099 b 629 1089 585 1092 606 1089 b 660 1090 640 1089 650 1089 b 750 1136 706 1096 736 1111 b 760 1164 754 1144 758 1154 b 763 1201 763 1176 763 1190 b 763 1217 764 1208 763 1213 z m 838 815 b 731 971 874 908 828 969 b 525 882 618 972 551 969 b 447 617 486 764 499 801 b 397 853 429 676 408 811 b 218 975 382 940 321 982 b 74 836 119 968 53 936 b 158 511 93 729 111 675 b 282 128 168 478 258 190 l 233 -7 b 167 -222 206 -83 189 -142 b 346 -350 140 -319 219 -349 b 514 -219 428 -349 488 -310 b 707 432 578 28 617 151 b 838 815 742 546 810 753 z "},"ỳ":{"ha":919,"x_min":0,"x_max":0,"o":"m 240 1286 b 243 1257 238 1275 240 1261 b 289 1164 246 1244 281 1182 b 353 1086 313 1115 326 1097 b 472 1078 375 1078 438 1078 b 575 1117 529 1078 571 1078 b 533 1218 578 1150 551 1189 b 489 1288 533 1218 501 1272 b 331 1322 460 1331 369 1324 b 240 1286 288 1322 250 1321 z m 838 815 b 731 971 874 908 828 969 b 525 882 618 972 551 969 b 447 617 486 764 499 801 b 397 853 429 676 408 811 b 218 975 382 940 321 982 b 74 836 119 968 53 936 b 158 511 93 729 111 675 b 282 128 168 478 258 190 l 233 -7 b 167 -222 206 -83 189 -142 b 346 -350 140 -319 219 -349 b 514 -219 428 -349 488 -310 b 707 432 578 28 617 151 b 838 815 742 546 810 753 z "},"z":{"ha":832,"x_min":0,"x_max":0,"o":"m 760 186 b 715 292 754 239 742 275 b 438 303 672 319 443 303 b 599 486 507 379 572 453 b 754 789 732 664 754 649 b 749 903 754 826 757 868 b 300 971 732 978 533 971 b 147 961 244 971 204 968 b 75 814 68 950 63 910 b 178 672 82 728 97 668 b 400 679 281 678 350 682 b 168 411 356 631 214 475 b 69 181 89 303 69 290 b 89 64 69 108 78 86 b 350 0 117 6 207 0 l 553 0 b 756 68 651 0 733 3 b 760 186 764 94 765 129 z "},"½":{"ha":1136,"x_min":0,"x_max":0,"o":"m 803 706 b 822 739 810 717 817 728 b 868 883 851 786 874 824 b 665 921 856 988 715 1008 b 610 833 654 900 622 853 b 317 332 511 668 415 499 b 253 214 289 289 278 258 b 217 122 236 186 224 156 b 392 28 193 14 335 -44 b 486 156 425 58 463 114 b 524 222 499 178 511 201 l 663 464 b 803 706 708 544 757 626 z m 114 965 b 210 971 133 971 178 972 b 289 917 246 971 289 960 b 293 514 288 689 290 643 b 189 440 293 463 239 440 b 106 528 144 440 106 463 b 106 658 104 576 107 610 b 107 726 104 693 107 693 b 106 786 107 746 106 774 b 54 793 106 794 75 774 b 43 919 29 815 31 894 b 114 965 49 943 76 956 z m 1068 167 b 992 169 1043 175 1019 174 b 1032 211 992 169 1001 183 b 1089 408 1103 282 1099 349 b 1018 511 1081 451 1058 482 b 786 486 956 557 838 542 b 767 461 778 479 771 471 b 817 328 743 419 772 333 b 889 347 853 325 863 343 b 872 286 924 349 918 324 b 764 60 803 233 758 150 b 765 54 764 58 764 57 b 918 -1 769 -17 861 -1 b 1068 7 942 -1 1046 -1 b 1068 167 1110 28 1114 153 z "},"¼":{"ha":1169,"x_min":0,"x_max":0,"o":"m 822 739 b 868 883 851 786 874 824 b 665 921 856 988 715 1008 b 610 833 654 900 622 853 b 317 332 511 668 415 499 b 253 214 289 289 278 258 b 217 122 236 186 224 156 b 392 28 193 14 335 -44 b 486 156 425 58 463 114 b 524 222 499 178 511 201 l 663 464 b 803 706 708 544 757 626 b 822 739 810 717 817 728 z m 293 514 b 289 917 290 643 288 689 b 210 971 289 960 246 971 b 114 965 178 972 133 971 b 43 919 76 956 49 943 b 54 793 31 894 29 815 b 106 786 75 774 106 794 b 107 726 106 774 107 746 b 106 658 107 693 104 693 b 106 528 107 610 104 576 b 189 440 106 463 144 440 b 293 514 239 440 293 463 z m 1133 185 b 1118 244 1133 217 1129 233 b 1065 256 1106 256 1094 256 b 1063 413 1063 293 1063 325 l 1063 481 b 1031 535 1063 507 1057 535 b 967 536 1024 536 989 536 b 844 488 886 536 882 533 b 788 408 829 467 811 440 l 711 294 b 671 188 676 243 671 238 b 682 122 671 160 675 136 b 836 96 697 85 726 99 l 903 96 b 911 13 903 57 901 26 b 1050 7 929 -21 1022 -19 b 1064 94 1065 24 1065 53 b 1092 96 1069 94 1082 94 b 1133 185 1139 101 1135 142 z m 861 256 l 903 314 b 906 256 903 292 904 275 z "},"¾":{"ha":1204,"x_min":0,"x_max":0,"o":"m 371 572 b 338 701 379 622 367 668 b 368 833 367 738 378 783 b 293 956 364 881 336 925 b 176 983 261 979 219 989 b 43 903 125 978 69 951 b 47 819 31 883 33 842 b 94 790 56 807 79 792 b 142 803 118 788 129 790 b 197 800 156 817 183 822 b 168 761 208 783 197 769 b 125 743 146 758 138 756 b 110 701 117 732 110 717 b 126 660 110 686 117 669 b 199 624 146 633 186 647 b 165 592 213 599 192 588 b 88 619 140 594 126 624 b 49 585 71 618 57 597 b 67 469 29 553 36 501 b 179 419 94 442 136 424 b 371 572 275 410 360 478 z m 857 739 b 903 883 886 786 908 824 b 700 921 890 988 750 1008 b 644 833 689 900 657 853 b 351 332 546 668 450 499 b 288 214 324 289 313 258 b 251 122 271 186 258 156 b 426 28 228 14 369 -44 b 521 156 460 58 497 114 b 558 222 533 178 546 201 l 697 464 b 838 706 743 544 792 626 b 857 739 844 717 851 728 z m 1168 185 b 1153 244 1168 217 1164 233 b 1100 256 1140 256 1129 256 b 1097 413 1097 293 1097 325 l 1097 481 b 1065 535 1097 507 1092 535 b 1001 536 1058 536 1024 536 b 879 488 921 536 917 533 b 822 408 864 467 846 440 l 746 294 b 706 188 711 243 706 238 b 717 122 706 160 710 136 b 871 96 732 85 761 99 l 938 96 b 946 13 938 57 936 26 b 1085 7 964 -21 1057 -19 b 1099 94 1100 24 1100 53 b 1126 96 1104 94 1117 94 b 1168 185 1174 101 1169 142 z m 896 256 l 938 314 b 940 256 938 292 939 275 z "},".":{"ha":261,"x_min":0,"x_max":0,"o":"m 261 110 b 253 201 261 142 264 174 b 90 264 229 268 192 264 b 25 233 63 261 40 250 b 4 179 11 217 7 199 b 1 108 0 164 -1 135 b 39 24 6 67 18 39 b 82 4 51 17 63 8 b 135 0 99 1 117 0 b 160 1 143 0 151 0 b 247 49 203 6 233 22 b 258 76 253 57 256 67 b 261 110 261 89 261 101 z "},",":{"ha":281,"x_min":0,"x_max":0,"o":"m 279 107 b 196 264 285 189 263 247 b 42 231 154 274 69 265 b 19 178 28 214 22 196 b 17 104 17 161 14 132 b 49 26 21 68 31 42 b 21 -7 42 4 40 13 b 10 -87 1 -28 -10 -62 b 63 -110 18 -99 33 -110 l 65 -110 b 251 8 133 -108 218 -49 b 279 107 276 51 276 69 z "},":":{"ha":331,"x_min":0,"x_max":0,"o":"m 296 600 b 285 692 296 635 294 664 b 125 754 260 768 206 754 b 60 724 97 751 75 740 b 39 669 46 707 42 689 b 36 599 35 654 33 625 b 74 514 40 557 53 529 b 194 492 107 494 144 483 b 282 539 238 496 268 513 b 296 600 292 554 296 579 z m 296 286 b 285 378 296 321 294 350 b 125 440 260 454 206 440 b 60 410 97 438 75 426 b 39 356 46 393 42 375 b 36 285 35 340 33 311 b 74 200 40 243 53 215 b 194 178 107 181 144 169 b 282 225 238 182 268 199 b 296 286 292 240 296 265 z "},";":{"ha":350,"x_min":0,"x_max":0,"o":"m 311 563 b 303 688 317 586 314 657 b 143 750 278 764 221 751 b 78 719 115 747 93 736 b 54 594 56 693 50 638 b 92 510 58 553 71 525 b 213 488 125 490 163 479 b 311 563 265 493 297 514 z m 314 281 b 231 438 314 363 297 421 b 76 404 189 447 104 439 b 54 351 63 388 57 369 b 51 278 51 335 49 306 b 83 200 56 242 65 215 b 56 167 76 178 75 186 b 44 86 36 146 25 111 b 97 64 53 75 68 64 l 100 64 b 286 186 168 65 258 129 b 314 281 325 242 314 344 z "},"…":{"ha":989,"x_min":0,"x_max":0,"o":"m 296 110 b 288 201 296 142 299 174 b 125 264 264 268 226 264 b 60 233 97 261 75 250 b 39 179 46 217 42 199 b 36 108 35 164 33 135 b 74 24 40 67 53 39 b 117 4 86 17 97 8 b 169 0 133 1 151 0 b 194 1 178 0 186 0 b 282 49 238 6 268 22 b 293 76 288 57 290 67 b 296 110 296 89 296 101 z m 624 110 b 615 201 624 142 626 174 b 453 264 592 268 554 264 b 388 233 425 261 403 250 b 367 179 374 217 369 199 b 364 108 363 164 361 135 b 401 24 368 67 381 39 b 444 4 414 17 425 8 b 497 0 461 1 479 0 b 522 1 506 0 514 0 b 610 49 565 6 596 22 b 621 76 615 57 618 67 b 624 110 624 89 624 101 z m 954 110 b 946 201 954 142 957 174 b 783 264 922 268 885 264 b 718 233 756 261 733 250 b 697 179 704 217 700 199 b 694 108 693 164 692 135 b 732 24 699 67 711 39 b 775 4 744 17 756 8 b 828 0 792 1 810 0 b 853 1 836 0 844 0 b 940 49 896 6 926 22 b 951 76 946 57 949 67 b 954 110 954 89 954 101 z "},"!":{"ha":346,"x_min":0,"x_max":0,"o":"m 154 321 l 156 321 b 282 354 203 321 251 324 b 310 440 301 375 310 403 b 304 575 308 524 307 553 b 304 857 300 611 299 635 b 257 954 306 906 290 938 b 156 972 235 967 194 972 b 68 944 117 974 89 964 b 35 833 44 919 33 885 b 38 756 36 824 38 781 l 40 656 b 40 482 40 617 39 517 b 61 378 40 439 47 406 b 154 321 79 340 113 321 z m 311 110 b 300 201 311 153 310 175 b 140 264 275 278 221 268 b 54 179 86 258 61 228 b 89 24 43 139 50 53 b 185 0 119 4 133 0 b 210 1 193 0 201 0 b 311 110 278 8 311 43 z "},"¡":{"ha":415,"x_min":0,"x_max":0,"o":"m 69 863 b 81 771 69 819 71 797 b 240 708 106 694 160 704 b 326 793 294 714 319 744 b 292 949 338 833 331 919 b 196 972 261 968 247 972 b 171 971 188 972 179 972 b 69 863 103 964 69 929 z m 226 651 l 225 651 b 99 618 178 651 129 649 b 71 532 79 597 71 569 b 76 397 72 449 74 419 b 76 115 81 361 82 338 b 124 18 75 67 90 35 b 225 0 146 6 186 0 b 313 28 264 -1 292 8 b 346 139 336 53 347 88 b 343 217 344 149 343 192 l 340 317 b 340 490 340 356 342 456 b 319 594 340 533 333 567 b 226 651 301 632 268 651 z "},"?":{"ha":617,"x_min":0,"x_max":0,"o":"m 478 931 b 275 975 422 968 350 985 b 90 886 203 965 136 933 b 39 794 64 860 47 826 b 57 688 31 756 36 718 b 129 643 74 664 100 647 b 222 678 171 639 199 660 b 278 713 240 692 258 706 b 315 681 304 724 331 713 b 286 656 310 669 294 661 b 236 625 278 651 242 629 b 146 525 203 596 164 565 b 144 338 115 468 94 389 b 319 328 179 301 276 308 b 396 439 371 351 369 396 b 581 672 444 517 568 551 b 564 817 586 722 581 772 b 478 931 544 864 515 903 z m 369 128 b 357 199 368 154 365 176 b 285 258 343 233 319 251 b 129 225 240 268 160 263 b 110 172 117 210 113 190 b 108 99 107 156 106 128 b 147 17 114 60 126 32 b 192 -3 160 8 172 1 b 357 44 244 -11 331 -7 b 369 121 368 63 369 92 z "},"¿":{"ha":686,"x_min":0,"x_max":0,"o":"m 282 842 b 294 771 283 815 286 793 b 367 711 308 736 332 718 b 522 744 411 701 492 707 b 542 797 535 760 539 779 b 543 871 544 814 546 842 b 504 953 538 910 525 938 b 460 972 492 961 479 968 b 294 925 407 981 321 976 b 282 849 283 907 282 878 z m 174 39 b 376 -6 229 1 301 -15 b 561 83 449 4 515 36 b 613 175 588 110 604 143 b 594 282 621 214 615 251 b 522 326 578 306 551 322 b 429 292 481 331 453 310 b 339 257 400 269 361 242 b 336 289 331 263 329 274 b 365 314 342 300 357 308 b 415 344 374 318 410 340 b 506 444 449 374 488 404 b 507 632 536 501 557 581 b 332 642 472 668 375 661 b 256 531 281 618 282 574 b 71 297 207 453 83 418 b 88 153 65 247 71 197 b 174 39 107 106 136 67 z "},"·":{"ha":331,"x_min":0,"x_max":0,"o":"m 282 401 b 296 483 294 419 296 446 b 285 554 296 510 293 532 b 125 617 263 625 222 624 b 60 586 97 614 75 603 b 38 533 46 569 40 553 b 36 461 33 518 33 488 b 74 376 40 419 53 392 b 194 354 107 357 144 346 b 282 401 238 358 268 375 z "},"•":{"ha":358,"x_min":0,"x_max":0,"o":"m 324 474 b 311 575 324 513 324 544 b 135 644 283 663 221 647 b 63 611 104 642 79 629 b 39 551 47 593 43 572 b 36 472 35 533 33 501 b 78 379 42 426 54 396 b 211 354 114 357 157 346 b 321 438 268 360 308 385 b 324 474 324 451 324 465 z "},"*":{"ha":588,"x_min":0,"x_max":0,"o":"m 536 776 b 461 789 518 789 504 789 b 507 854 490 818 507 835 b 401 924 501 890 439 946 b 361 888 394 917 379 904 b 346 965 361 928 361 953 b 233 958 328 979 251 983 b 221 892 222 944 221 929 b 167 929 214 896 192 929 b 83 868 131 929 101 899 b 126 789 68 844 101 811 b 53 778 88 789 67 790 b 39 675 28 751 33 714 b 125 649 43 647 99 649 b 81 589 108 636 81 608 b 143 508 81 553 111 531 b 221 549 167 494 197 522 b 232 476 221 506 221 489 b 335 461 258 450 296 457 b 363 553 367 469 360 513 b 456 515 403 510 424 489 b 508 588 474 528 511 563 b 463 649 501 608 492 622 b 551 689 521 649 544 649 b 536 776 554 710 557 761 z "},"#":{"ha":1117,"x_min":0,"x_max":0,"o":"m 1019 413 b 846 440 988 444 926 446 b 844 542 846 476 844 508 b 942 538 876 540 910 540 b 1032 581 985 536 1014 551 b 1021 753 1053 622 1057 717 b 922 782 1000 774 968 783 b 847 781 915 783 869 782 b 851 869 847 810 849 840 b 807 958 851 913 838 942 b 636 949 769 979 674 983 b 607 850 615 928 606 894 b 607 782 607 850 607 789 l 507 782 b 511 871 508 811 508 840 b 467 960 513 914 497 943 b 296 950 429 979 329 983 b 267 851 275 929 265 896 b 268 782 265 839 267 806 b 117 764 207 782 156 785 b 72 679 96 751 72 728 b 101 563 72 636 75 590 b 267 539 133 531 183 535 l 267 442 b 115 424 207 442 154 444 b 100 224 57 393 56 265 b 178 197 118 206 143 196 b 267 199 207 197 238 197 b 267 132 265 175 265 153 b 369 1 267 58 292 1 b 485 31 413 0 458 3 b 511 108 504 49 513 74 b 510 203 511 139 511 171 b 607 204 543 203 575 204 b 625 44 604 144 606 82 b 825 29 663 -15 779 -18 b 851 107 844 47 853 72 b 850 201 851 136 851 167 b 940 197 881 200 910 200 b 1029 242 983 196 1013 211 b 1019 413 1050 282 1057 375 z m 607 442 l 506 442 b 504 543 506 476 504 510 b 607 544 540 543 574 543 z "},"/":{"ha":617,"x_min":0,"x_max":0,"o":"m 565 869 b 576 906 569 881 574 893 b 581 1047 593 956 608 999 b 318 993 536 1135 346 1129 b 294 924 311 972 303 946 b 68 192 238 742 126 374 b 33 65 51 144 47 113 b 22 -29 26 36 17 3 b 46 -78 25 -47 32 -65 b 267 -50 86 -124 238 -114 b 325 85 293 -10 311 39 l 347 157 b 454 513 375 244 426 428 b 565 869 479 601 538 783 z "},"\\":{"ha":617,"x_min":0,"x_max":0,"o":"m 51 869 b 163 513 79 783 138 601 b 269 157 190 428 242 244 l 292 85 b 350 -50 306 39 324 -10 b 571 -78 379 -114 531 -124 b 594 -29 585 -65 592 -47 b 583 65 600 3 590 36 b 549 192 569 113 565 144 b 322 924 490 374 379 742 b 299 993 314 946 306 972 b 36 1047 271 1129 81 1135 b 40 906 8 999 24 956 b 51 869 43 893 47 881 z "},"(":{"ha":617,"x_min":0,"x_max":0,"o":"m 460 81 b 357 288 404 143 375 213 b 332 519 340 353 328 438 b 435 838 338 643 376 765 b 581 1079 493 910 593 971 b 365 1178 567 1185 472 1233 b 169 986 296 1142 226 1069 b 36 425 67 833 26 629 b 121 32 42 281 72 146 b 347 -237 164 -71 254 -190 b 575 -124 457 -300 564 -243 b 460 81 579 -51 519 13 z "},")":{"ha":617,"x_min":0,"x_max":0,"o":"m 157 81 b 42 -124 97 13 38 -51 b 269 -237 53 -243 160 -300 b 496 32 363 -190 453 -71 b 581 425 544 146 575 281 b 447 986 590 629 550 833 b 251 1178 390 1069 321 1142 b 36 1079 144 1233 50 1185 b 182 838 24 971 124 910 b 285 519 240 765 279 643 b 260 288 289 438 276 353 b 157 81 242 213 213 143 z "},"{":{"ha":669,"x_min":0,"x_max":0,"o":"m 633 -36 b 447 11 633 51 518 -22 b 428 303 400 35 428 218 b 322 468 428 318 422 446 b 419 613 407 511 421 557 b 446 931 417 800 414 901 b 596 960 481 964 557 932 b 613 1172 633 988 633 1122 b 390 1219 588 1226 539 1224 b 160 1014 239 1215 168 1151 b 157 758 158 918 161 856 b 93 551 154 688 158 613 b 129 344 -18 449 47 432 b 156 86 183 288 156 158 b 178 -186 157 -4 136 -101 b 549 -287 240 -308 442 -297 b 631 -228 564 -286 626 -279 b 633 -36 635 -161 638 -103 z "},"}":{"ha":669,"x_min":0,"x_max":0,"o":"m 222 11 b 36 -36 151 -22 36 51 b 39 -228 32 -103 35 -161 b 121 -287 43 -279 106 -286 b 492 -186 228 -297 429 -308 b 514 86 533 -101 513 -4 b 540 344 514 158 486 288 b 576 551 622 432 688 449 b 513 758 511 613 515 688 b 510 1014 508 856 511 918 b 279 1219 501 1151 431 1215 b 57 1172 131 1224 82 1226 b 74 960 36 1122 36 988 b 224 931 113 932 189 964 b 250 613 256 901 253 800 b 347 468 249 557 263 511 b 242 303 247 446 242 318 b 222 11 242 218 269 35 z "},"[":{"ha":622,"x_min":0,"x_max":0,"o":"m 551 -36 b 365 11 551 51 436 -22 b 340 303 318 35 342 222 b 338 613 338 476 339 549 b 364 931 335 800 332 901 b 514 960 399 964 475 932 b 531 1172 551 988 551 1122 b 308 1219 506 1226 457 1224 b 78 1014 157 1215 86 1151 l 75 758 b 74 86 74 667 74 453 b 96 -186 74 -7 54 -101 b 467 -287 158 -308 360 -297 b 549 -228 482 -286 544 -279 b 551 -36 553 -161 556 -103 z "},"]":{"ha":622,"x_min":0,"x_max":0,"o":"m 257 11 b 71 -36 186 -22 71 51 b 74 -228 67 -103 69 -161 b 156 -287 78 -279 140 -286 b 526 -186 263 -297 464 -308 b 549 86 568 -101 549 -7 b 547 758 549 453 549 667 l 544 1014 b 314 1219 536 1151 465 1215 b 92 1172 165 1224 117 1226 b 108 960 71 1122 71 988 b 258 931 147 932 224 964 b 285 613 290 901 288 800 b 282 303 283 549 285 476 b 257 11 281 222 304 35 z "},"-":{"ha":668,"x_min":0,"x_max":0,"o":"m 444 310 b 486 311 458 310 474 311 b 574 331 514 311 549 311 b 617 544 628 358 651 485 b 522 592 615 554 585 589 b 319 594 415 594 418 594 b 138 589 285 594 172 593 b 83 569 121 588 94 579 b 36 482 68 558 38 521 b 94 331 29 449 43 353 b 139 315 107 321 125 317 b 344 307 182 306 300 307 b 444 310 422 307 367 310 z "},"–":{"ha":860,"x_min":0,"x_max":0,"o":"m 636 313 b 678 314 650 313 665 314 b 765 333 706 314 740 314 b 808 547 819 361 843 488 b 714 594 807 557 776 592 b 511 597 607 597 610 597 b 138 592 476 597 172 596 b 83 572 121 590 94 582 b 36 485 68 561 38 524 b 94 333 29 451 43 356 b 139 318 107 324 125 319 b 536 310 182 308 492 310 b 636 313 614 310 558 313 z "},"—":{"ha":1356,"x_min":0,"x_max":0,"o":"m 1132 313 b 1174 314 1146 313 1161 314 b 1261 333 1201 314 1236 314 b 1304 547 1315 361 1339 488 b 1210 594 1303 557 1272 592 b 511 597 1103 597 610 597 b 138 592 476 597 172 596 b 83 572 121 590 94 582 b 36 485 68 561 38 524 b 94 333 29 451 43 356 b 139 318 107 324 125 319 b 536 310 182 308 492 310 b 1132 313 1110 310 1054 313 z "},"_":{"ha":936,"x_min":0,"x_max":0,"o":"m 694 -39 b 740 -37 708 -39 725 -37 b 836 -21 769 -37 808 -37 b 883 168 894 3 921 115 b 779 208 882 176 847 207 b 557 211 663 211 665 211 b 149 207 519 211 186 210 b 89 189 129 206 101 199 b 36 113 72 179 38 147 b 101 -21 29 83 44 -1 b 150 -35 114 -29 133 -33 b 585 -42 196 -43 536 -42 b 694 -39 669 -42 608 -39 z "},"‚":{"ha":350,"x_min":0,"x_max":0,"o":"m 314 107 b 231 264 319 189 297 247 b 76 231 189 274 104 265 b 54 178 63 214 57 196 b 51 104 51 161 49 132 b 83 26 56 68 65 42 b 56 -7 76 4 75 13 b 44 -87 36 -28 25 -62 b 97 -110 53 -99 68 -110 l 100 -110 b 286 8 168 -108 253 -49 b 314 107 311 51 311 69 z "},"„":{"ha":658,"x_min":0,"x_max":0,"o":"m 314 107 b 231 264 319 189 297 247 b 76 231 189 274 104 265 b 54 178 63 214 57 196 b 51 104 51 161 49 132 b 83 26 56 68 65 42 b 56 -7 76 4 75 13 b 44 -87 36 -28 25 -62 b 97 -110 53 -99 68 -110 l 100 -110 b 286 8 168 -108 253 -49 b 314 107 311 51 311 69 z m 622 107 b 539 264 628 189 606 247 b 385 231 497 274 413 265 b 363 178 371 214 365 196 b 360 104 360 161 357 132 b 392 26 364 68 374 42 b 364 -7 385 4 383 13 b 353 -87 344 -28 333 -62 b 406 -110 361 -99 376 -110 l 408 -110 b 594 8 476 -108 561 -49 b 622 107 619 51 619 69 z "},"“":{"ha":658,"x_min":0,"x_max":0,"o":"m 119 972 b 36 815 53 956 31 897 b 64 717 39 778 39 760 b 250 599 97 660 182 600 l 253 599 b 306 621 282 599 297 610 b 294 701 325 646 314 681 b 267 735 275 721 274 713 b 299 813 285 750 294 776 b 296 886 301 840 299 869 b 274 939 293 904 288 922 b 119 972 246 974 161 982 z m 428 972 b 344 815 361 956 339 897 b 372 717 347 778 347 760 b 558 599 406 660 490 600 l 561 599 b 614 621 590 599 606 610 b 603 701 633 646 622 681 b 575 735 583 721 582 713 b 607 813 593 750 603 776 b 604 886 610 840 607 869 b 582 939 601 904 596 922 b 428 972 554 974 469 982 z "},"”":{"ha":658,"x_min":0,"x_max":0,"o":"m 314 815 b 231 972 319 897 297 956 b 76 939 189 982 104 974 b 54 886 63 922 57 904 b 51 813 51 869 49 840 b 83 735 56 776 65 750 b 56 701 76 713 75 721 b 44 621 36 681 25 646 b 97 599 53 610 68 599 l 100 599 b 286 717 168 600 253 660 b 314 815 311 760 311 778 z m 622 815 b 539 972 628 897 606 956 b 385 939 497 982 413 974 b 363 886 371 922 365 904 b 360 813 360 869 357 840 b 392 735 364 776 374 750 b 364 701 385 713 383 721 b 353 621 344 681 333 646 b 406 599 361 610 376 599 l 408 599 b 594 717 476 600 561 660 b 622 815 619 760 619 778 z "},"‘":{"ha":350,"x_min":0,"x_max":0,"o":"m 119 972 b 36 815 53 956 31 897 b 64 717 39 778 39 760 b 250 599 97 660 182 600 l 253 599 b 306 621 282 599 297 610 b 294 701 325 646 314 681 b 267 735 275 721 274 713 b 299 813 285 750 294 776 b 296 886 301 840 299 869 b 274 939 293 904 288 922 b 119 972 246 974 161 982 z "},"’":{"ha":349,"x_min":0,"x_max":0,"o":"m 314 815 b 231 972 319 897 297 956 b 76 939 189 982 104 974 b 54 886 63 922 57 904 b 51 813 51 869 49 840 b 83 735 56 776 65 750 b 56 701 76 713 75 721 b 44 621 36 681 25 646 b 97 599 53 610 68 599 l 100 599 b 286 717 168 600 253 660 b 314 815 311 760 311 778 z "},"«":{"ha":935,"x_min":0,"x_max":0,"o":"m 279 154 b 365 163 310 129 338 135 b 444 300 397 190 461 240 b 311 436 440 328 367 385 b 313 438 311 436 313 436 b 442 550 360 469 410 513 b 392 710 481 606 446 656 b 292 714 354 735 319 739 b 46 481 194 643 78 542 b 122 286 11 411 63 340 b 279 154 117 290 257 171 z m 719 153 b 806 161 750 128 778 133 b 886 300 838 189 903 240 b 753 436 882 328 808 385 b 754 438 753 436 754 436 b 883 550 801 469 851 513 b 833 710 922 606 888 656 b 733 714 796 735 761 739 b 488 481 636 643 519 542 b 564 286 453 411 504 340 b 719 153 558 290 697 169 z "},"»":{"ha":935,"x_min":0,"x_max":0,"o":"m 214 147 b 371 286 236 164 376 290 b 447 481 431 340 482 411 b 201 714 415 542 299 643 b 101 710 174 739 139 735 b 51 550 47 656 13 606 b 181 438 83 513 133 469 b 182 436 181 436 182 436 b 49 300 126 385 53 328 b 128 156 32 240 96 183 b 214 147 156 128 183 122 z m 656 147 b 813 286 678 164 818 290 b 889 481 872 340 924 411 b 643 714 857 542 740 643 b 543 710 615 739 581 735 b 493 550 489 656 454 606 b 622 438 525 513 575 469 b 624 436 622 436 624 436 b 490 300 568 385 494 328 b 569 156 474 240 538 183 b 656 147 597 128 625 122 z "},"‹":{"ha":493,"x_min":0,"x_max":0,"o":"m 279 147 b 365 156 310 122 338 128 b 444 300 397 183 461 240 b 311 436 440 328 367 385 b 313 438 311 436 313 436 b 442 550 360 469 410 513 b 392 710 481 606 446 656 b 292 714 354 735 319 739 b 46 481 194 643 78 542 b 122 286 11 411 63 340 b 279 147 117 290 257 164 z "},"›":{"ha":493,"x_min":0,"x_max":0,"o":"m 214 147 b 371 286 236 164 376 290 b 447 481 431 340 482 411 b 201 714 415 542 299 643 b 101 710 174 739 139 735 b 51 550 47 656 13 606 b 181 438 83 513 133 469 b 182 436 181 436 182 436 b 49 300 126 385 53 328 b 128 156 32 240 96 183 b 214 147 156 128 183 122 z "},"\"":{"ha":658,"x_min":0,"x_max":0,"o":"m 314 815 b 231 972 319 897 297 956 b 76 939 189 982 104 974 b 54 886 63 922 57 904 b 51 813 51 869 49 840 b 83 735 56 776 65 750 b 56 701 76 713 75 721 b 44 621 36 681 25 646 b 97 599 53 610 68 599 l 100 599 b 286 717 168 600 253 660 b 314 815 311 760 311 778 z m 622 815 b 539 972 628 897 606 956 b 385 939 497 982 413 974 b 363 886 371 922 365 904 b 360 813 360 869 357 840 b 392 735 364 776 374 750 b 364 701 385 713 383 721 b 353 621 344 681 333 646 b 406 599 361 610 376 599 l 408 599 b 594 717 476 600 561 660 b 622 815 619 760 619 778 z "},"'":{"ha":350,"x_min":0,"x_max":0,"o":"m 314 815 b 231 972 319 897 297 956 b 76 939 189 982 104 974 b 54 886 63 922 57 904 b 51 813 51 869 49 840 b 83 735 56 776 65 750 b 56 701 76 713 75 721 b 44 621 36 681 25 646 b 97 599 53 610 68 599 l 100 599 b 286 717 168 600 253 660 b 314 815 311 760 311 778 z "},"¢":{"ha":656,"x_min":0,"x_max":0,"o":"m 554 167 b 578 396 628 236 646 336 b 425 385 525 443 474 433 b 356 364 404 364 385 357 b 289 483 307 375 286 433 b 407 594 296 567 336 636 b 506 563 433 576 464 557 b 572 767 599 576 622 688 b 472 850 550 806 510 835 b 426 963 481 885 468 940 b 238 951 386 988 278 992 b 206 835 204 918 206 885 b 63 626 140 788 90 715 b 40 379 36 547 29 460 b 210 128 56 272 121 168 b 231 44 213 93 219 67 b 424 13 267 -14 360 -19 b 481 119 464 33 481 75 b 554 167 508 131 533 147 z "},"$":{"ha":722,"x_min":0,"x_max":0,"o":"m 531 572 b 388 632 494 593 418 614 b 386 693 358 647 343 682 b 560 640 447 708 489 640 b 672 788 631 640 682 703 b 506 981 663 883 599 943 b 454 1107 506 1035 504 1082 b 247 1094 408 1135 290 1138 b 211 965 215 1064 211 1021 b 107 482 31 874 -25 628 b 354 336 197 382 274 400 b 318 275 392 306 363 269 b 153 332 272 281 229 342 b 114 65 38 322 24 164 b 215 -3 142 36 176 14 b 240 -100 218 -46 225 -76 b 450 -135 272 -158 388 -169 b 514 6 504 -110 514 -57 b 682 256 604 65 668 143 b 531 572 707 392 651 508 z "},"€":{"ha":824,"x_min":0,"x_max":0,"o":"m 707 313 b 546 254 642 321 607 263 b 454 297 507 249 476 268 b 458 297 456 297 457 297 l 493 297 b 568 314 518 297 549 294 b 588 440 604 347 594 388 b 526 476 588 449 581 475 b 415 479 489 478 460 479 b 418 511 417 489 417 500 b 458 511 438 511 440 511 l 493 511 b 568 526 518 511 549 508 b 588 654 604 561 594 601 b 526 690 588 663 581 689 b 461 692 507 692 485 692 b 546 733 483 721 511 739 b 707 678 607 726 642 669 b 743 913 797 688 817 832 b 315 929 646 1011 431 1014 b 172 693 239 872 197 782 b 92 689 146 693 118 692 b 38 635 56 685 44 667 b 58 528 33 607 31 547 b 147 508 83 513 100 511 l 147 485 b 147 479 147 482 147 481 l 92 475 b 38 421 56 471 44 453 b 58 315 33 393 31 333 b 153 292 81 299 121 292 b 171 229 157 271 164 249 b 318 40 201 143 254 89 b 742 68 433 -43 644 -29 b 707 313 815 149 804 296 z "},"£":{"ha":828,"x_min":0,"x_max":0,"o":"m 724 260 b 518 272 692 274 633 272 b 438 274 490 274 464 274 b 435 332 438 292 436 310 b 463 333 443 333 453 333 b 606 464 564 338 599 369 b 576 553 607 500 596 531 b 440 597 547 583 501 599 b 514 689 449 639 474 690 b 624 604 553 686 582 621 b 738 610 656 589 703 585 b 739 871 818 654 797 801 b 472 989 671 953 571 994 b 347 951 426 986 385 974 b 246 853 306 926 272 893 b 167 593 204 786 176 704 b 86 569 135 589 107 581 b 40 413 35 538 24 468 b 156 333 56 357 93 338 b 163 129 156 261 157 206 b 310 -4 178 35 203 -4 b 657 6 336 -4 639 4 b 754 42 692 8 722 13 b 790 164 785 69 799 128 b 724 260 785 200 760 244 z "},"¥":{"ha":825,"x_min":0,"x_max":0,"o":"m 744 849 b 557 976 794 961 671 1004 b 482 913 521 967 496 946 b 457 850 472 886 463 865 b 410 742 447 826 422 767 b 397 772 406 751 401 763 l 354 869 b 292 969 335 914 318 953 b 204 982 272 981 242 983 b 76 868 111 982 46 943 b 124 751 79 861 126 740 b 210 575 129 735 189 615 l 257 483 b 174 415 208 479 174 472 b 192 332 174 375 176 349 b 269 308 206 317 228 310 l 269 288 b 208 279 246 286 225 286 b 192 136 164 261 161 168 b 269 113 206 121 228 114 b 292 46 272 85 281 64 b 392 -1 307 24 335 -1 b 529 35 457 -1 500 4 b 557 119 551 57 557 85 b 633 201 632 126 633 156 b 549 292 635 268 626 294 b 547 314 549 299 547 306 b 635 415 633 319 636 333 b 568 488 633 461 622 488 b 614 582 571 492 601 558 b 744 849 593 536 724 804 z "},"+":{"ha":828,"x_min":0,"x_max":0,"o":"m 38 485 b 140 318 24 419 61 326 b 276 311 158 314 213 313 b 278 232 276 260 278 238 b 558 196 278 26 554 26 l 561 311 b 733 333 588 318 693 301 b 776 547 788 361 811 488 b 560 597 753 594 672 597 b 536 793 558 690 563 764 b 449 840 525 808 488 839 b 297 782 415 847 319 833 b 275 596 276 754 276 686 b 115 588 207 594 151 597 b 38 485 72 575 39 525 z "},"−":{"ha":828,"x_min":0,"x_max":0,"o":"m 504 310 b 733 333 635 310 706 313 b 776 547 788 361 811 488 b 479 597 754 594 589 597 b 139 592 444 597 174 596 b 38 485 82 588 39 536 b 140 318 24 419 61 326 b 504 310 183 308 460 310 z "},"×":{"ha":710,"x_min":0,"x_max":0,"o":"m 103 738 b 58 547 47 701 8 608 b 150 446 68 531 106 492 b 94 389 113 410 99 393 b 267 165 -51 243 144 47 l 351 244 b 489 138 375 231 438 144 b 669 258 546 119 653 192 b 553 447 686 310 632 368 b 674 603 617 514 672 564 b 646 699 676 621 672 669 b 497 764 626 726 549 785 b 350 647 463 758 415 711 b 231 756 301 694 264 736 b 103 738 192 776 133 765 z "},"÷":{"ha":933,"x_min":0,"x_max":0,"o":"m 588 778 b 579 869 588 810 590 842 b 417 932 556 936 518 932 b 351 901 389 929 367 918 b 331 847 338 885 333 867 b 328 776 326 832 325 803 b 365 692 332 735 344 707 b 408 672 378 685 389 676 b 461 668 425 669 443 668 b 486 669 469 668 478 668 b 574 717 529 674 560 690 b 585 744 579 725 582 735 b 588 778 588 757 588 769 z m 615 307 l 710 308 b 822 328 746 308 790 308 b 878 542 892 356 922 482 b 757 589 875 551 836 586 b 456 592 619 592 582 592 b 167 586 411 592 211 590 b 97 567 146 585 111 576 b 36 479 78 556 39 518 b 111 328 28 446 46 350 b 168 313 128 318 150 314 b 488 304 224 303 431 304 b 615 307 586 304 515 307 z m 588 68 b 579 160 588 100 590 132 b 417 222 556 226 518 222 b 351 192 389 219 367 208 b 331 138 338 175 333 157 b 328 67 326 122 325 93 b 365 -18 332 25 344 -3 b 408 -37 378 -25 389 -33 b 461 -42 425 -40 443 -42 b 486 -40 469 -42 478 -42 b 574 7 529 -36 560 -19 b 585 35 579 15 582 25 b 588 68 588 47 588 60 z "},"=":{"ha":828,"x_min":0,"x_max":0,"o":"m 504 493 b 733 517 635 493 706 496 b 776 731 788 544 811 671 b 479 781 754 778 589 781 b 139 775 444 781 174 779 b 38 668 82 771 39 719 b 140 501 24 603 61 510 b 504 493 183 492 460 493 z m 504 129 b 733 153 635 129 706 132 b 776 367 788 181 811 307 b 479 417 754 414 589 417 b 139 411 444 417 174 415 b 38 304 82 407 39 356 b 140 138 24 239 61 146 b 504 129 183 128 460 129 z "},"^":{"ha":668,"x_min":0,"x_max":0,"o":"m 618 731 b 479 888 601 753 475 893 b 285 964 425 947 354 999 b 51 718 224 932 122 815 b 56 618 26 690 31 656 b 215 568 110 564 160 529 b 328 697 253 600 296 650 b 329 699 329 697 329 699 b 465 565 381 643 438 569 b 610 644 525 549 582 613 b 618 731 638 672 643 700 z "},"%":{"ha":1082,"x_min":0,"x_max":0,"o":"m 867 724 b 889 758 874 735 882 746 b 936 904 921 806 949 844 b 682 932 915 1007 739 1022 b 618 842 669 911 632 863 b 281 328 504 672 394 499 b 208 207 250 283 236 251 b 169 113 189 178 175 147 b 393 26 146 4 325 -47 b 503 160 433 60 476 117 b 546 228 517 182 532 206 l 706 475 b 867 724 758 558 813 642 z m 243 567 l 218 567 b 128 597 182 569 153 579 b 43 718 86 626 53 669 b 113 933 19 800 46 882 b 218 981 140 961 181 976 b 340 958 261 985 304 978 b 444 761 418 919 447 829 b 410 640 444 715 433 674 b 293 569 383 603 339 576 b 243 567 279 568 261 567 z m 224 740 b 272 765 242 731 271 740 b 261 804 275 788 272 792 b 218 800 240 815 224 804 b 207 765 213 796 200 785 b 224 740 208 754 214 746 z m 846 -17 l 821 -17 b 731 14 785 -14 756 -4 b 646 135 689 43 656 86 b 715 350 622 217 649 299 b 821 397 743 378 783 393 b 943 375 864 401 907 394 b 1047 178 1021 336 1050 246 b 1013 57 1047 132 1036 90 b 896 -14 986 19 942 -7 b 846 -17 882 -15 864 -17 z m 826 157 b 875 182 844 147 874 157 b 864 221 878 204 875 208 b 821 217 843 232 826 221 b 810 182 815 213 803 201 b 826 157 811 171 817 163 z "},"◊":{"ha":1115,"x_min":0,"x_max":0,"o":"m 524 -32 b 593 -18 547 -47 574 -33 b 663 44 617 0 643 24 b 776 150 699 81 740 111 b 885 260 783 158 885 260 b 1064 435 935 308 1017 382 b 1064 511 1089 464 1085 485 b 983 593 1035 547 1014 563 b 885 693 951 626 918 660 b 776 803 885 693 783 794 b 674 896 728 851 690 881 l 626 944 b 569 999 600 971 582 994 b 542 1008 568 1003 553 1011 b 471 946 531 1004 493 969 b 383 850 440 913 417 881 l 213 674 b 36 460 164 626 21 488 b 213 268 71 396 161 319 l 383 90 b 458 21 408 67 433 43 b 494 -11 469 11 482 -3 b 524 -32 507 -17 513 -25 z m 549 306 b 500 356 531 324 521 333 b 460 399 489 371 475 385 b 396 467 436 422 404 456 b 494 568 393 471 472 546 b 551 629 522 594 536 613 l 600 583 b 682 504 628 557 656 533 b 706 464 704 479 718 478 b 632 390 683 442 656 410 b 588 347 615 376 606 363 b 549 306 574 332 569 329 z "},"@":{"ha":1147,"x_min":0,"x_max":0,"o":"m 1076 529 b 940 850 1071 649 1024 763 b 407 969 800 994 599 1028 b 199 839 329 944 261 901 l 197 839 b 96 660 153 788 118 726 b 156 201 46 508 68 336 b 600 -17 254 47 413 -17 b 872 64 699 -17 818 4 b 885 186 900 93 919 151 b 753 204 857 210 796 225 b 492 182 678 167 592 167 b 283 632 306 211 200 464 b 418 782 317 699 365 753 b 760 774 526 840 656 838 b 875 638 814 739 853 682 b 915 496 901 583 915 538 b 807 439 913 438 854 388 b 782 583 776 475 779 531 b 771 729 782 699 788 707 b 686 768 751 761 710 768 b 629 747 667 768 649 767 b 539 754 611 754 558 757 b 347 546 438 742 364 661 b 374 385 340 490 351 433 b 543 254 406 315 469 264 b 694 293 599 244 651 257 b 899 240 756 247 824 228 b 1076 529 1035 267 1085 385 z m 606 483 b 581 461 600 467 588 463 b 542 475 565 457 551 464 b 532 538 526 493 524 518 b 572 564 540 557 551 564 b 596 554 581 564 589 563 b 606 483 608 540 613 511 z "},"&":{"ha":924,"x_min":0,"x_max":0,"o":"m 854 126 b 739 250 850 164 814 193 b 838 408 793 310 840 347 b 710 533 833 460 774 531 b 571 453 661 533 596 490 b 568 450 569 453 569 451 b 424 632 519 503 463 572 b 428 717 406 657 400 692 b 503 715 449 738 478 725 b 578 706 526 707 553 696 b 576 942 707 753 665 876 b 215 893 465 1024 307 989 b 142 643 151 825 125 733 b 189 508 150 599 165 554 b 69 278 125 454 75 371 b 289 -1 61 138 151 25 b 422 -1 332 -10 379 -10 b 556 67 486 8 526 42 b 657 15 586 44 621 28 b 826 56 729 -4 788 10 b 854 126 849 79 857 103 z m 386 257 b 315 267 360 225 318 229 b 340 307 314 278 324 290 z "},"¶":{"ha":1079,"x_min":0,"x_max":0,"o":"m 1044 125 b 1039 304 1043 190 1042 247 b 1038 865 1035 444 1029 589 b 990 967 1039 915 1024 949 b 782 956 943 992 821 997 b 747 840 757 932 746 894 b 753 408 760 632 751 463 b 753 275 754 363 754 319 b 753 150 753 235 751 193 b 872 0 756 51 785 7 b 1015 36 932 0 986 3 b 1044 125 1035 54 1044 85 z m 74 821 b 51 550 31 739 22 626 b 192 374 72 488 133 403 b 388 332 244 349 317 333 b 383 143 389 282 385 175 b 554 -7 381 33 436 -6 b 676 81 621 -8 665 17 b 679 390 681 114 681 129 b 674 838 679 536 678 688 b 454 978 672 931 561 974 b 74 821 294 985 131 932 z m 396 710 b 393 582 393 529 394 594 b 325 682 329 583 307 650 b 396 710 336 703 375 715 z "},"§":{"ha":501,"x_min":0,"x_max":0,"o":"m 411 356 b 463 467 439 386 457 424 b 260 718 493 632 351 681 b 263 794 222 739 217 783 b 401 758 318 808 349 751 b 435 900 457 768 469 838 b 160 958 388 974 254 1001 b 97 626 31 899 -10 707 b 54 396 39 565 15 474 b 181 289 69 354 125 304 b 276 253 213 279 267 268 b 218 174 301 207 263 167 b 104 215 176 179 149 221 b 89 53 40 206 28 107 b 368 26 157 -15 286 -32 b 411 356 474 101 497 264 z m 250 453 b 260 510 210 468 236 514 b 250 453 297 504 289 444 z "},"©":{"ha":1106,"x_min":0,"x_max":0,"o":"m 1071 501 b 972 788 1069 599 1036 694 b 838 913 938 836 893 878 b 658 982 783 944 722 968 b 463 989 592 994 526 997 b 278 924 396 979 332 957 b 65 651 178 861 104 768 b 47 328 32 550 25 435 b 100 188 57 276 75 229 b 196 82 126 147 157 111 b 328 13 233 51 278 29 b 493 -15 378 -4 433 -12 b 788 39 568 -26 703 -1 b 989 222 872 79 939 142 b 1071 501 1046 315 1074 410 z m 868 419 b 799 282 858 375 832 318 b 664 194 761 244 717 215 b 454 185 592 169 519 174 b 297 274 389 196 339 231 b 240 403 268 317 247 356 b 246 540 232 449 233 494 b 306 672 257 586 278 633 b 413 767 336 711 372 744 b 607 797 469 799 538 810 b 788 699 676 785 740 750 b 865 558 826 654 853 607 b 868 419 878 511 879 465 z m 722 379 b 643 439 714 421 675 453 b 592 400 624 433 601 403 b 515 418 571 389 529 396 b 578 585 478 482 517 606 b 633 557 597 572 615 558 b 706 635 674 549 710 582 b 636 725 700 668 678 707 b 454 719 585 756 500 756 b 361 581 413 688 379 640 b 379 333 339 507 338 400 b 553 236 415 271 479 236 b 685 285 597 236 646 250 b 722 379 711 311 725 344 z "},"®":{"ha":632,"x_min":0,"x_max":0,"o":"m 542 876 b 371 982 506 929 444 968 b 267 985 338 989 300 990 b 50 804 165 974 89 903 b 40 626 33 749 29 686 b 71 553 47 600 56 574 b 121 494 85 531 101 511 b 194 458 143 479 167 467 b 299 442 218 449 258 442 b 443 472 351 442 401 450 b 551 571 488 493 525 528 b 597 724 582 621 597 672 b 542 876 596 775 578 826 z m 483 679 b 449 613 478 654 465 631 b 376 564 428 592 404 575 b 263 553 338 550 297 546 b 175 597 228 558 199 572 b 147 669 161 619 151 643 b 150 742 144 693 146 719 b 183 813 157 767 168 792 b 240 864 200 835 218 851 b 343 881 269 881 307 888 b 442 826 381 874 415 856 b 483 751 461 804 475 779 b 483 679 489 728 489 701 z m 372 706 b 393 818 404 738 414 779 b 336 860 381 844 357 853 b 251 854 303 868 275 867 b 231 821 240 847 231 835 b 229 694 229 781 229 736 l 229 624 b 239 592 228 608 232 599 b 303 592 251 579 289 581 b 311 646 314 604 311 619 b 353 594 321 626 332 607 b 407 590 372 581 392 579 b 407 639 426 606 422 618 b 372 706 406 640 378 682 z m 310 753 l 310 785 b 325 768 313 785 325 783 b 310 753 325 756 308 749 z "},"™":{"ha":772,"x_min":0,"x_max":0,"o":"m 735 696 b 733 779 735 710 735 760 b 726 925 732 821 726 950 b 707 968 725 939 721 958 b 660 978 699 975 685 978 b 565 875 614 978 594 936 b 547 842 560 865 554 853 b 481 944 524 878 481 942 b 454 971 474 953 465 965 b 363 944 422 985 364 978 b 364 619 357 913 360 764 b 415 556 365 583 378 556 b 485 610 458 556 488 565 b 482 722 485 642 482 701 l 492 706 b 507 685 497 697 503 690 b 547 656 522 665 535 657 b 618 725 572 654 592 683 b 615 647 618 699 617 672 b 631 571 615 611 610 592 b 715 563 647 553 694 551 b 736 604 729 569 735 583 b 735 696 738 639 738 663 z m 310 960 b 235 971 293 976 272 971 b 124 975 225 971 140 974 b 44 949 81 978 64 985 b 47 871 32 922 29 890 b 119 851 58 857 88 851 b 117 735 118 813 118 774 b 114 611 115 693 114 650 b 172 556 114 569 132 554 b 242 588 210 556 236 557 b 239 851 244 606 243 622 b 311 867 274 851 293 851 b 322 915 319 874 322 889 b 310 960 322 931 321 949 z "},"°":{"ha":542,"x_min":0,"x_max":0,"o":"m 275 581 l 247 581 b 142 617 204 583 171 596 b 43 754 93 649 56 697 b 125 1000 18 849 49 942 b 247 1054 156 1033 200 1050 b 386 1029 294 1058 343 1051 b 507 804 476 985 508 882 b 465 664 507 750 493 704 b 332 583 435 621 385 592 b 275 581 315 582 294 581 z m 251 782 b 304 808 271 772 301 782 b 292 850 307 832 304 838 b 246 846 269 861 251 850 b 235 808 240 840 226 829 b 251 782 236 797 242 788 z "},"|":{"ha":367,"x_min":0,"x_max":0,"o":"m 332 125 b 326 304 331 190 329 247 b 325 865 322 444 317 589 b 278 967 326 915 311 949 b 69 956 231 992 108 997 b 35 840 44 932 33 894 b 40 408 47 632 39 463 b 40 275 42 363 42 319 b 40 150 40 235 39 193 b 160 0 43 51 72 7 b 303 36 219 0 274 3 b 332 125 322 54 332 85 z "},"¦":{"ha":358,"x_min":0,"x_max":0,"o":"m 38 682 b 58 558 38 618 40 582 b 272 532 86 507 213 499 b 322 801 336 558 322 694 b 210 981 322 897 306 978 b 58 925 176 988 81 974 b 35 778 39 903 35 835 b 38 682 35 704 38 757 z m 38 150 b 58 35 38 89 42 57 b 272 -6 86 -17 213 -39 b 317 351 338 17 322 208 b 210 436 311 411 269 433 b 43 351 146 442 53 433 b 38 150 36 267 38 321 z "},"†":{"ha":817,"x_min":0,"x_max":0,"o":"m 82 717 b 69 476 24 672 19 524 b 265 450 101 439 167 446 b 267 150 269 322 264 242 b 386 0 269 51 299 7 b 558 125 492 0 558 17 l 549 457 l 672 454 b 765 501 718 453 749 468 b 754 710 786 546 792 672 b 556 740 718 753 671 744 l 549 740 l 551 865 b 406 985 554 957 501 985 b 261 840 303 985 258 953 b 265 739 263 833 264 765 b 82 717 189 739 126 744 z "},"‡":{"ha":796,"x_min":0,"x_max":0,"o":"m 38 340 b 69 197 38 281 40 226 b 250 171 99 160 157 167 b 369 0 253 58 271 8 b 513 36 429 0 483 3 b 540 178 547 68 540 113 b 744 222 685 174 717 168 b 735 431 765 271 771 392 b 532 461 697 475 639 465 b 531 533 532 485 531 508 l 654 531 b 744 578 699 529 728 544 b 735 783 765 625 771 744 b 533 817 693 833 636 817 b 488 967 536 907 533 942 b 279 956 440 992 318 997 b 246 815 242 921 246 879 b 82 793 178 815 122 819 b 69 553 24 749 21 601 b 249 526 99 517 158 522 l 249 460 b 82 438 181 460 124 465 b 38 340 49 413 42 389 z "},"̈":{"ha":0,"x_min":0,"x_max":0,"o":"m -368 1217 l -368 1229 b -381 1310 -367 1260 -371 1283 b -450 1372 -392 1343 -415 1364 b -535 1371 -478 1378 -508 1374 b -554 1369 -542 1371 -549 1369 b -619 1340 -582 1367 -604 1357 b -640 1286 -632 1324 -637 1303 b -607 1115 -646 1251 -653 1147 b -561 1094 -593 1106 -582 1099 b -501 1089 -546 1092 -525 1089 b -471 1090 -490 1089 -481 1089 b -381 1136 -425 1096 -394 1111 b -371 1164 -376 1144 -372 1154 b -368 1201 -368 1176 -368 1190 b -368 1217 -367 1208 -368 1213 z m -35 1217 l -35 1229 b -47 1310 -33 1260 -37 1283 b -117 1372 -58 1343 -82 1364 b -201 1371 -144 1378 -175 1374 b -221 1369 -208 1371 -215 1369 b -286 1340 -249 1367 -271 1357 b -307 1286 -299 1324 -304 1303 b -274 1115 -312 1251 -319 1147 b -228 1094 -260 1106 -249 1099 b -168 1089 -212 1092 -192 1089 b -137 1090 -157 1089 -147 1089 b -47 1136 -92 1096 -61 1111 b -37 1164 -43 1144 -39 1154 b -35 1201 -35 1176 -35 1190 b -35 1217 -33 1208 -35 1213 z "},"̇":{"ha":0,"x_min":0,"x_max":0,"o":"m -35 1217 l -35 1229 b -47 1310 -33 1260 -37 1283 b -117 1372 -58 1343 -82 1364 b -201 1371 -144 1378 -175 1374 b -221 1369 -208 1371 -215 1369 b -286 1340 -249 1367 -271 1357 b -307 1286 -299 1324 -304 1303 b -274 1115 -312 1251 -319 1147 b -228 1094 -260 1106 -249 1099 b -168 1089 -212 1092 -192 1089 b -137 1090 -157 1089 -147 1089 b -47 1136 -92 1096 -61 1111 b -37 1164 -43 1144 -39 1154 b -35 1201 -35 1176 -35 1190 b -35 1217 -33 1208 -35 1213 z "},"̀":{"ha":0,"x_min":0,"x_max":0,"o":"m -369 1286 b -367 1257 -372 1275 -369 1261 b -321 1164 -364 1244 -329 1182 b -257 1086 -297 1115 -283 1097 b -137 1078 -235 1078 -172 1078 b -35 1117 -81 1078 -39 1078 b -76 1218 -32 1150 -58 1189 b -121 1288 -76 1218 -108 1272 b -279 1322 -150 1331 -240 1324 b -369 1286 -322 1322 -360 1321 z "},"́":{"ha":0,"x_min":0,"x_max":0,"o":"m -36 1286 b -126 1322 -46 1321 -83 1322 b -285 1288 -165 1324 -256 1331 b -329 1218 -297 1272 -329 1218 b -371 1117 -347 1189 -374 1150 b -268 1078 -367 1078 -325 1078 b -149 1086 -233 1078 -171 1078 b -85 1164 -122 1097 -108 1115 b -39 1257 -76 1182 -42 1244 b -36 1286 -36 1261 -33 1275 z "},"̋":{"ha":0,"x_min":0,"x_max":0,"o":"m -372 1286 b -462 1322 -382 1321 -419 1322 b -621 1288 -501 1324 -592 1331 b -665 1218 -633 1272 -665 1218 b -707 1117 -683 1189 -710 1150 b -604 1078 -703 1078 -661 1078 b -485 1086 -569 1078 -507 1078 b -421 1164 -458 1097 -444 1115 b -375 1257 -412 1182 -378 1244 b -372 1286 -372 1261 -369 1275 z m -36 1286 b -126 1322 -46 1321 -83 1322 b -285 1288 -165 1324 -256 1331 b -329 1218 -297 1272 -329 1218 b -371 1117 -347 1189 -374 1150 b -268 1078 -367 1078 -325 1078 b -149 1086 -233 1078 -171 1078 b -85 1164 -122 1097 -108 1115 b -39 1257 -76 1182 -42 1244 b -36 1286 -36 1261 -33 1275 z "},"̂":{"ha":0,"x_min":0,"x_max":0,"o":"m -47 1185 b -254 1397 -103 1265 -206 1381 b -328 1396 -276 1406 -307 1404 b -458 1282 -379 1371 -421 1324 b -537 1190 -524 1207 -500 1238 b -496 1064 -574 1146 -543 1103 b -401 1056 -464 1039 -431 1033 b -299 1163 -375 1074 -328 1125 b -297 1164 -297 1163 -297 1164 b -185 1046 -275 1136 -206 1051 b -57 1110 -132 1029 -83 1082 b -47 1185 -35 1132 -26 1153 z "},"̌":{"ha":0,"x_min":0,"x_max":0,"o":"m -47 1285 b -57 1360 -26 1317 -35 1338 b -185 1424 -83 1388 -132 1440 b -297 1306 -206 1418 -275 1333 b -299 1307 -297 1306 -297 1307 b -401 1414 -328 1344 -375 1396 b -496 1406 -431 1436 -464 1431 b -537 1279 -543 1367 -574 1324 b -458 1188 -500 1232 -524 1263 b -328 1074 -421 1146 -379 1099 b -254 1072 -307 1065 -276 1064 b -47 1285 -206 1089 -103 1204 z "},"̊":{"ha":0,"x_min":0,"x_max":0,"o":"m -204 1072 l -224 1072 b -299 1097 -254 1075 -279 1083 b -371 1199 -335 1122 -361 1158 b -312 1379 -389 1267 -367 1335 b -224 1417 -287 1400 -256 1413 b -121 1399 -187 1421 -153 1414 b -35 1233 -57 1365 -33 1292 b -64 1135 -35 1196 -44 1163 b -162 1075 -86 1103 -122 1081 b -204 1072 -172 1074 -187 1072 z m -224 1207 b -168 1233 -204 1194 -169 1204 b -181 1279 -165 1258 -168 1265 b -229 1275 -206 1292 -224 1279 b -242 1233 -236 1269 -249 1256 b -224 1207 -240 1224 -233 1214 z "},"̃":{"ha":0,"x_min":0,"x_max":0,"o":"m -44 1300 b -103 1381 -54 1329 -68 1361 b -232 1342 -157 1415 -228 1399 b -206 1246 -239 1303 -200 1272 b -226 1249 -208 1236 -218 1236 b -256 1321 -236 1264 -246 1303 b -550 1328 -315 1435 -471 1431 b -528 1100 -597 1260 -585 1154 b -408 1078 -494 1067 -443 1057 b -394 1182 -375 1099 -365 1140 b -400 1231 -403 1197 -411 1219 b -372 1196 -385 1243 -378 1218 b -312 1096 -365 1156 -343 1125 b -53 1157 -229 1024 -99 1057 b -44 1300 -32 1203 -28 1254 z "},"̄":{"ha":0,"x_min":0,"x_max":0,"o":"m -36 1181 b -129 1317 -31 1268 -53 1315 b -424 1315 -222 1319 -362 1321 b -501 1240 -469 1310 -493 1286 b -469 1106 -501 1236 -518 1140 b -353 1082 -440 1085 -406 1082 l -185 1085 b -68 1108 -122 1085 -96 1081 b -36 1181 -49 1128 -39 1151 z "},"̧":{"ha":0,"x_min":0,"x_max":0,"o":"m -185 0 b -46 -125 -106 -43 -71 -57 b -39 -236 -33 -158 -32 -194 b -417 -293 -65 -412 -337 -444 b -410 -194 -429 -269 -426 -219 b -293 -187 -383 -156 -326 -157 b -228 -171 -258 -218 -214 -206 b -282 -137 -233 -156 -260 -146 b -374 -67 -314 -125 -356 -101 b -399 0 -385 -44 -396 -21 z "},"̵":{"ha":0,"x_min":0,"x_max":0,"o":"m -224 349 b -182 350 -210 349 -194 350 b -94 369 -154 350 -119 350 b -51 583 -40 397 -17 524 b -146 631 -53 593 -83 628 b -349 633 -253 633 -250 633 b -722 628 -383 633 -687 632 b -776 608 -739 626 -765 618 b -824 521 -792 597 -822 560 b -765 369 -831 488 -817 392 b -721 354 -753 360 -735 356 b -324 346 -678 344 -368 346 b -224 349 -246 346 -301 349 z "},"̸":{"ha":0,"x_min":0,"x_max":0,"o":"m -101 706 b -82 739 -94 717 -87 728 b -36 883 -53 786 -31 824 b -239 921 -49 988 -189 1008 b -294 833 -250 900 -282 853 b -587 332 -393 668 -489 499 b -651 214 -615 289 -626 258 b -687 122 -668 186 -681 156 b -512 28 -711 14 -569 -44 b -418 156 -479 58 -442 114 b -381 222 -406 178 -393 201 l -242 464 b -101 706 -196 544 -147 626 z "}}}
